<?xml version="1.0" encoding="utf-8"?>
<!-- Generator: Adobe Illustrator 17.0.1, SVG Export Plug-In . SVG Version: 6.00 Build 0)  -->
<!DOCTYPE svg PUBLIC "-//W3C//DTD SVG 1.1//EN" "http://www.w3.org/Graphics/SVG/1.1/DTD/svg11.dtd">
<svg version="1.1" id="Business" xmlns="http://www.w3.org/2000/svg" xmlns:xlink="http://www.w3.org/1999/xlink" x="0px" y="0px"
	 width="205px" height="205.5px" viewBox="0 0 205 205.5" enable-background="new 0 0 205 205.5" xml:space="preserve">
<g id="Background">
	<circle id="Background_2" fill="none" stroke="#FFCC00" stroke-width="3" stroke-miterlimit="10" cx="102" cy="103" r="99.75"/>
</g>
<g id="Web_Research_1_" display="none">
	<g display="inline">
		<path fill-rule="evenodd" clip-rule="evenodd" fill="#353F49" d="M-0.718,177.25h206.106c1.702,0,3.103,1.4,3.103,3.103v1.198
			c0,1.702-1.4,3.103-3.103,3.103H-0.718c-1.704,0-3.103-1.4-3.103-3.103v-1.198C-3.821,178.65-2.421,177.25-0.718,177.25
			L-0.718,177.25z"/>
		<rect x="80.524" y="161.518" fill-rule="evenodd" clip-rule="evenodd" fill="#292354" width="38.193" height="11.77"/>
		<path fill-rule="evenodd" clip-rule="evenodd" fill="#332B67" d="M25.149,47.614h148.944c1.466,0,2.647,1.181,2.647,2.629v111.122
			c0,1.468-1.181,2.648-2.647,2.648H25.149c-1.467,0-2.648-1.181-2.648-2.648V50.244C22.5,48.795,23.681,47.614,25.149,47.614
			L25.149,47.614z"/>
		<path fill-rule="evenodd" clip-rule="evenodd" fill="#CCCCCC" d="M29.095,54.291h141.051c0.861,0,1.567,0.691,1.567,1.551v88.51
			c0,0.858-0.707,1.567-1.567,1.567H29.095c-0.861,0-1.569-0.709-1.569-1.567v-88.51C27.526,54.982,28.234,54.291,29.095,54.291
			L29.095,54.291z"/>
		<path fill-rule="evenodd" clip-rule="evenodd" fill="#332B67" d="M72.278,170.825h54.683c1.451,0,2.631,1.181,2.631,2.613v1.012
			c0,1.434-1.18,2.615-2.631,2.615H72.278c-1.45,0-2.631-1.181-2.631-2.615v-1.012C69.648,172.006,70.828,170.825,72.278,170.825
			L72.278,170.825z"/>
	</g>
	<g display="inline">
		<rect x="196.35" y="136.697" fill-rule="evenodd" clip-rule="evenodd" fill="#E84C40" width="8.128" height="40.569"/>
		<polygon fill-rule="evenodd" clip-rule="evenodd" fill="#F99E3F" points="138.647,149.983 145.072,152.767 132.054,177.266 
			125.63,174.484 		"/>
		<g>
			<rect x="162.103" y="127.489" fill-rule="evenodd" clip-rule="evenodd" fill="#FCB245" width="23.236" height="49.777"/>
			<rect x="162.103" y="146.512" fill-rule="evenodd" clip-rule="evenodd" fill="#FFE8B1" width="23.236" height="11.735"/>
			<rect x="162.103" y="139.192" fill-rule="evenodd" clip-rule="evenodd" fill="#FFE8B1" width="23.236" height="3.659"/>
			<rect x="162.103" y="162.512" fill-rule="evenodd" clip-rule="evenodd" fill="#FFE8B1" width="23.236" height="3.661"/>
		</g>
		<g>
			<rect x="144.988" y="131.824" fill-rule="evenodd" clip-rule="evenodd" fill="#E84C40" width="17.115" height="45.442"/>
			<rect x="149.777" y="137.69" fill-rule="evenodd" clip-rule="evenodd" fill="#F77B55" width="7.554" height="33.725"/>
		</g>
		<g>
			<rect x="185.339" y="133.375" fill-rule="evenodd" clip-rule="evenodd" fill="#0071C1" width="10.673" height="43.891"/>
			<rect x="185.339" y="140.052" fill-rule="evenodd" clip-rule="evenodd" fill="#318CCD" width="10.673" height="30.538"/>
		</g>
	</g>
	<g display="inline">
		<path fill-rule="evenodd" clip-rule="evenodd" fill="#FFFFFF" d="M2.688,14.311h152.569c2.495,0,4.535,2.04,4.535,4.537v102.015
			c0,2.48-2.041,4.521-4.535,4.521H2.688c-2.495,0-4.537-2.04-4.537-4.521V18.848C-1.849,16.352,0.193,14.311,2.688,14.311
			L2.688,14.311z"/>
		<path fill-rule="evenodd" clip-rule="evenodd" fill="#353F49" d="M1.558,14.311H156.37c1.889,0,3.423,1.534,3.423,3.406v10.471
			c0,0.17-0.135,0.287-0.286,0.287H-1.849V17.717C-1.849,15.845-0.313,14.311,1.558,14.311L1.558,14.311z"/>
		<path fill-rule="evenodd" clip-rule="evenodd" fill="#F77B55" d="M6.145,24.344c1.636,0,2.967-1.4,2.967-3.103
			c0-1.72-1.332-3.12-2.967-3.12c-1.636,0-2.969,1.4-2.969,3.12C3.176,22.943,4.509,24.344,6.145,24.344L6.145,24.344z"/>
		<path fill-rule="evenodd" clip-rule="evenodd" fill="#76D0DE" d="M14.44,24.344c1.636,0,2.968-1.4,2.968-3.103
			c0-1.72-1.332-3.12-2.968-3.12c-1.636,0-2.968,1.4-2.968,3.12C11.473,22.943,12.805,24.344,14.44,24.344L14.44,24.344z"/>
		<path fill-rule="evenodd" clip-rule="evenodd" fill="#FFDB79" d="M22.736,24.344c1.636,0,2.969-1.4,2.969-3.103
			c0-1.72-1.333-3.12-2.969-3.12c-1.635,0-2.966,1.4-2.966,3.12C19.77,22.943,21.101,24.344,22.736,24.344L22.736,24.344z"/>
		<rect x="30.207" y="18.628" fill-rule="evenodd" clip-rule="evenodd" fill="#FFFFFF" width="124.983" height="5.884"/>
		<rect x="11.136" y="34.006" fill-rule="evenodd" clip-rule="evenodd" fill="#CCCCCC" width="34.686" height="4.586"/>
		<rect x="60.204" y="34.006" fill-rule="evenodd" clip-rule="evenodd" fill="#CCCCCC" width="34.669" height="4.586"/>
		<rect x="109.409" y="34.006" fill-rule="evenodd" clip-rule="evenodd" fill="#CCCCCC" width="34.684" height="4.586"/>
		<rect x="24.103" y="76.65" fill-rule="evenodd" clip-rule="evenodd" fill="#CCCCCC" width="62.035" height="2.563"/>
		<rect x="16.195" y="83.497" fill-rule="evenodd" clip-rule="evenodd" fill="#CCCCCC" width="62.036" height="2.546"/>
		<rect x="100.286" y="47.125" fill-rule="evenodd" clip-rule="evenodd" fill="#08C6A2" width="49.912" height="67.178"/>
		<rect x="14.222" y="90.342" fill-rule="evenodd" clip-rule="evenodd" fill="#CCCCCC" width="62.035" height="2.546"/>
		<rect x="22.13" y="97.189" fill-rule="evenodd" clip-rule="evenodd" fill="#CCCCCC" width="62.036" height="2.546"/>
		<rect x="8.792" y="47.125" fill-rule="evenodd" clip-rule="evenodd" fill="#318CCD" width="53.892" height="22.645"/>
		<rect x="70.946" y="47.125" fill-rule="evenodd" clip-rule="evenodd" fill="#F77B55" width="20.588" height="22.039"/>
		<rect x="18.168" y="104.018" fill-rule="evenodd" clip-rule="evenodd" fill="#CCCCCC" width="62.053" height="2.546"/>
		<rect x="24.255" y="110.863" fill-rule="evenodd" clip-rule="evenodd" fill="#CCCCCC" width="62.052" height="2.546"/>
	</g>
	<g display="inline">
		<path fill-rule="evenodd" clip-rule="evenodd" fill="#4D8C51" d="M71.722,61.542c11.247-10.201,28.633-9.375,38.851,1.854
			c8.701,9.579,9.375,23.607,2.445,33.876l26.086,28.683c0.894,0.995,0.826,2.546-0.169,3.456l-6.037,5.481
			c-0.995,0.911-2.547,0.842-3.457-0.152l-26.086-28.683c-10.859,5.919-24.771,3.913-33.471-5.665
			C59.665,89.146,60.492,71.761,71.722,61.542L71.722,61.542z"/>
		<path fill-rule="evenodd" clip-rule="evenodd" fill="#6FA272" d="M113.035,97.29l26.068,28.666
			c0.894,0.995,0.826,2.546-0.169,3.456l-1.585,1.434l-27.705-30.47L113.035,97.29z"/>
		<path fill-rule="evenodd" clip-rule="evenodd" fill="#E6E6E6" d="M75.903,66.145c8.701-7.907,22.157-7.267,30.067,1.434
			c7.907,8.701,7.266,22.157-1.434,30.066c-8.701,7.907-22.157,7.267-30.065-1.434C66.561,87.509,67.203,74.055,75.903,66.145
			L75.903,66.145z"/>
		<path fill-rule="evenodd" clip-rule="evenodd" fill="#FFFFFF" d="M104.164,69.332c4.824,4.907,6.527,12.428,3.677,19.173
			c-3.709,8.835-13.81,13.05-22.68,9.543c8.413,1.383,16.997-3.12,20.437-11.314C108.093,80.815,107.334,74.356,104.164,69.332
			L104.164,69.332z"/>
	</g>
	<g display="inline">
		<g>
			<path fill="#F77B55" d="M167.465,75.807c-2.951,0-5.362-2.394-5.362-5.344c0-2.952,2.411-5.347,5.362-5.347h14.821
				c0.034,0,0.051,0,0.068,0c4.789-0.22,8.667,0.945,11.583,3.592c2.969,2.681,4.655,6.593,4.975,11.788c0,0.117,0,0.218,0,0.319
				h0.017v25.833c0,2.968-2.394,5.363-5.345,5.363c-2.968,0-5.363-2.395-5.363-5.363V80.832c-0.152-2.09-0.641-3.475-1.433-4.182
				c-0.724-0.658-2.04-0.945-3.862-0.877c-0.218,0.034-0.42,0.034-0.64,0.034H167.465z"/>
			<path fill="#F77B55" d="M173.687,103.545c-1.889-1.888-1.889-4.922,0-6.812c1.871-1.872,4.924-1.872,6.795,0l13.051,13.052
				l13.036-13.052c1.871-1.872,4.923-1.872,6.795,0c1.888,1.89,1.888,4.923,0,6.812l-16.441,16.441
				c-1.872,1.872-4.924,1.872-6.795,0L173.687,103.545z"/>
		</g>
		<g>
			<path fill="#FFFFFF" d="M120.032,159.292c2.057,0,3.726,1.668,3.726,3.727c0,2.057-1.669,3.709-3.726,3.709h-10.303
				c-0.017,0-0.034,0-0.051,0c-3.322,0.152-6.021-0.658-8.06-2.495c-2.057-1.856-3.22-4.588-3.44-8.196
				c-0.018-0.085-0.018-0.152-0.018-0.22l0,0v-17.975c0-2.057,1.67-3.727,3.71-3.727c2.057,0,3.727,1.67,3.727,3.727v17.959
				c0.118,1.45,0.456,2.411,0.995,2.9c0.524,0.472,1.416,0.674,2.698,0.606c0.135,0,0.287-0.016,0.439-0.016H120.032z"/>
			<path fill="#FFFFFF" d="M115.715,140.002c1.298,1.314,1.298,3.423,0,4.737c-1.315,1.299-3.423,1.299-4.739,0l-9.055-9.072
				l-9.072,9.072c-1.316,1.299-3.424,1.299-4.738,0c-1.299-1.314-1.299-3.423,0-4.737l11.432-11.433
				c1.315-1.298,3.423-1.298,4.738,0L115.715,140.002z"/>
		</g>
	</g>
</g>
<g>
	<g>
		<g>
			
				<rect x="42.712" y="58.417" transform="matrix(0.264 0.9645 -0.9645 0.264 191.9993 3.8624)" fill="#999999" width="101.514" height="138.649"/>
		</g>
		<g>
			
				<rect x="43.587" y="54.805" transform="matrix(0.264 0.9645 -0.9645 0.264 189.1604 0.3601)" fill="#F5F5F5" width="101.514" height="138.649"/>
		</g>
		<g>
			
				<rect x="88.534" y="75.821" transform="matrix(0.9645 -0.264 0.264 0.9645 -16.3799 32.5033)" fill="#949AAA" width="48.402" height="2.74"/>
			
				<rect x="97.194" y="80.996" transform="matrix(0.9645 -0.264 0.264 0.9645 -17.3866 33.9862)" fill="#949AAA" width="41.104" height="1.362"/>
			
				<rect x="91.06" y="85.742" transform="matrix(0.9645 -0.264 0.264 0.9645 -18.7278 33.4982)" fill="#949AAA" width="48.401" height="1.362"/>
			
				<rect x="92.096" y="89.525" transform="matrix(0.9645 -0.264 0.264 0.9645 -19.6897 33.9059)" fill="#949AAA" width="48.402" height="1.362"/>
			
				<rect x="93.132" y="93.307" transform="matrix(0.9645 -0.264 0.264 0.9645 -20.6517 34.3136)" fill="#949AAA" width="48.401" height="1.362"/>
			
				<rect x="94.167" y="97.091" transform="matrix(0.9645 -0.264 0.264 0.9645 -21.6136 34.7208)" fill="#949AAA" width="48.402" height="1.361"/>
			
				<rect x="95.256" y="101.067" transform="matrix(0.9645 -0.264 0.264 0.9645 -22.625 35.1496)" fill="#949AAA" width="48.401" height="1.362"/>
			
				<rect x="96.291" y="104.85" transform="matrix(0.9645 -0.264 0.264 0.9645 -23.5872 35.5576)" fill="#949AAA" width="48.401" height="1.361"/>
			
				<rect x="97.547" y="110.275" transform="matrix(0.9645 -0.264 0.264 0.9645 -25.1951 34.4395)" fill="#949AAA" width="35.967" height="1.362"/>
		</g>
		<g>
			<g>
				
					<rect x="55.672" y="167.729" transform="matrix(0.9645 -0.264 0.264 0.9645 -42.719 21.1857)" fill="#54BAE2" width="3.559" height="3.56"/>
				
					<rect x="62.077" y="166.458" transform="matrix(0.9645 -0.264 0.264 0.9645 -41.7823 23.3841)" fill="#949AAA" width="8.061" height="1.362"/>
				
					<rect x="57.194" y="173.29" transform="matrix(0.9645 -0.264 0.264 0.9645 -44.121 21.7766)" fill="#F44D3B" width="3.559" height="3.56"/>
				
					<rect x="63.416" y="170.658" transform="matrix(0.9645 -0.264 0.264 0.9645 -42.6605 25.2486)" fill="#949AAA" width="18.378" height="1.361"/>
			</g>
			
				<rect x="70.306" y="159.106" transform="matrix(0.9645 -0.264 0.264 0.9645 -39.5583 25.2435)" fill="#5A5A7A" width="7.652" height="1.362"/>
			<g>
				
					<rect x="45.782" y="139.709" transform="matrix(0.9645 -0.2641 0.2641 0.9645 -38.3107 17.6213)" fill="#54BAE2" width="1.208" height="23.193"/>
				
					<rect x="48.191" y="148.645" transform="matrix(0.9645 -0.2641 0.2641 0.9645 -39.3449 18.4101)" fill="#F44D3B" width="1.208" height="13.771"/>
				
					<rect x="50.455" y="142.12" transform="matrix(0.9645 -0.264 0.264 0.9645 -38.2937 18.8704)" fill="#54BAE2" width="1.209" height="19.569"/>
				
					<rect x="52.004" y="144.649" transform="matrix(0.9646 -0.2638 0.2638 0.9646 -38.4899 19.2943)" fill="#F44D3B" width="1.208" height="16.67"/>
				
					<rect x="55.797" y="149.515" transform="matrix(0.9646 -0.2637 0.2637 0.9646 -38.8639 20.3573)" fill="#54BAE2" width="1.208" height="10.872"/>
				
					<rect x="56.652" y="146.89" transform="matrix(0.9644 -0.2643 0.2643 0.9644 -38.5322 20.59)" fill="#F44D3B" width="1.208" height="13.22"/>
				
					<rect x="59.387" y="143.866" transform="matrix(0.9645 -0.264 0.264 0.9645 -37.8924 21.2158)" fill="#54BAE2" width="1.208" height="15.454"/>
				
					<rect x="62.039" y="154.611" transform="matrix(0.9645 -0.264 0.264 0.9645 -39.1474 22.0967)" fill="#F44D3B" width="1.208" height="4.19"/>
				
					<rect x="62.911" y="137.726" transform="matrix(0.9645 -0.264 0.264 0.9645 -36.8231 22.023)" fill="#54BAE2" width="1.208" height="20.535"/>
				
					<rect x="63.757" y="135.034" transform="matrix(0.9645 -0.2641 0.2641 0.9645 -36.4093 22.2004)" fill="#F44D3B" width="1.208" height="22.951"/>
				
					<rect x="68.222" y="144.884" transform="matrix(0.9645 -0.2639 0.2639 0.9645 -37.3952 23.5186)" fill="#54BAE2" width="1.208" height="12.08"/>
				
					<rect x="68.143" y="135.31" transform="matrix(0.9646 -0.2638 0.2638 0.9646 -36.0916 23.3057)" fill="#F44D3B" width="1.207" height="21.502"/>
				
					<rect x="72.001" y="140.651" transform="matrix(0.9645 -0.2642 0.2642 0.9645 -36.5847 24.4449)" fill="#54BAE2" width="1.208" height="15.22"/>
				
					<rect x="73.303" y="141.348" transform="matrix(0.9645 -0.2642 0.2642 0.9645 -36.5951 24.8034)" fill="#F44D3B" width="1.208" height="14.186"/>
				
					<rect x="76.993" y="145.443" transform="matrix(0.9645 -0.264 0.264 0.9645 -36.8574 25.8108)" fill="#54BAE2" width="1.209" height="9.173"/>
				
					<rect x="78.466" y="147.408" transform="matrix(0.9646 -0.2639 0.2639 0.9646 -36.9968 26.2091)" fill="#F44D3B" width="1.208" height="6.848"/>
				
					<rect x="81.729" y="148.321" transform="matrix(0.9645 -0.2641 0.2641 0.9645 -36.9228 27.1045)" fill="#75CF33" width="1.207" height="5.074"/>
				
					<rect x="81.363" y="136.612" transform="matrix(0.9645 -0.2642 0.2642 0.9645 -35.3773 26.8009)" fill="#F2274D" width="1.208" height="16.67"/>
				
					<rect x="84.17" y="134.121" transform="matrix(0.9645 -0.2641 0.2641 0.9645 -34.8382 27.4787)" fill="#75CF33" width="1.208" height="18.361"/>
				
					<rect x="84.569" y="128.108" transform="matrix(0.9646 -0.2638 0.2638 0.9646 -33.9653 27.4355)" fill="#F2274D" width="1.208" height="24.159"/>
				
					<rect x="89.289" y="139.855" transform="matrix(0.9645 -0.2642 0.2642 0.9645 -35.2526 28.9173)" fill="#75CF33" width="1.208" height="11.355"/>
				
					<rect x="90.686" y="141.264" transform="matrix(0.9645 -0.264 0.264 0.9645 -35.3181 29.2785)" fill="#F2274D" width="1.208" height="9.596"/>
				
					<rect x="94.089" y="143.216" transform="matrix(0.9645 -0.264 0.264 0.9645 -35.3474 30.2053)" fill="#75CF33" width="1.208" height="6.764"/>
				
					<rect x="95.64" y="145.768" transform="matrix(0.9646 -0.2639 0.2639 0.9646 -35.5611 30.6319)" fill="#F2274D" width="1.209" height="3.842"/>
			</g>
		</g>
		<g>
			<g>
				
					<rect x="41.307" y="119.824" transform="matrix(0.9645 -0.264 0.264 0.9645 -30.5763 15.6901)" fill="#317AB0" width="3.559" height="3.559"/>
				
					<rect x="47.447" y="116.59" transform="matrix(0.9645 -0.264 0.264 0.9645 -28.8716 19.7163)" fill="#949AAA" width="22.938" height="1.361"/>
				
					<rect x="42.829" y="125.385" transform="matrix(0.9645 -0.264 0.264 0.9645 -31.9869 16.2868)" fill="#F2274D" width="3.559" height="3.559"/>
				
					<rect x="49.233" y="124.115" transform="matrix(0.9645 -0.264 0.264 0.9645 -31.0589 18.4911)" fill="#949AAA" width="8.062" height="1.362"/>
				
					<rect x="44.352" y="130.947" transform="matrix(0.9645 -0.264 0.264 0.9645 -33.4065 16.8898)" fill="#FFD121" width="3.559" height="3.559"/>
				
					<rect x="50.572" y="128.314" transform="matrix(0.9645 -0.264 0.264 0.9645 -31.9372 20.3557)" fill="#949AAA" width="18.378" height="1.362"/>
			</g>
			
				<rect x="56.94" y="110.276" transform="matrix(0.9645 -0.264 0.264 0.9645 -27.1384 19.9802)" fill="#949AAA" width="7.652" height="1.362"/>
			<g>
				<polygon fill="#F2274D" points="47.663,107.555 52.877,101.082 60.3,104.096 69.739,87.54 80.222,97.478 48.221,108.178 				"/>
				<polygon fill="#FFD121" points="82.878,94.422 78.146,89.896 66.695,97.688 58.133,95.852 52.804,106.579 41.98,105.229 
					39.131,111.831 83.44,99.314 				"/>
				<polygon fill="#317AB0" points="34.06,114.966 38.305,107.4 42.707,109.3 46.837,103.124 53.34,105.613 63.091,94.745 
					71.929,96.835 82.973,90.515 85.79,100.805 				"/>
			</g>
		</g>
		<g>
			<g>
				
					<rect x="113.15" y="151.995" transform="matrix(0.9645 -0.264 0.264 0.9645 -36.5208 35.7992)" fill="#6B2D6E" width="3.559" height="3.559"/>
				
					<rect x="119.291" y="148.761" transform="matrix(0.9645 -0.264 0.264 0.9645 -34.8159 39.826)" fill="#949AAA" width="22.937" height="1.362"/>
				
					<rect x="114.673" y="157.556" transform="matrix(0.9645 -0.264 0.264 0.9645 -37.9342 36.3975)" fill="#F2274D" width="3.559" height="3.559"/>
				
					<rect x="121.077" y="156.286" transform="matrix(0.9645 -0.264 0.264 0.9645 -37.0051 38.6034)" fill="#949AAA" width="8.062" height="1.362"/>
			</g>
			
				<rect x="126.301" y="143.127" transform="matrix(0.9645 -0.264 0.264 0.9645 -33.3521 39.4606)" fill="#949AAA" width="7.651" height="1.362"/>
			<g>
				<circle fill="#F2274D" cx="147.831" cy="127.857" r="0.874"/>
				<circle fill="#F2274D" cx="138.923" cy="124.593" r="0.874"/>
				<circle fill="#F2274D" cx="130.485" cy="132.413" r="0.874"/>
				<circle fill="#F2274D" cx="123.313" cy="131.621" r="0.874"/>
				<circle fill="#F2274D" cx="121.186" cy="137.939" r="0.874"/>
				<circle fill="#F2274D" cx="111.023" cy="138.306" r="0.874"/>
				<g>
					<circle fill="#6B2D6E" cx="105.235" cy="144.276" r="0.874"/>
					<circle fill="#6B2D6E" cx="108.794" cy="127.079" r="0.874"/>
					<circle fill="#6B2D6E" cx="118.365" cy="132.975" r="0.873"/>
					<circle fill="#6B2D6E" cx="123.925" cy="122.878" r="0.873"/>
					<circle fill="#6B2D6E" cx="130.598" cy="127.122" r="0.874"/>
					<circle fill="#6B2D6E" cx="134.644" cy="116.496" r="0.874"/>
					<circle fill="#6B2D6E" cx="142.314" cy="119.598" r="0.874"/>
					<circle fill="#6B2D6E" cx="147.654" cy="116.441" r="0.874"/>
					<g>
						<polygon fill="#6B2D6E" points="105.44,144.501 104.871,144.379 108.669,126.657 118.218,132.581 123.931,122.561 
							130.472,126.76 134.169,116.144 142.437,119.412 147.469,116.267 147.778,116.761 142.497,120.062 134.519,116.909 
							130.779,127.649 124.133,123.383 118.425,133.394 109.065,127.588 						"/>
					</g>
				</g>
				<g>
					<circle fill="#F2274D" cx="106.128" cy="146.891" r="0.873"/>
					<g>
						<polygon fill="#F2274D" points="106.176,147.393 105.671,147.105 110.692,138.013 121.047,137.667 123.184,131.278 
							130.224,132.41 138.83,123.995 147.846,127.685 147.625,128.224 138.962,124.679 130.422,133.031 123.569,131.929 
							121.462,138.235 111.037,138.584 						"/>
					</g>
				</g>
			</g>
		</g>
	</g>
	<g>
		<polygon fill="#999999" points="194.195,49.295 97.993,34.253 93.386,60.985 93.368,61.089 93.368,61.089 75.922,162.535 
			175.747,179.996 196.291,49.714 		"/>
		<g>
			
				<rect x="90.22" y="40.239" transform="matrix(0.9855 0.1698 -0.1698 0.9855 19.8723 -21.8748)" fill="#F1F2F2" width="95.145" height="129.951"/>
			
				<rect x="97.792" y="54.44" transform="matrix(0.9855 0.1698 -0.1698 0.9855 12.5202 -23.7993)" fill="#5A5A7A" width="95.145" height="13.679"/>
			
				<rect x="122.129" y="46.278" transform="matrix(0.9855 0.1698 -0.1698 0.9855 10.4196 -25.0267)" fill="#5A5A7A" width="58.718" height="4.221"/>
			<g>
				
					<rect x="119.592" y="63.419" transform="matrix(0.9855 0.1698 -0.1698 0.9855 13.134 -24.3165)" fill="#FFFFFF" width="58.201" height="2.377"/>
				
					<rect x="113.311" y="58.945" transform="matrix(0.9855 0.1698 -0.1698 0.9855 12.3853 -24.5124)" fill="#FFFFFF" width="72.306" height="2.378"/>
			</g>
			
				<rect x="80.754" y="159.245" transform="matrix(0.9855 0.1698 -0.1698 0.9855 29.0633 -19.4694)" fill="#5A5A7A" width="95.145" height="1.781"/>
			<g>
				<path fill="#6B2D6E" d="M127.546,96.372l0.385,18.498c3.395-0.192,6.63-1.196,9.473-2.848L127.546,96.372z"/>
				<path fill="#FFD121" d="M128.298,94.651l10.421,16.543c4.401-3.003,7.678-7.641,8.847-13.222L128.298,94.651z"/>
				<path fill="#75CF33" d="M147.83,96.44c1.5-11.058-5.814-21.418-16.736-23.706l-3.485,20.221L147.83,96.44z"/>
				<path fill="#F2274D" d="M125.966,95.141l-15.668,12.041c3.13,3.783,7.575,6.509,12.793,7.409
					c1.103,0.19,2.201,0.291,3.287,0.309L125.966,95.141z"/>
				<path fill="#317AB0" d="M105.709,89.969c-0.715,4.147-0.179,8.22,1.335,11.834l0.652,1.41c0.484,0.953,1.038,1.868,1.656,2.737
					l16.598-12.513l0.066-0.383l1.428-8.282l2.12-12.303C118.249,70.935,107.663,78.626,105.709,89.969z"/>
			</g>
			<g>
				
					<rect x="103.143" y="118.436" transform="matrix(0.9855 0.1699 -0.1699 0.9855 23.9311 -16.0035)" fill="#2E97CC" width="4.711" height="26.855"/>
				
					<rect x="109.498" y="128.708" transform="matrix(0.9855 0.1699 -0.1699 0.9855 24.9988 -17.0024)" fill="#BCD81A" width="4.711" height="17.747"/>
				
					<rect x="116.162" y="134.905" transform="matrix(0.9855 0.1699 -0.1699 0.9855 25.7174 -18.0776)" fill="#FFC022" width="4.711" height="12.734"/>
				
					<rect x="122.9" y="139.956" transform="matrix(0.9855 0.1699 -0.1699 0.9855 26.3451 -19.1767)" fill="#8A379B" width="4.712" height="8.873"/>
				
					<rect x="130.512" y="135.059" transform="matrix(0.9855 0.1698 -0.1698 0.9855 26.144 -20.4938)" fill="#F44D3B" width="4.712" height="15.037"/>
			</g>
			<g>
				
					<rect x="155.138" y="87.021" transform="matrix(0.9855 0.1699 -0.1699 0.9855 17.3209 -25.3274)" fill="#317AB0" width="3.085" height="3.085"/>
				
					<rect x="160.758" y="90.39" transform="matrix(0.9855 0.1698 -0.1698 0.9855 17.9319 -27.6696)" fill="#949AAA" width="19.882" height="1.18"/>
				
					<rect x="154.289" y="91.947" transform="matrix(0.9855 0.1698 -0.1698 0.9855 18.138 -25.1034)" fill="#75CF33" width="3.085" height="3.085"/>
				
					<rect x="160.003" y="94.22" transform="matrix(0.9855 0.1698 -0.1698 0.9855 18.476 -26.3886)" fill="#949AAA" width="6.987" height="1.18"/>
				
					<rect x="153.44" y="96.872" transform="matrix(0.9855 0.1699 -0.1699 0.9855 18.9695 -24.8958)" fill="#FFD121" width="3.085" height="3.085"/>
				
					<rect x="159.089" y="99.905" transform="matrix(0.9855 0.1698 -0.1698 0.9855 19.4962 -26.9138)" fill="#949AAA" width="15.929" height="1.18"/>
				
					<rect x="152.591" y="101.797" transform="matrix(0.9855 0.1698 -0.1698 0.9855 19.7889 -24.675)" fill="#6B2D6E" width="3.085" height="3.085"/>
				
					<rect x="158.27" y="104.486" transform="matrix(0.9855 0.1699 -0.1699 0.9855 20.2333 -26.3645)" fill="#949AAA" width="11.881" height="1.18"/>
				
					<rect x="151.724" y="106.829" transform="matrix(0.9855 0.1699 -0.1699 0.9855 20.6399 -24.4636)" fill="#F2274D" width="3.085" height="3.085"/>
				
					<rect x="157.358" y="110.04" transform="matrix(0.9855 0.1698 -0.1698 0.9855 21.2076 -26.6501)" fill="#949AAA" width="18.024" height="1.18"/>
			</g>
			<g>
				<circle fill="#231F20" cx="98.9" cy="78.723" r="1.484"/>
				<circle fill="#231F20" cx="92.276" cy="117.158" r="1.484"/>
			</g>
			<g>
				
					<rect x="145.185" y="127.584" transform="matrix(0.9855 0.1699 -0.1699 0.9855 24.1919 -25.2415)" fill="#5A5A7A" width="28.876" height="2.374"/>
				
					<rect x="148.675" y="133.377" transform="matrix(0.9855 0.1698 -0.1698 0.9855 25.092 -25.3879)" fill="#949AAA" width="24.521" height="1.18"/>
				
					<rect x="143.776" y="136.357" transform="matrix(0.9855 0.1698 -0.1698 0.9855 25.5589 -24.8823)" fill="#949AAA" width="28.876" height="1.181"/>
				
					<rect x="143.198" y="139.708" transform="matrix(0.9855 0.1698 -0.1698 0.9855 26.1187 -24.7349)" fill="#949AAA" width="28.876" height="1.18"/>
				
					<rect x="142.621" y="143.058" transform="matrix(0.9855 0.1699 -0.1699 0.9855 26.6815 -24.5898)" fill="#949AAA" width="28.876" height="1.18"/>
				
					<rect x="142.043" y="146.408" transform="matrix(0.9855 0.1698 -0.1698 0.9855 27.24 -24.4415)" fill="#949AAA" width="28.876" height="1.18"/>
				
					<rect x="141.52" y="149.128" transform="matrix(0.9855 0.1699 -0.1699 0.9855 27.6418 -23.684)" fill="#949AAA" width="21.457" height="1.18"/>
			</g>
			
				<rect x="119.031" y="118.272" transform="matrix(0.9855 0.1698 -0.1698 0.9855 21.9619 -19.0502)" fill="#949AAA" width="6.632" height="1.18"/>
			
				<rect x="113.512" y="150.298" transform="matrix(0.9855 0.1698 -0.1698 0.9855 27.3193 -17.6473)" fill="#5A5A7A" width="6.632" height="1.181"/>
		</g>
	</g>
	<g>
		<polygon fill="#999999" points="28.857,19.433 16.768,124.719 163.582,138.148 170.009,32.329 		"/>
		<g>
			<g>
				
					<rect x="42.69" y="5.976" transform="matrix(-0.0875 0.9962 -0.9962 -0.0875 179.5152 -10.624)" fill="#F7F7F7" width="103.867" height="141.863"/>
			</g>
			<g>
				
					<rect x="104.191" y="37.007" transform="matrix(0.9962 0.0875 -0.0875 0.9962 3.855 -11.1352)" fill="#5A5A7A" width="49.524" height="2.803"/>
				
					<rect x="111.137" y="43.797" transform="matrix(0.9962 0.0875 -0.0875 0.9962 4.3998 -11.393)" fill="#949AAA" width="42.056" height="1.393"/>
				
					<rect x="103.334" y="47.468" transform="matrix(0.9962 0.0875 -0.0875 0.9962 4.7053 -11.0228)" fill="#949AAA" width="49.523" height="1.393"/>
				
					<rect x="102.983" y="51.466" transform="matrix(0.9962 0.0875 -0.0875 0.9962 5.0537 -10.9766)" fill="#949AAA" width="49.523" height="1.393"/>
				
					<rect x="102.632" y="55.463" transform="matrix(0.9962 0.0875 -0.0875 0.9962 5.4021 -10.9306)" fill="#949AAA" width="49.524" height="1.393"/>
				
					<rect x="102.281" y="59.461" transform="matrix(0.9962 0.0875 -0.0875 0.9962 5.7506 -10.8847)" fill="#949AAA" width="49.523" height="1.393"/>
				
					<rect x="101.912" y="63.663" transform="matrix(0.9962 0.0875 -0.0875 0.9962 6.1168 -10.8362)" fill="#949AAA" width="49.523" height="1.393"/>
				
					<rect x="101.561" y="67.661" transform="matrix(0.9962 0.0875 -0.0875 0.9962 6.4653 -10.7903)" fill="#949AAA" width="49.523" height="1.393"/>
				
					<rect x="101.234" y="71.102" transform="matrix(0.9962 0.0875 -0.0875 0.9962 6.7406 -10.1918)" fill="#949AAA" width="36.8" height="1.393"/>
			</g>
			<g>
				<g>
					
						<rect x="41.276" y="105.512" transform="matrix(0.9962 0.0875 -0.0875 0.9962 9.5527 -3.3581)" fill="#75CF33" width="3.641" height="3.642"/>
					
						<rect x="48.12" y="107.44" transform="matrix(0.9962 0.0875 -0.0875 0.9962 9.6626 -4.1567)" fill="#949AAA" width="8.248" height="1.393"/>
					
						<rect x="40.76" y="111.389" transform="matrix(0.9962 0.0875 -0.0875 0.9962 10.0707 -3.292)" fill="#F2274D" width="3.641" height="3.642"/>
					
						<rect x="47.583" y="113.779" transform="matrix(0.9962 0.0875 -0.0875 0.9962 10.2341 -4.5467)" fill="#949AAA" width="18.804" height="1.393"/>
				</g>
				
					<rect x="58.642" y="103.238" transform="matrix(0.9962 0.0875 -0.0875 0.9962 9.3326 -5.0743)" fill="#5A5A7A" width="7.829" height="1.393"/>
				<g>
					
						<rect x="38.333" y="74.069" transform="matrix(0.9962 0.0875 -0.0875 0.9962 7.6684 -3.0785)" fill="#BCD81A" width="1.236" height="23.731"/>
					
						<rect x="39.142" y="83.799" transform="matrix(0.9962 0.0875 -0.0875 0.9962 8.0998 -3.1301)" fill="#F95130" width="1.236" height="14.09"/>
					
						<rect x="42.602" y="78.159" transform="matrix(0.9962 0.0876 -0.0876 0.9962 7.8937 -3.4487)" fill="#BCD81A" width="1.237" height="20.023"/>
					
						<rect x="43.705" y="81.228" transform="matrix(0.9962 0.0876 -0.0876 0.9962 8.0359 -3.5387)" fill="#F95130" width="1.236" height="17.056"/>
					
						<rect x="46.646" y="87.43" transform="matrix(0.9962 0.0875 -0.0875 0.9962 8.3199 -3.7796)" fill="#BCD81A" width="1.236" height="11.124"/>
					
						<rect x="47.982" y="85.141" transform="matrix(0.9962 0.0874 -0.0874 0.9962 8.2221 -3.8976)" fill="#F95130" width="1.237" height="13.526"/>
					
						<rect x="51.283" y="83.14" transform="matrix(0.9962 0.0873 -0.0873 0.9962 8.1424 -4.1815)" fill="#BCD81A" width="1.236" height="15.813"/>
					
						<rect x="52.01" y="94.751" transform="matrix(0.9962 0.0874 -0.0874 0.9962 8.6681 -4.2281)" fill="#F95130" width="1.235" height="4.287"/>
					
						<rect x="55.943" y="78.34" transform="matrix(0.9962 0.0874 -0.0874 0.9962 7.978 -4.6016)" fill="#BCD81A" width="1.235" height="21.011"/>
					
						<rect x="57.283" y="75.981" transform="matrix(0.9962 0.0875 -0.0875 0.9962 7.898 -4.7299)" fill="#F95130" width="1.236" height="23.483"/>
					
						<rect x="59.998" y="87.365" transform="matrix(0.9961 0.0878 -0.0878 0.9961 8.4449 -4.9595)" fill="#BCD81A" width="1.236" height="12.359"/>
					
						<rect x="61.651" y="77.851" transform="matrix(0.9962 0.0875 -0.0875 0.9962 8.016 -5.1093)" fill="#F95130" width="1.236" height="22"/>
					
						<rect x="64.57" y="84.547" transform="matrix(0.9962 0.0874 -0.0874 0.9962 8.319 -5.3439)" fill="#BCD81A" width="1.236" height="15.573"/>
					
						<rect x="65.755" y="85.711" transform="matrix(0.9962 0.0876 -0.0876 0.9962 8.3967 -5.4554)" fill="#F95130" width="1.236" height="14.515"/>
					
						<rect x="68.731" y="91.111" transform="matrix(0.9962 0.0874 -0.0874 0.9962 8.6347 -5.6922)" fill="#BCD81A" width="1.237" height="9.386"/>
					
						<rect x="69.859" y="93.595" transform="matrix(0.9961 0.0879 -0.0879 0.9961 8.8029 -5.8162)" fill="#F95130" width="1.236" height="7.006"/>
					
						<rect x="72.981" y="95.687" transform="matrix(0.9962 0.0875 -0.0875 0.9962 8.879 -6.0611)" fill="#BCD81A" width="1.235" height="5.191"/>
					
						<rect x="74.731" y="83.953" transform="matrix(0.9962 0.0875 -0.0875 0.9962 8.3829 -6.2396)" fill="#F95130" width="1.236" height="17.056"/>
					
						<rect x="78.008" y="82.507" transform="matrix(0.9961 0.0877 -0.0877 0.9961 8.3676 -6.5449)" fill="#BCD81A" width="1.236" height="18.786"/>
					
						<rect x="79.499" y="76.694" transform="matrix(0.9962 0.0875 -0.0875 0.9962 8.0952 -6.6654)" fill="#F95130" width="1.235" height="24.719"/>
					
						<rect x="82.126" y="90.051" transform="matrix(0.9962 0.0873 -0.0873 0.9962 8.6848 -6.8578)" fill="#BCD81A" width="1.236" height="11.618"/>
					
						<rect x="83.279" y="91.956" transform="matrix(0.9962 0.0875 -0.0875 0.9962 8.7975 -6.9695)" fill="#F95130" width="1.236" height="9.818"/>
					
						<rect x="86.354" y="95.129" transform="matrix(0.9962 0.0874 -0.0874 0.9962 8.9474 -7.2225)" fill="#BCD81A" width="1.235" height="6.921"/>
					
						<rect x="87.454" y="98.221" transform="matrix(0.9962 0.0875 -0.0875 0.9962 9.1092 -7.3258)" fill="#F95130" width="1.237" height="3.931"/>
				</g>
			</g>
			<g>
				<g>
					
						<rect x="44.521" y="54.443" transform="matrix(0.9962 0.0875 -0.0875 0.9962 5.1002 -3.8387)" fill="#22BAD3" width="3.642" height="3.642"/>
					
						<rect x="51.335" y="57.037" transform="matrix(0.9962 0.0875 -0.0875 0.9962 5.2932 -5.2968)" fill="#949AAA" width="23.469" height="1.393"/>
					
						<rect x="44.005" y="60.321" transform="matrix(0.9962 0.0875 -0.0875 0.9962 5.6119 -3.7707)" fill="#F95130" width="3.642" height="3.642"/>
					
						<rect x="50.848" y="62.248" transform="matrix(0.9962 0.0875 -0.0875 0.9962 5.7176 -4.568)" fill="#949AAA" width="8.248" height="1.393"/>
					
						<rect x="43.489" y="66.197" transform="matrix(0.9962 0.0875 -0.0875 0.9962 6.1232 -3.7025)" fill="#FFD121" width="3.642" height="3.642"/>
					
						<rect x="50.311" y="68.587" transform="matrix(0.9962 0.0875 -0.0875 0.9962 6.2907 -4.9587)" fill="#949AAA" width="18.804" height="1.393"/>
				</g>
				
					<rect x="63.175" y="51.637" transform="matrix(0.9962 0.0875 -0.0875 0.9962 4.836 -5.669)" fill="#5A5A7A" width="7.829" height="1.393"/>
			</g>
			<g>
				<g>
					
						<rect x="102.017" y="110.847" transform="matrix(0.9962 0.0875 -0.0875 0.9962 10.2508 -8.6491)" fill="#6B2D6E" width="3.642" height="3.642"/>
					
						<rect x="108.831" y="113.441" transform="matrix(0.9962 0.0875 -0.0875 0.9962 10.4487 -10.1111)" fill="#949AAA" width="23.468" height="1.393"/>
					
						<rect x="101.501" y="116.724" transform="matrix(0.9962 0.0875 -0.0875 0.9962 10.766 -8.5838)" fill="#F2274D" width="3.642" height="3.642"/>
					
						<rect x="108.344" y="118.651" transform="matrix(0.9962 0.0875 -0.0875 0.9962 10.8693 -9.3793)" fill="#949AAA" width="8.248" height="1.393"/>
				</g>
				
					<rect x="118.046" y="107.81" transform="matrix(0.9962 0.0875 -0.0875 0.9962 9.9609 -10.2543)" fill="#5A5A7A" width="7.829" height="1.393"/>
				<g>
					<g>
						<g>
							<path fill="#FF365C" d="M144.055,99.884c-0.026,0-0.053-0.001-0.08-0.003c-0.274-0.021-0.524-0.148-0.703-0.356
								c-0.179-0.209-0.266-0.475-0.245-0.749c0.041-0.533,0.491-0.95,1.025-0.95c0.026,0,0.053,0.001,0.08,0.003
								c0.566,0.043,0.991,0.539,0.948,1.105C145.04,99.466,144.589,99.884,144.055,99.884z"/>
							<path fill="#FF365C" d="M144.053,97.982c0.022,0,0.045,0.001,0.068,0.003c0.48,0.037,0.84,0.456,0.803,0.936
								c-0.035,0.458-0.417,0.806-0.869,0.806c-0.022,0-0.045-0.001-0.068-0.003c-0.481-0.037-0.841-0.456-0.804-0.937
								C143.219,98.33,143.601,97.982,144.053,97.982 M144.053,97.668L144.053,97.668c-0.616,0-1.135,0.481-1.182,1.095
								c-0.024,0.316,0.076,0.623,0.282,0.863c0.206,0.241,0.494,0.386,0.81,0.411c0.031,0.002,0.061,0.003,0.091,0.003
								c0.615,0,1.134-0.481,1.181-1.096c0.024-0.316-0.076-0.622-0.282-0.862c-0.206-0.24-0.494-0.386-0.809-0.41
								C144.114,97.67,144.084,97.668,144.053,97.668L144.053,97.668z"/>
						</g>
					</g>
					<g>
						<g>
							<path fill="#FF365C" d="M136.774,93.814c-0.026,0-0.053-0.001-0.079-0.003c-0.566-0.043-0.992-0.539-0.949-1.105
								c0.041-0.534,0.492-0.951,1.027-0.951c0.026,0,0.053,0.001,0.079,0.003c0.565,0.043,0.99,0.539,0.947,1.106
								C137.758,93.397,137.308,93.814,136.774,93.814z"/>
							<path fill="#FF365C" d="M136.773,91.912c0.022,0,0.045,0.001,0.067,0.003c0.48,0.037,0.839,0.457,0.802,0.937
								c-0.035,0.458-0.417,0.806-0.868,0.806c-0.022,0-0.045-0.001-0.068-0.003c-0.48-0.037-0.841-0.456-0.804-0.936
								C135.938,92.261,136.321,91.912,136.773,91.912 M136.773,91.599L136.773,91.599c-0.616,0-1.136,0.481-1.183,1.096
								c-0.024,0.316,0.076,0.622,0.283,0.863c0.206,0.24,0.494,0.386,0.81,0.41c0.031,0.002,0.061,0.004,0.091,0.004
								c0.615,0,1.134-0.481,1.181-1.095c0.024-0.316-0.076-0.622-0.282-0.863c-0.206-0.241-0.494-0.387-0.809-0.411
								C136.833,91.6,136.803,91.599,136.773,91.599L136.773,91.599z"/>
						</g>
					</g>
					<g>
						<g>
							<path fill="#FF365C" d="M126.204,98.331c-0.026,0-0.053-0.001-0.08-0.003c-0.274-0.021-0.524-0.147-0.703-0.356
								c-0.179-0.209-0.266-0.474-0.245-0.749c0.041-0.533,0.491-0.951,1.026-0.951c0.026,0,0.053,0.001,0.079,0.003
								c0.566,0.043,0.991,0.539,0.948,1.105C127.189,97.913,126.739,98.331,126.204,98.331z"/>
							<path fill="#FF365C" d="M126.202,96.429c0.022,0,0.045,0.001,0.067,0.003c0.48,0.037,0.841,0.456,0.804,0.937
								c-0.035,0.458-0.418,0.806-0.869,0.806c-0.022,0-0.045-0.001-0.068-0.003c-0.48-0.037-0.84-0.456-0.803-0.936
								C125.368,96.777,125.751,96.429,126.202,96.429 M126.203,96.115L126.203,96.115c-0.616,0-1.135,0.481-1.182,1.096
								c-0.05,0.652,0.44,1.223,1.092,1.273c0.031,0.002,0.061,0.003,0.091,0.003c0.616,0,1.135-0.481,1.182-1.095
								c0.024-0.316-0.076-0.622-0.283-0.863c-0.206-0.241-0.494-0.386-0.81-0.411C126.263,96.116,126.233,96.115,126.203,96.115
								L126.203,96.115z"/>
						</g>
					</g>
					<g>
						<g>
							<path fill="#FF365C" d="M119.724,95.172c-0.026,0-0.053-0.001-0.08-0.003c-0.274-0.021-0.524-0.147-0.703-0.356
								c-0.179-0.208-0.266-0.474-0.245-0.749c0.041-0.533,0.491-0.951,1.025-0.951c0.026,0,0.053,0.001,0.08,0.003
								c0.274,0.021,0.524,0.148,0.703,0.356c0.179,0.209,0.266,0.475,0.245,0.749C120.708,94.754,120.258,95.172,119.724,95.172z"
								/>
							<path fill="#FF365C" d="M119.722,93.269c0.022,0,0.045,0.001,0.068,0.003c0.481,0.037,0.84,0.457,0.803,0.937
								c-0.035,0.458-0.417,0.806-0.869,0.806c-0.022,0-0.045-0.001-0.068-0.003c-0.481-0.037-0.84-0.456-0.803-0.936
								C118.888,93.618,119.27,93.269,119.722,93.269 M119.722,92.956L119.722,92.956c-0.615,0-1.134,0.481-1.181,1.096
								c-0.024,0.316,0.076,0.622,0.282,0.863c0.206,0.24,0.494,0.386,0.81,0.41c0.031,0.002,0.061,0.004,0.092,0.004
								c0.615,0,1.134-0.481,1.181-1.095c0.024-0.316-0.076-0.622-0.282-0.863c-0.206-0.241-0.494-0.387-0.81-0.411
								C119.783,92.957,119.753,92.956,119.722,92.956L119.722,92.956z"/>
						</g>
					</g>
					<g>
						<g>
							<path fill="#FF365C" d="M115.597,100.4c-0.026,0-0.053-0.001-0.079-0.003c-0.566-0.043-0.992-0.539-0.948-1.105
								c0.041-0.533,0.492-0.95,1.026-0.95c0.026,0,0.053,0.001,0.079,0.003c0.566,0.043,0.991,0.539,0.948,1.105
								C116.582,99.982,116.131,100.4,115.597,100.4z"/>
							<path fill="#FF365C" d="M115.595,98.498c0.022,0,0.045,0.001,0.068,0.003c0.48,0.037,0.841,0.456,0.804,0.936
								c-0.035,0.457-0.418,0.806-0.869,0.806c-0.022,0-0.045-0.001-0.068-0.003c-0.48-0.037-0.841-0.457-0.804-0.937
								C114.761,98.846,115.144,98.498,115.595,98.498 M115.595,98.185L115.595,98.185c-0.616,0-1.135,0.481-1.182,1.095
								c-0.024,0.316,0.076,0.622,0.283,0.863c0.207,0.241,0.494,0.386,0.81,0.41c0.031,0.002,0.061,0.004,0.091,0.004
								c0.616,0,1.135-0.481,1.182-1.096c0.024-0.316-0.076-0.622-0.283-0.863c-0.206-0.24-0.494-0.386-0.81-0.41
								C115.656,98.186,115.626,98.185,115.595,98.185L115.595,98.185z"/>
						</g>
					</g>
					<g>
						<g>
							<path fill="#FF365C" d="M105.913,97.324c-0.026,0-0.053-0.001-0.079-0.003c-0.274-0.021-0.524-0.147-0.703-0.356
								c-0.179-0.208-0.266-0.474-0.245-0.749c0.041-0.533,0.491-0.951,1.026-0.951c0.026,0,0.053,0.001,0.08,0.003
								c0.274,0.021,0.523,0.147,0.703,0.356c0.18,0.209,0.267,0.475,0.246,0.749C106.899,96.906,106.448,97.324,105.913,97.324z"/>
							<path fill="#FF365C" d="M105.911,95.422c0.022,0,0.045,0.001,0.068,0.003c0.48,0.037,0.841,0.456,0.804,0.937
								c-0.035,0.458-0.419,0.806-0.87,0.806c-0.022,0-0.045-0.001-0.067-0.003c-0.481-0.037-0.841-0.456-0.804-0.937
								C105.077,95.77,105.459,95.422,105.911,95.422 M105.911,95.109L105.911,95.109c-0.616,0-1.135,0.481-1.182,1.096
								c-0.024,0.316,0.076,0.622,0.282,0.863c0.206,0.24,0.494,0.386,0.81,0.41c0.031,0.002,0.061,0.003,0.091,0.003
								c0.616,0,1.136-0.481,1.183-1.095c0.024-0.316-0.076-0.622-0.283-0.863c-0.207-0.24-0.494-0.386-0.81-0.41
								C105.972,95.11,105.942,95.109,105.911,95.109L105.911,95.109z"/>
						</g>
					</g>
					<g>
						<g>
							<g>
								<g>
									<polygon fill="#7A3C7D" points="97.885,97.3 107.624,81.586 114.65,90.419 123.398,82.915 128.117,89.039 135.145,80.325 
										141.887,86.238 147.754,84.956 147.945,85.831 141.637,87.209 135.256,81.613 128.101,90.485 123.266,84.209 
										114.528,91.703 107.715,83.139 98.646,97.772 									"/>
									<path fill="#7A3C7D" d="M135.165,80.551l6.678,5.857l5.792-1.265l0.124,0.568l-6.078,1.328l-6.444-5.651l-7.133,8.844
										l-4.814-6.249l-8.74,7.496l-6.85-8.612l-9.104,14.689l-0.495-0.306l9.54-15.392l6.989,8.786l8.745-7.502l4.74,6.151
										L135.165,80.551 M135.126,80.1l-0.205,0.254l-6.801,8.432l-4.497-5.836l-0.202-0.262l-0.251,0.215l-8.499,7.29
										l-6.786-8.531l-0.277-0.348l-0.235,0.378l-9.54,15.392l-0.165,0.266l0.267,0.165l0.495,0.306l0.266,0.165l0.165-0.266
										l8.87-14.311l6.573,8.263l0.202,0.255l0.247-0.212l8.489-7.281l4.613,5.988l0.243,0.315l0.25-0.309l6.928-8.589
										l6.199,5.435l0.119,0.104l0.155-0.034l6.078-1.328l0.306-0.067l-0.067-0.306l-0.124-0.568l-0.067-0.306l-0.306,0.067
										l-5.637,1.231l-6.559-5.753L135.126,80.1L135.126,80.1z"/>
								</g>
							</g>
						</g>
					</g>
					<g>
						<g>
							<g>
								<path fill="#FF365C" d="M98.419,103.752c-0.026,0-0.053-0.001-0.08-0.003c-0.274-0.021-0.523-0.147-0.702-0.356
									c-0.179-0.209-0.265-0.475-0.244-0.749c0.041-0.533,0.491-0.951,1.025-0.951c0.026,0,0.053,0.001,0.08,0.003
									c0.274,0.021,0.524,0.148,0.702,0.356c0.179,0.209,0.266,0.475,0.245,0.749C99.403,103.335,98.953,103.752,98.419,103.752z"
									/>
								<path fill="#FF365C" d="M98.417,101.85c0.022,0,0.045,0.001,0.067,0.003c0.48,0.037,0.84,0.456,0.803,0.936
									c-0.035,0.458-0.417,0.807-0.869,0.807c-0.022,0-0.045-0.001-0.068-0.003c-0.481-0.037-0.839-0.456-0.802-0.937
									C97.584,102.198,97.965,101.85,98.417,101.85 M98.417,101.537L98.417,101.537c-0.615,0-1.134,0.481-1.181,1.095
									c-0.05,0.652,0.439,1.224,1.091,1.274c0.031,0.002,0.061,0.003,0.091,0.003c0.615,0,1.134-0.481,1.181-1.096
									c0.024-0.316-0.076-0.622-0.282-0.863c-0.206-0.24-0.494-0.386-0.81-0.41C98.478,101.538,98.447,101.537,98.417,101.537
									L98.417,101.537z"/>
							</g>
						</g>
						<g>
							<g>
								<g>
									<path fill="#FF365C" d="M98.284,103.368c-0.042-0.003-0.081-0.023-0.108-0.054l-0.378-0.442
										c-0.056-0.065-0.049-0.163,0.015-0.219l7.783-6.861c0.029-0.026,0.066-0.039,0.104-0.039c0.016,0,0.032,0.002,0.048,0.007
										l9.753,3.126l4.093-5.205c0.031-0.039,0.076-0.06,0.123-0.06c0.026,0,0.052,0.006,0.075,0.019l6.173,3.396l10.856-4.987
										c0.021-0.01,0.043-0.014,0.065-0.014c0.038,0,0.075,0.014,0.105,0.04l7.239,6.506c0.064,0.058,0.07,0.157,0.012,0.221
										l-0.388,0.433c-0.028,0.031-0.067,0.05-0.108,0.052c-0.003,0-0.006,0-0.008,0c-0.039,0-0.076-0.014-0.105-0.04
										l-6.879-6.182l-10.752,4.94c-0.021,0.01-0.043,0.014-0.065,0.014c-0.026,0-0.052-0.006-0.076-0.019l-5.96-3.279
										l-4.022,5.117c-0.03,0.038-0.076,0.06-0.123,0.06c-0.016,0-0.032-0.002-0.048-0.007l-9.839-3.154l-7.47,6.592
										c-0.029,0.025-0.066,0.039-0.104,0.039C98.291,103.368,98.288,103.368,98.284,103.368z"/>
									<path fill="#FF365C" d="M136.887,92.191l7.239,6.506l-0.388,0.433l-6.955-6.251l-10.845,4.983l-6.077-3.343l-4.104,5.222
										l-9.924-3.181l-7.537,6.651l-0.378-0.442l7.783-6.861l9.857,3.159l4.161-5.291l6.242,3.434L136.887,92.191 M136.887,91.878
										c-0.044,0-0.089,0.009-0.131,0.029l-10.784,4.954l-6.104-3.358c-0.048-0.026-0.1-0.039-0.151-0.039
										c-0.094,0-0.185,0.042-0.247,0.12l-4.026,5.119l-9.65-3.093c-0.031-0.01-0.064-0.015-0.096-0.015
										c-0.075,0-0.149,0.027-0.207,0.078l-7.783,6.861c-0.129,0.113-0.142,0.309-0.031,0.439l0.378,0.442
										c0.055,0.064,0.132,0.103,0.216,0.109c0.007,0.001,0.015,0.001,0.022,0.001c0.076,0,0.15-0.028,0.207-0.078l7.404-6.533
										l9.755,3.127c0.031,0.01,0.064,0.015,0.096,0.015c0.094,0,0.186-0.043,0.246-0.12l3.939-5.013l5.844,3.215
										c0.047,0.026,0.099,0.039,0.151,0.039c0.045,0,0.089-0.01,0.131-0.029l10.658-4.897l6.802,6.113
										c0.058,0.052,0.132,0.08,0.209,0.08c0.006,0,0.011,0,0.017,0c0.083-0.004,0.161-0.042,0.216-0.104l0.388-0.433
										c0.115-0.129,0.105-0.327-0.024-0.442l-7.239-6.506C137.038,91.905,136.963,91.878,136.887,91.878L136.887,91.878z"/>
								</g>
							</g>
						</g>
					</g>
				</g>
			</g>
		</g>
	</g>
	<g>
		<polygon fill="#F95130" points="55.788,43.962 62.703,38.165 69.137,45.177 82.657,30.805 92.558,45.949 56.088,44.895 		"/>
		<polygon fill="#FFD121" points="94.38,42.459 87.499,34.255 77.532,41.661 70.136,35.188 61.094,44.539 51.328,38.036 
			46.067,45.137 93.023,48.904 		"/>
		
			<polyline fill="none" stroke="#FFFFFF" stroke-width="3.7727" stroke-linecap="round" stroke-linejoin="round" stroke-miterlimit="10" points="
			94.38,42.459 87.499,34.255 77.532,41.661 70.136,35.188 61.094,44.539 51.328,38.036 46.067,45.137 		"/>
		<polygon fill="#22BAD3" points="40.086,46.323 46.865,40.595 50.402,43.993 56.574,39.556 61.912,44.271 73.809,37.133 
			82.642,45.027 95.718,40.427 94.729,51.296 		"/>
	</g>
	
		<polyline fill="none" stroke="#FFFFFF" stroke-width="3.7727" stroke-linecap="round" stroke-linejoin="round" stroke-miterlimit="10" points="
		46.865,40.595 50.402,43.993 56.574,39.556 61.912,44.271 73.809,37.133 82.642,45.027 95.718,40.427 	"/>
	<circle fill="#F7F7F7" stroke="#7A3C7D" stroke-width="2.8295" stroke-miterlimit="10" cx="98.479" cy="97.275" r="0.874"/>
	<circle fill="#F7F7F7" stroke="#7A3C7D" stroke-width="2.8295" stroke-miterlimit="10" cx="107.615" cy="82.296" r="0.873"/>
	<circle fill="#F7F7F7" stroke="#7A3C7D" stroke-width="2.8295" stroke-miterlimit="10" cx="114.634" cy="91.064" r="0.872"/>
	<circle fill="#F7F7F7" stroke="#7A3C7D" stroke-width="2.8295" stroke-miterlimit="10" cx="123.263" cy="83.438" r="0.873"/>
	<circle fill="#F7F7F7" stroke="#7A3C7D" stroke-width="2.8295" stroke-miterlimit="10" cx="128.111" cy="89.675" r="0.873"/>
	<circle fill="#F7F7F7" stroke="#7A3C7D" stroke-width="2.8295" stroke-miterlimit="10" cx="135.493" cy="81.042" r="0.872"/>
	<circle fill="#F7F7F7" stroke="#7A3C7D" stroke-width="2.8295" stroke-miterlimit="10" cx="141.665" cy="86.542" r="0.873"/>
	<circle fill="#F7F7F7" stroke="#7A3C7D" stroke-width="2.8295" stroke-miterlimit="10" cx="147.751" cy="85.369" r="0.873"/>
	<g>
		<g>
			<path fill="#999999" d="M169.401,143.123l-11.09-78.514c-0.338-2.395-2.554-4.062-4.949-3.723L32.402,77.972
				c-2.395,0.338-4.062,2.554-3.724,4.948l11.091,78.514c0.338,2.394,2.554,4.061,4.949,3.723l120.96-17.087
				C168.072,147.733,169.74,145.518,169.401,143.123z"/>
			<g>
				<g>
					<g>
						<path fill="#3F4751" d="M172.868,140.443c0.319,2.424-1.389,4.648-3.813,4.967L46.576,161.511
							c-2.425,0.318-4.649-1.388-4.968-3.813l-10.451-79.5c-0.318-2.425,1.389-4.649,3.814-4.967l122.478-16.101
							c2.425-0.319,4.649,1.389,4.968,3.813L172.868,140.443z"/>
						<g opacity="0.3">
							<path fill="#231F20" d="M158.031,58.623c1.445,0,2.677,1.083,2.866,2.519l10.451,79.5c0.101,0.767-0.103,1.527-0.574,2.14
								c-0.471,0.614-1.153,1.007-1.92,1.108L46.376,159.992c-0.127,0.017-0.256,0.025-0.383,0.025
								c-1.445,0-2.677-1.083-2.866-2.519l-10.451-79.5c-0.208-1.583,0.911-3.041,2.494-3.249l122.478-16.101
								C157.776,58.632,157.905,58.623,158.031,58.623 M158.031,57.529c-0.175,0-0.351,0.012-0.526,0.035L35.028,73.664
								c-2.182,0.287-3.723,2.295-3.437,4.476l10.451,79.5c0.26,1.979,1.959,3.471,3.951,3.471c0.174,0,0.351-0.012,0.526-0.034
								l122.478-16.101c1.057-0.139,1.996-0.681,2.645-1.526c0.649-0.845,0.93-1.893,0.791-2.949L161.983,61
								C161.722,59.021,160.024,57.529,158.031,57.529L158.031,57.529z"/>
						</g>
						<path fill="none" stroke="#BFC9D8" stroke-width="5.659" stroke-miterlimit="10" d="M172.868,140.443
							c0.319,2.424-1.389,4.648-3.813,4.967L46.576,161.511c-2.425,0.318-4.649-1.388-4.968-3.813l-10.451-79.5
							c-0.318-2.425,1.389-4.649,3.814-4.967l122.478-16.101c2.425-0.319,4.649,1.389,4.968,3.813L172.868,140.443z"/>
					</g>
				</g>
				<circle fill="#3F4751" cx="96.884" cy="70.31" r="1.074"/>
				<g>
					<g>
						
							<rect x="47.033" y="74.759" transform="matrix(0.9915 -0.1303 0.1303 0.9915 -13.3661 14.2264)" fill="#FFFFFF" width="109.933" height="68.928"/>
					</g>
				</g>
			</g>
			<g>
				<g>
					<g>
						<path fill="#72BDBA" d="M141.372,103.359c-0.049,0-0.098-0.011-0.143-0.033c-0.08-0.039-0.141-0.109-0.169-0.193l-2.972-9.081
							c-0.046-0.14,0.007-0.294,0.13-0.376c0.055-0.037,0.119-0.055,0.182-0.055c0.077,0,0.154,0.027,0.215,0.08l7.224,6.249
							c0.067,0.058,0.108,0.142,0.113,0.23c0.005,0.089-0.027,0.176-0.087,0.241c-1.209,1.3-2.724,2.308-4.38,2.916
							C141.449,103.353,141.411,103.359,141.372,103.359z"/>
						<path fill="#FFFFFF" d="M138.401,93.95l7.224,6.249c-1.157,1.244-2.604,2.226-4.252,2.832L138.401,93.95 M138.401,93.293
							c-0.126,0-0.253,0.036-0.364,0.11c-0.246,0.163-0.352,0.471-0.26,0.751l2.972,9.081c0.055,0.169,0.177,0.309,0.338,0.387
							c0.09,0.044,0.188,0.066,0.286,0.066c0.076,0,0.153-0.013,0.226-0.04c1.704-0.626,3.262-1.663,4.507-3.001
							c0.121-0.131,0.185-0.305,0.175-0.483c-0.01-0.178-0.091-0.344-0.226-0.461l-7.224-6.249
							C138.708,93.347,138.555,93.293,138.401,93.293L138.401,93.293z"/>
					</g>
				</g>
				<g>
					<g>
						<path fill="#FFD121" d="M146.149,99.921c-0.079,0-0.155-0.028-0.215-0.08l-7.635-6.606c-0.098-0.085-0.137-0.219-0.099-0.343
							c0.038-0.124,0.145-0.214,0.273-0.231l10.018-1.257c0.014-0.002,0.027-0.002,0.041-0.002c0.075,0,0.147,0.025,0.206,0.073
							c0.069,0.056,0.113,0.138,0.121,0.226c0.261,2.926-0.61,5.801-2.454,8.098c-0.056,0.069-0.137,0.113-0.226,0.121
							C146.169,99.92,146.159,99.921,146.149,99.921z"/>
						<path fill="#FFFFFF" d="M148.532,91.73c0.262,2.933-0.66,5.718-2.383,7.863l-7.635-6.606L148.532,91.73 M148.532,91.073
							c-0.027,0-0.054,0.002-0.082,0.005l-10.018,1.257c-0.257,0.032-0.471,0.213-0.547,0.461c-0.075,0.248,0.003,0.517,0.199,0.687
							l7.635,6.606c0.12,0.104,0.272,0.16,0.43,0.16c0.02,0,0.04-0.001,0.059-0.003c0.178-0.016,0.341-0.104,0.453-0.243
							c1.897-2.363,2.793-5.322,2.525-8.332c-0.016-0.178-0.103-0.341-0.242-0.453C148.827,91.124,148.681,91.073,148.532,91.073
							L148.532,91.073z"/>
					</g>
				</g>
				<g>
					<g>
						<path fill="#FF6464" d="M137.917,92.581c-0.073,0-0.144-0.024-0.201-0.069c-0.069-0.053-0.113-0.132-0.124-0.218
							l-1.318-10.515c-0.011-0.088,0.014-0.177,0.07-0.247c0.056-0.069,0.138-0.113,0.226-0.121c0.336-0.03,0.677-0.045,1.014-0.045
							c5.581,0,10.28,4.002,11.172,9.515c0.014,0.088-0.008,0.178-0.061,0.249c-0.053,0.071-0.133,0.118-0.222,0.129l-10.515,1.319
							C137.945,92.58,137.931,92.581,137.917,92.581z"/>
						<path fill="#FFFFFF" d="M137.584,81.694c5.337,0,9.981,3.878,10.848,9.24l-10.515,1.319l-1.318-10.515
							C136.93,81.708,137.258,81.694,137.584,81.694 M137.584,81.037c-0.346,0-0.697,0.016-1.043,0.047
							c-0.178,0.016-0.341,0.103-0.453,0.242c-0.112,0.139-0.163,0.317-0.14,0.494l1.318,10.515c0.022,0.173,0.111,0.33,0.249,0.437
							c0.116,0.09,0.258,0.138,0.403,0.138c0.027,0,0.054-0.002,0.082-0.005l10.515-1.319c0.177-0.022,0.337-0.115,0.444-0.258
							c0.107-0.143,0.151-0.323,0.123-0.499c-0.443-2.737-1.854-5.233-3.972-7.027C143.003,82.019,140.331,81.037,137.584,81.037
							L137.584,81.037z"/>
					</g>
				</g>
				<g>
					<g>
						<path fill="#A2B2D6" d="M137.555,104.036c-2.219,0-4.374-0.649-6.232-1.878c-0.074-0.049-0.126-0.126-0.142-0.214
							c-0.016-0.088,0.004-0.178,0.056-0.251l5.93-8.305c0.062-0.087,0.162-0.137,0.267-0.137c0.016,0,0.033,0.001,0.05,0.004
							c0.122,0.019,0.224,0.105,0.262,0.222l3.174,9.7c0.028,0.085,0.02,0.177-0.022,0.256c-0.042,0.079-0.114,0.137-0.2,0.162
							c-0.559,0.16-1.138,0.278-1.72,0.351C138.507,104.006,138.028,104.036,137.555,104.036L137.555,104.036z"/>
						<path fill="#FFFFFF" d="M137.435,93.579l3.174,9.7c-0.54,0.154-1.097,0.269-1.67,0.341c-0.465,0.058-0.927,0.087-1.383,0.087
							c-2.208,0-4.298-0.664-6.051-1.823L137.435,93.579 M137.435,92.922c-0.21,0-0.41,0.101-0.534,0.275l-5.93,8.305
							c-0.104,0.145-0.144,0.326-0.111,0.501c0.032,0.175,0.135,0.33,0.283,0.428c1.911,1.264,4.129,1.932,6.413,1.932
							c0.486,0,0.979-0.031,1.465-0.092c0.598-0.075,1.194-0.197,1.769-0.361c0.172-0.049,0.316-0.166,0.399-0.324
							c0.084-0.158,0.1-0.342,0.044-0.512l-3.174-9.7c-0.077-0.235-0.28-0.407-0.525-0.445
							C137.501,92.925,137.468,92.922,137.435,92.922L137.435,92.922z"/>
					</g>
				</g>
				<g>
					<g>
						<path fill="#B74FB0" d="M130.852,101.746c-0.072,0-0.143-0.024-0.2-0.068c-0.452-0.348-0.878-0.73-1.266-1.136l-0.542-0.608
							c-1.382-1.666-2.251-3.677-2.52-5.823c-0.763-6.084,3.378-11.618,9.427-12.598c0.017-0.003,0.035-0.004,0.052-0.004
							c0.07,0,0.14,0.023,0.197,0.065c0.071,0.053,0.118,0.133,0.129,0.222l1.367,10.903c0.01,0.083-0.011,0.167-0.06,0.234
							l-6.319,8.678c-0.052,0.072-0.131,0.119-0.219,0.132C130.883,101.745,130.867,101.746,130.852,101.746z"/>
						<path fill="#FFFFFF" d="M135.804,81.837l0.802,6.397l0.54,4.306l0.025,0.199l-6.319,8.678
							c-0.436-0.336-0.848-0.705-1.23-1.103l-0.534-0.599c-1.291-1.558-2.169-3.49-2.439-5.646
							C125.91,88.172,129.984,82.78,135.804,81.837 M135.804,81.181c-0.035,0-0.07,0.003-0.105,0.008
							c-2.988,0.484-5.637,2.087-7.457,4.512c-1.825,2.432-2.622,5.433-2.244,8.45c0.277,2.208,1.171,4.277,2.585,5.983
							c0.005,0.006,0.01,0.012,0.015,0.018l0.533,0.599c0.005,0.006,0.011,0.012,0.016,0.018c0.4,0.417,0.838,0.811,1.303,1.169
							c0.116,0.089,0.257,0.137,0.401,0.137c0.031,0,0.062-0.002,0.093-0.007c0.175-0.025,0.333-0.12,0.438-0.263l6.319-8.678
							c0.098-0.135,0.141-0.302,0.121-0.468l-0.025-0.199l-0.54-4.306l-0.802-6.397c-0.022-0.177-0.115-0.337-0.258-0.444
							C136.083,81.226,135.945,81.181,135.804,81.181L135.804,81.181z"/>
					</g>
				</g>
			</g>
			<g>
				<g>
					<g>
						<g>
							
								<rect x="130.049" y="111.659" transform="matrix(-0.9914 0.1312 -0.1312 -0.9914 277.1141 208.3483)" fill="#72BDBA" width="3.289" height="3.289"/>
							<path fill="#FFFFFF" d="M132.731,111.949l0.317,2.393l-2.392,0.317l-0.317-2.393L132.731,111.949 M133.484,110.966
								l-0.868,0.115l-2.392,0.317l-0.868,0.115l0.115,0.868l0.317,2.393l0.115,0.868l0.868-0.115l2.392-0.317l0.868-0.115
								l-0.115-0.868l-0.317-2.393L133.484,110.966L133.484,110.966z"/>
						</g>
					</g>
					
						<rect x="134.949" y="111.382" transform="matrix(0.9914 -0.1312 0.1312 0.9914 -13.4391 19.6906)" fill="#5A5A7A" width="15.554" height="0.923"/>
					<g>
						<g>
							
								<rect x="130.562" y="115.535" transform="matrix(-0.9914 0.1311 -0.1311 -0.9914 278.6367 216.0102)" fill="#FF6464" width="3.289" height="3.289"/>
							<path fill="#FFFFFF" d="M133.244,115.825l0.317,2.393l-2.392,0.317l-0.317-2.393L133.244,115.825 M133.997,114.842
								l-0.868,0.115l-2.392,0.317l-0.868,0.115l0.115,0.868l0.317,2.393l0.115,0.868l0.868-0.115l2.392-0.317l0.868-0.115
								l-0.115-0.868l-0.317-2.393L133.997,114.842L133.997,114.842z"/>
						</g>
					</g>
					
						<rect x="135.505" y="115.92" transform="matrix(0.9914 -0.1312 0.1312 0.9914 -14.0732 19.1411)" fill="#5A5A7A" width="5.467" height="0.923"/>
					<g>
						<g>
							
								<rect x="131.075" y="119.411" transform="matrix(-0.9914 0.1312 -0.1312 -0.9914 280.174 223.6505)" fill="#FFD121" width="3.289" height="3.289"/>
							<path fill="#FFFFFF" d="M133.757,119.701l0.317,2.393l-2.392,0.317l-0.317-2.393L133.757,119.701 M134.51,118.718
								l-0.868,0.115l-2.392,0.317l-0.868,0.115l0.115,0.868l0.317,2.393l0.115,0.868l0.868-0.115l2.392-0.317l0.868-0.115
								l-0.115-0.868l-0.317-2.393L134.51,118.718L134.51,118.718z"/>
						</g>
					</g>
					
						<rect x="135.988" y="119.337" transform="matrix(0.9914 -0.1312 0.1312 0.9914 -14.4869 19.6926)" fill="#5A5A7A" width="12.462" height="0.923"/>
					<g>
						<g>
							
								<rect x="131.553" y="123.408" transform="matrix(-0.9914 0.1312 -0.1312 -0.9914 281.6516 231.5488)" fill="#B74FB0" width="3.289" height="3.289"/>
							<path fill="#FFFFFF" d="M134.236,123.698l0.317,2.393l-2.392,0.317l-0.317-2.393L134.236,123.698 M134.989,122.716
								l-0.868,0.115l-2.392,0.317l-0.868,0.115l0.115,0.868l0.317,2.393l0.115,0.868l0.868-0.115l2.392-0.317l0.868-0.115
								l-0.115-0.868l-0.317-2.393L134.989,122.716L134.989,122.716z"/>
						</g>
					</g>
					
						<rect x="136.467" y="123.334" transform="matrix(0.9914 -0.1312 0.1312 0.9914 -15.0074 19.7903)" fill="#5A5A7A" width="12.462" height="0.923"/>
				</g>
			</g>
			<g>
				<path opacity="0.6" fill="#BAB7F7" d="M57.436,124.233c10.435-1.361,4.49-25.81,19.509-27.026
					c16.352-1.323,13.153,31.449,40.183,27.924c1.709-0.223,3.318-0.489,4.833-0.793l0.43,3.864l-63.086,8.427L57.436,124.233z"/>
				<path opacity="0.5" fill="#FF7D55" d="M56.162,114.869c6.991-0.912,11.635,3.392,14.474,6.143
					c4.382,4.247,12.539,5.258,17.058-1.995c7.236-11.613,15.793-11.697,23.59-5.027c3.084,2.638,6.509,3.87,9.748,3.488
					l1.101,10.402l-63.121,8.312L56.162,114.869z"/>
				<path opacity="0.4" fill="#CE8FFF" d="M121.67,123.9c-1.515,0.304-3.125,0.57-4.833,0.793c-12.992,1.695-19-4.997-23.552-12.257
					c-1.923,1.534-3.797,3.703-5.59,6.58c-4.519,7.254-12.676,6.242-17.058,1.995c-1.666-1.614-3.955-3.763-6.974-5.079
					c-1.214,4.035-2.824,7.256-6.311,7.827l1.662,12.431l63.06-8.252L121.67,123.9z"/>
				<path fill="#FFD121" d="M95.901,131.302l-2.555-18.767c-3.413-5.424-5.999-11.185-10.067-14.018l4.313,33.886L95.901,131.302z"
					/>
				<g>
					<g>
						<g>
							
								<line fill="none" stroke="#FFFFFF" stroke-width="2.3368" stroke-linecap="round" stroke-miterlimit="10" x1="93.351" y1="112.537" x2="93.421" y2="113.075"/>
							
								<line fill="none" stroke="#FFFFFF" stroke-width="2.3368" stroke-linecap="round" stroke-miterlimit="10" stroke-dasharray="4.7681,7.1522" x1="93.636" y1="114.721" x2="95.675" y2="130.356"/>
							
								<line fill="none" stroke="#FFFFFF" stroke-width="2.3368" stroke-linecap="round" stroke-miterlimit="10" x1="95.783" y1="131.179" x2="95.853" y2="131.717"/>
						</g>
					</g>
				</g>
				<g>
					<g>
						<g>
							
								<line fill="none" stroke="#FFFFFF" stroke-width="2.3368" stroke-linecap="round" stroke-miterlimit="10" x1="103.932" y1="109.334" x2="104.002" y2="109.872"/>
							
								<line fill="none" stroke="#FFFFFF" stroke-width="2.3368" stroke-linecap="round" stroke-miterlimit="10" stroke-dasharray="4.5507,6.8261" x1="104.207" y1="111.442" x2="106.495" y2="128.983"/>
							
								<line fill="none" stroke="#FFFFFF" stroke-width="2.3368" stroke-linecap="round" stroke-miterlimit="10" x1="106.597" y1="129.768" x2="106.668" y2="130.306"/>
						</g>
					</g>
				</g>
				<g>
					<g>
						<g>
							
								<line fill="none" stroke="#FFFFFF" stroke-width="2.3368" stroke-linecap="round" stroke-miterlimit="10" x1="83.301" y1="99.081" x2="83.371" y2="99.618"/>
							
								<line fill="none" stroke="#FFFFFF" stroke-width="2.3368" stroke-linecap="round" stroke-miterlimit="10" stroke-dasharray="4.8216,7.2324" x1="83.588" y1="101.283" x2="87.46" y2="130.963"/>
							
								<line fill="none" stroke="#FFFFFF" stroke-width="2.3368" stroke-linecap="round" stroke-miterlimit="10" x1="87.568" y1="131.795" x2="87.638" y2="132.332"/>
						</g>
					</g>
				</g>
				<g>
					<g>
						<g>
							
								<line fill="none" stroke="#FFFFFF" stroke-width="2.3368" stroke-linecap="round" stroke-miterlimit="10" x1="63.775" y1="116.395" x2="63.845" y2="116.932"/>
							
								<line fill="none" stroke="#FFFFFF" stroke-width="2.3368" stroke-linecap="round" stroke-miterlimit="10" stroke-dasharray="4.7681,7.1522" x1="64.06" y1="118.578" x2="66.099" y2="134.214"/>
							
								<line fill="none" stroke="#FFFFFF" stroke-width="2.3368" stroke-linecap="round" stroke-miterlimit="10" x1="66.206" y1="135.037" x2="66.277" y2="135.574"/>
						</g>
					</g>
				</g>
				<path fill="none" stroke="#8C83DD" stroke-width="3.1158" stroke-miterlimit="10" d="M105.828,123.834
					c3.012,1.045,6.61,1.433,11.008,0.859c1.709-0.223,3.318-0.489,4.833-0.793"/>
				<path fill="none" stroke="#8C83DD" stroke-width="3.1158" stroke-miterlimit="10" d="M57.144,123.795
					c10.435-1.361,4.49-25.81,19.509-27.026c13.692-1.108,13.676,21.687,29.175,27.065"/>
				<path fill="none" stroke="#FF7261" stroke-width="2.4718" stroke-miterlimit="10" d="M93.3,112.422
					c5.835-4.644,12.124-3.445,17.984,1.567c3.084,2.638,6.509,3.87,9.748,3.488"/>
				<path fill="none" stroke="#FFFFFF" stroke-width="2.4718" stroke-miterlimit="10" d="M86.111,121.085
					c0.564-0.597,1.095-1.284,1.583-2.068c1.798-2.886,3.677-5.059,5.606-6.594"/>
				<path fill="none" stroke="#FF7261" stroke-width="2.4718" stroke-miterlimit="10" d="M56.162,114.869
					c6.991-0.912,11.635,3.392,14.474,6.143c3.909,3.788,10.82,5.002,15.475,0.073"/>
				<g>
					<g>
						<g>
							<polyline fill="none" stroke="#3F4751" stroke-width="3.8947" stroke-miterlimit="10" points="53.732,95.704 59.013,136.191 
								122.622,127.895 							"/>
							<g>
								<polygon fill="#3F4751" points="53.402,93.173 52.409,96.93 53.757,95.894 55.324,96.55 								"/>
							</g>
							<g>
								<polygon fill="#3F4751" points="125.153,127.564 121.776,129.487 122.432,127.919 121.396,126.573 								"/>
							</g>
						</g>
					</g>
				</g>
				<circle fill="#FFFFFF" stroke="#FF6464" stroke-width="2.3368" stroke-miterlimit="10" cx="63.712" cy="115.917" r="0.949"/>
				<circle fill="#FFFFFF" stroke="#FF6464" stroke-width="2.3368" stroke-miterlimit="10" cx="56.293" cy="114.94" r="0.949"/>
				<circle fill="#FFFFFF" stroke="#FF6464" stroke-width="2.3368" stroke-miterlimit="10" cx="93.351" cy="112.537" r="0.949"/>
				<circle fill="#8C83DD" cx="83.268" cy="98.427" r="0.949"/>
				<circle fill="#FF6464" cx="104.092" cy="109.86" r="0.949"/>
				<circle fill="#8C83DD" cx="66.352" cy="106.336" r="0.949"/>
				<circle fill="#3F4751" cx="66.297" cy="135.268" r="0.949"/>
				<circle fill="#3F4751" cx="95.874" cy="131.41" r="0.949"/>
				<circle fill="#3F4751" cx="106.748" cy="129.992" r="0.949"/>
				<circle fill="#3F4751" cx="87.718" cy="132.474" r="0.949"/>
				<circle fill="#FFFFFF" stroke="#8C83DD" stroke-width="2.3368" stroke-miterlimit="10" cx="57.499" cy="123.715" r="0.949"/>
				<g>
					<polygon fill="#8C83DD" points="84.085,92.78 84.412,96.532 88.097,96.206 86.999,94.136 					"/>
					<g>
						<g>
							<path fill="#FFFFFF" d="M87.662,95.907c-1.625,0-3.009-1.217-3.22-2.831c-0.232-1.778,1.026-3.412,2.803-3.644
								c0.141-0.018,0.283-0.028,0.424-0.028c1.625,0,3.01,1.217,3.22,2.831c0.232,1.777-1.026,3.412-2.803,3.644
								C87.946,95.897,87.803,95.907,87.662,95.907z"/>
							<g>
								<path fill="#8C83DD" d="M87.67,89.729c1.447,0,2.705,1.074,2.897,2.548c0.209,1.602-0.92,3.071-2.523,3.28
									c-0.128,0.017-0.256,0.025-0.382,0.025c-1.447,0-2.705-1.074-2.897-2.548c-0.209-1.602,0.92-3.071,2.523-3.28
									C87.416,89.737,87.543,89.729,87.67,89.729 M87.67,89.079L87.67,89.079c-0.155,0-0.312,0.01-0.466,0.03
									c-0.947,0.124-1.789,0.608-2.372,1.366c-0.582,0.757-0.835,1.696-0.712,2.643c0.232,1.775,1.754,3.114,3.542,3.114
									c0.155,0,0.312-0.01,0.466-0.03c1.955-0.255,3.338-2.053,3.083-4.008C90.98,90.418,89.457,89.079,87.67,89.079L87.67,89.079
									z"/>
							</g>
						</g>
					</g>
				</g>
				<g>
					<polygon fill="#FF6464" points="104.878,104.743 105.205,108.495 108.89,108.169 107.792,106.1 					"/>
					<g>
						<g>
							<path fill="#FFFFFF" d="M108.455,107.87c-1.625,0-3.009-1.217-3.22-2.831c-0.112-0.861,0.117-1.714,0.647-2.403
								c0.529-0.688,1.295-1.129,2.156-1.241c0.14-0.018,0.283-0.028,0.424-0.028c1.625,0,3.01,1.217,3.22,2.831
								c0.112,0.861-0.117,1.714-0.647,2.402c-0.53,0.688-1.295,1.129-2.156,1.242C108.739,107.86,108.596,107.87,108.455,107.87z"
								/>
							<g>
								<path fill="#FF6464" d="M108.463,101.692c1.448,0,2.705,1.074,2.898,2.548c0.209,1.602-0.92,3.071-2.523,3.28
									c-0.128,0.017-0.256,0.025-0.382,0.025c-1.447,0-2.705-1.074-2.897-2.548c-0.209-1.602,0.92-3.071,2.523-3.28
									C108.209,101.7,108.337,101.692,108.463,101.692 M108.463,101.042L108.463,101.042c-0.155,0-0.312,0.01-0.466,0.03
									c-1.955,0.255-3.338,2.053-3.083,4.008c0.232,1.775,1.754,3.114,3.542,3.114c0.155,0,0.312-0.01,0.466-0.03
									c0.947-0.124,1.789-0.608,2.372-1.366c0.582-0.757,0.835-1.696,0.712-2.643
									C111.773,102.381,110.251,101.042,108.463,101.042L108.463,101.042z"/>
							</g>
						</g>
					</g>
				</g>
				<g>
					<path fill="#8C83DD" d="M86.471,92.536c-0.138-0.093-0.218-0.221-0.24-0.383c-0.01-0.08-0.004-0.157,0.019-0.231
						c0.023-0.074,0.061-0.141,0.113-0.2c0.051-0.059,0.116-0.109,0.192-0.149c0.076-0.04,0.161-0.066,0.255-0.079
						c0.094-0.012,0.182-0.009,0.267,0.011c0.085,0.019,0.159,0.051,0.224,0.095c0.065,0.044,0.118,0.099,0.16,0.164
						c0.042,0.065,0.068,0.138,0.078,0.219c0.021,0.163-0.023,0.306-0.133,0.432c0.197,0.095,0.31,0.253,0.339,0.475
						c0.012,0.092,0.006,0.18-0.019,0.266c-0.025,0.086-0.066,0.163-0.123,0.232c-0.057,0.069-0.129,0.126-0.215,0.173
						c-0.087,0.046-0.185,0.077-0.296,0.091c-0.111,0.015-0.214,0.01-0.309-0.012c-0.095-0.023-0.179-0.06-0.252-0.112
						c-0.073-0.052-0.132-0.116-0.178-0.193c-0.046-0.077-0.075-0.161-0.087-0.253c-0.014-0.109-0.005-0.21,0.029-0.303
						C86.328,92.686,86.387,92.605,86.471,92.536z M86.682,92.138c0.004,0.029,0.013,0.055,0.028,0.08
						c0.015,0.024,0.033,0.045,0.055,0.063c0.022,0.018,0.046,0.031,0.072,0.039c0.026,0.008,0.054,0.011,0.082,0.007
						c0.059-0.008,0.107-0.035,0.142-0.083c0.036-0.047,0.05-0.101,0.042-0.16c-0.008-0.061-0.035-0.11-0.082-0.147
						c-0.047-0.037-0.099-0.051-0.159-0.044c-0.057,0.007-0.104,0.035-0.139,0.082C86.688,92.022,86.674,92.077,86.682,92.138z
						 M86.724,92.978c0.005,0.04,0.018,0.078,0.037,0.112c0.019,0.034,0.043,0.063,0.072,0.085c0.029,0.022,0.061,0.039,0.096,0.051
						c0.034,0.011,0.071,0.014,0.109,0.009c0.036-0.005,0.07-0.017,0.102-0.036c0.031-0.02,0.058-0.044,0.081-0.073
						c0.022-0.029,0.039-0.062,0.048-0.099c0.01-0.037,0.012-0.077,0.006-0.119c-0.011-0.084-0.047-0.151-0.108-0.2
						c-0.061-0.049-0.13-0.069-0.206-0.059c-0.039,0.005-0.073,0.017-0.103,0.037c-0.031,0.019-0.057,0.044-0.079,0.074
						c-0.022,0.03-0.039,0.064-0.048,0.101C86.721,92.897,86.719,92.936,86.724,92.978z"/>
					<path fill="#8C83DD" d="M88.329,93.428c-0.185,0.024-0.288-0.035-0.306-0.179c-0.008-0.057,0.017-0.128,0.073-0.213
						c0.056-0.084,0.133-0.197,0.231-0.338c0.141-0.203,0.248-0.371,0.323-0.502c0.074-0.131,0.106-0.237,0.096-0.318
						c-0.008-0.059-0.031-0.105-0.069-0.136c-0.038-0.031-0.082-0.043-0.132-0.037c-0.044,0.006-0.083,0.028-0.116,0.068
						c-0.034,0.039-0.059,0.096-0.077,0.17c-0.018,0.084-0.04,0.147-0.066,0.189c-0.026,0.042-0.069,0.067-0.13,0.075
						c-0.067,0.009-0.124-0.006-0.173-0.043c-0.048-0.038-0.078-0.092-0.087-0.165c-0.007-0.053-0.003-0.117,0.013-0.19
						c0.016-0.073,0.043-0.141,0.081-0.204c0.058-0.094,0.131-0.17,0.218-0.227c0.088-0.057,0.187-0.092,0.296-0.107
						c0.099-0.013,0.191-0.009,0.276,0.011c0.084,0.02,0.158,0.054,0.223,0.101c0.065,0.047,0.117,0.105,0.157,0.175
						c0.04,0.069,0.066,0.147,0.077,0.233c0.011,0.082,0.006,0.165-0.016,0.248c-0.021,0.084-0.056,0.171-0.106,0.263
						c-0.049,0.092-0.112,0.191-0.188,0.296c-0.076,0.105-0.162,0.221-0.258,0.346l0.427-0.056c0.22-0.029,0.339,0.029,0.358,0.172
						c0.019,0.143-0.082,0.229-0.301,0.258L88.329,93.428z"/>
				</g>
				<g>
					<path fill="#FF6464" d="M107.774,105.187l-0.72,0.094c-0.094,0.012-0.166,0.007-0.216-0.016
						c-0.051-0.022-0.08-0.065-0.088-0.128c-0.007-0.053-0.002-0.102,0.016-0.145c0.018-0.043,0.037-0.088,0.058-0.136l0.483-1.04
						c0.039-0.087,0.082-0.15,0.13-0.191c0.047-0.04,0.109-0.065,0.186-0.075c0.107-0.014,0.2,0.013,0.278,0.082
						c0.078,0.069,0.127,0.182,0.148,0.341l0.098,0.749c0.013-0.004,0.025-0.007,0.037-0.009c0.011-0.003,0.022-0.004,0.031-0.005
						c0.08-0.011,0.145,0,0.194,0.033c0.049,0.032,0.077,0.078,0.085,0.135c0.019,0.143-0.065,0.227-0.25,0.251l-0.043,0.006
						l0.028,0.215c0.01,0.08-0.001,0.145-0.036,0.193c-0.035,0.048-0.087,0.077-0.158,0.086c-0.132,0.017-0.21-0.062-0.233-0.238
						L107.774,105.187z M107.721,104.777l-0.102-0.78l-0.377,0.843L107.721,104.777z"/>
					<path fill="#FF6464" d="M108.951,104.345c-0.139-0.093-0.218-0.22-0.24-0.383c-0.01-0.08-0.004-0.158,0.019-0.232
						c0.024-0.074,0.061-0.141,0.112-0.2c0.052-0.059,0.116-0.109,0.192-0.149c0.076-0.04,0.161-0.066,0.255-0.079
						c0.094-0.012,0.183-0.009,0.267,0.01c0.084,0.019,0.159,0.051,0.224,0.095c0.065,0.044,0.118,0.099,0.16,0.165
						c0.042,0.065,0.068,0.138,0.078,0.219c0.021,0.162-0.023,0.306-0.133,0.432c0.197,0.095,0.31,0.253,0.339,0.475
						c0.012,0.092,0.005,0.181-0.019,0.267c-0.025,0.086-0.066,0.163-0.123,0.232c-0.057,0.069-0.129,0.126-0.215,0.172
						c-0.087,0.046-0.185,0.077-0.296,0.091c-0.111,0.015-0.214,0.01-0.309-0.012c-0.096-0.022-0.179-0.06-0.252-0.111
						c-0.073-0.052-0.132-0.116-0.178-0.192c-0.046-0.077-0.075-0.161-0.087-0.253c-0.014-0.109-0.005-0.21,0.029-0.303
						C108.808,104.495,108.867,104.414,108.951,104.345z M109.162,103.947c0.004,0.029,0.013,0.055,0.028,0.08
						c0.015,0.024,0.033,0.046,0.055,0.063c0.022,0.018,0.046,0.03,0.072,0.039c0.026,0.008,0.054,0.01,0.082,0.007
						c0.059-0.008,0.107-0.035,0.143-0.083c0.035-0.047,0.049-0.101,0.042-0.16c-0.008-0.061-0.035-0.11-0.082-0.147
						c-0.047-0.037-0.099-0.051-0.159-0.044c-0.057,0.007-0.104,0.035-0.139,0.082C109.168,103.832,109.154,103.886,109.162,103.947
						z M109.204,104.787c0.005,0.04,0.017,0.078,0.036,0.112c0.019,0.035,0.043,0.063,0.072,0.085
						c0.029,0.022,0.061,0.039,0.095,0.05c0.034,0.011,0.071,0.014,0.109,0.009c0.036-0.005,0.07-0.017,0.102-0.036
						c0.031-0.02,0.058-0.044,0.081-0.073c0.022-0.029,0.039-0.062,0.049-0.099c0.009-0.037,0.012-0.077,0.006-0.119
						c-0.011-0.084-0.047-0.151-0.108-0.2c-0.061-0.049-0.13-0.069-0.206-0.059c-0.038,0.005-0.073,0.017-0.103,0.037
						c-0.03,0.019-0.057,0.044-0.079,0.075c-0.022,0.03-0.039,0.064-0.048,0.101C109.201,104.706,109.199,104.745,109.204,104.787z"
						/>
				</g>
				<g>
					<g>
						<path fill="#FFFFFF" d="M86.228,122.282c-0.61,0-1.13-0.457-1.209-1.063c-0.042-0.323,0.044-0.643,0.243-0.902
							c0.199-0.258,0.486-0.424,0.809-0.466c0.053-0.007,0.107-0.01,0.159-0.01c0.61,0,1.13,0.457,1.209,1.062
							c0.087,0.667-0.385,1.281-1.052,1.368C86.334,122.279,86.281,122.282,86.228,122.282z"/>
						<g>
							<path fill="#FF6464" d="M86.23,120.113c0.47,0,0.878,0.348,0.94,0.827c0.068,0.52-0.299,0.996-0.818,1.064
								c-0.042,0.005-0.083,0.008-0.124,0.008c-0.47,0-0.878-0.348-0.94-0.827c-0.068-0.52,0.299-0.996,0.818-1.064
								C86.148,120.115,86.189,120.113,86.23,120.113 M86.23,119.57L86.23,119.57c-0.065,0-0.13,0.004-0.194,0.013
								c-0.816,0.106-1.392,0.856-1.286,1.672c0.097,0.74,0.732,1.299,1.478,1.299c0.064,0,0.13-0.004,0.194-0.013
								c0.816-0.106,1.392-0.856,1.286-1.672C87.612,120.128,86.976,119.57,86.23,119.57L86.23,119.57z"/>
						</g>
					</g>
				</g>
				<g>
					<g>
						<path fill="#FFFFFF" d="M105.817,125.014c-0.61,0-1.13-0.457-1.209-1.063c-0.087-0.667,0.385-1.281,1.052-1.368
							c0.053-0.007,0.107-0.01,0.159-0.01c0.61,0,1.13,0.457,1.209,1.063c0.042,0.323-0.044,0.643-0.243,0.902
							c-0.199,0.258-0.486,0.424-0.809,0.466C105.923,125.01,105.869,125.014,105.817,125.014z"/>
						<g>
							<path fill="#8C83DD" d="M105.819,122.844c0.47,0,0.878,0.348,0.94,0.827c0.068,0.52-0.299,0.996-0.818,1.064
								c-0.042,0.005-0.083,0.008-0.124,0.008c-0.47,0-0.878-0.348-0.94-0.827c-0.068-0.52,0.299-0.996,0.818-1.064
								C105.737,122.847,105.778,122.844,105.819,122.844 M105.819,122.302L105.819,122.302c-0.065,0-0.13,0.004-0.194,0.013
								c-0.815,0.106-1.392,0.856-1.286,1.672c0.097,0.74,0.732,1.299,1.478,1.299c0.065,0,0.13-0.004,0.194-0.013
								c0.815-0.106,1.392-0.856,1.286-1.672C107.2,122.86,106.565,122.302,105.819,122.302L105.819,122.302z"/>
						</g>
					</g>
				</g>
			</g>
		</g>
	</g>
</g>
</svg>
