<?xml version="1.0" encoding="utf-8"?>
<!-- Generator: Adobe Illustrator 17.0.1, SVG Export Plug-In . SVG Version: 6.00 Build 0)  -->
<!DOCTYPE svg PUBLIC "-//W3C//DTD SVG 1.1//EN" "http://www.w3.org/Graphics/SVG/1.1/DTD/svg11.dtd">
<svg version="1.1" id="Layer_2" xmlns="http://www.w3.org/2000/svg" xmlns:xlink="http://www.w3.org/1999/xlink" x="0px" y="0px"
	 width="204.5px" height="209.5px" viewBox="0 0 204.5 209.5" enable-background="new 0 0 204.5 209.5" xml:space="preserve">
<circle id="Background_2_1_" fill="none" stroke="#FFCC00" stroke-width="3" stroke-miterlimit="10" cx="102.459" cy="105.645" r="99.723"/>
<g>
	<path fill="#6B2A18" d="M158.889,162.414l-0.884-0.943c-3.542-3.781-9.479-3.976-13.261-0.433l-5.818,5.45
		c-1.346,1.261-3.46,1.192-4.721-0.154l-0.046-0.049c-1.261-1.346-3.375-1.415-4.721-0.154l-11.869,11.118
		c-1.346,1.261-1.415,3.375-0.154,4.721l9.627,10.277l10.815-10.131l-1.204-1.285l3.907-1.247L158.889,162.414z"/>
	<path fill="#252533" d="M136.226,167.258l-37.259-37.432c-2.371-2.383-5.595-3.722-8.956-3.722h-14.07V149.9h6.832
		c1.563,0,3.063,0.621,4.169,1.727l32.458,32.457L136.226,167.258z"/>
	<path fill="#DD9900" d="M137.82,192.247H58.68c-6.329,0-11.46-5.131-11.46-11.461V161.31c0-6.329,5.131-11.461,11.46-11.461h79.14
		c6.329,0,11.461,5.131,11.461,11.461v19.477C149.281,187.116,144.15,192.247,137.82,192.247z"/>
	<path fill="#FFB600" d="M121.335,192.247H42.195c-6.329,0-11.46-5.131-11.46-11.461V161.31c0-6.329,5.131-11.461,11.46-11.461
		h79.141c6.329,0,11.461,5.131,11.461,11.461v19.477C132.796,187.116,127.665,192.247,121.335,192.247z"/>
	<polygon fill="#8F8FAA" points="168.303,99.904 170.565,90.42 166.042,82.09 	"/>
	<polygon fill="#F3EEFF" points="170.569,90.422 137.594,148.395 125.627,143.265 100.249,132.372 41.338,123.186 79.611,59.387 
		123.309,59.387 122.845,75.863 130.178,60.946 165.227,75.073 	"/>
	<polygon fill="#C2BAD8" points="170.569,90.422 137.594,148.395 125.627,143.265 165.227,75.073 	"/>
	<polygon fill="#C2BAD8" points="86.452,128.35 123.305,59.391 126.876,68.011 94.32,131.449 	"/>
	<path fill="#FFB37B" d="M74.979,14.505l-15.901-0.756c-10.322-0.491-19.105,7.864-19.619,18.662l-0.221,4.65
		c-0.002,0.051-0.046,0.087-0.094,0.078c-0.32-0.062-0.645-0.109-0.979-0.125l-0.186-0.009c-4.064-0.193-7.522,3.096-7.725,7.348
		l-0.007,0.155c-0.202,4.248,2.926,7.848,6.987,8.041l0.191,0.009c0.342,0.016,0.677,0,1.008-0.033
		c0.047-0.005,0.085,0.033,0.085,0.082c-0.108,10.412,7.67,19.104,17.7,19.581l15.981,0.76c10.322,0.491,19.105-7.864,19.618-18.662
		l0.92-19.342C93.252,24.146,85.3,14.996,74.979,14.505z"/>
	<g>
		<path fill="#774320" d="M45.526,44.42c0.437-9.2-0.934-20.867,7.471-26.737c4.256-2.973,8.787-2.742,13.604-2.513
			c3.923,0.186,7.85,0.302,11.769,0.56c4.228,0.278,4.572-6.478,0.324-6.823C74.411,8.56,70.11,8.5,65.818,8.296
			c-6.128-0.291-11.794,0.303-16.986,4.169c-5.778,4.302-8.849,11.07-9.196,18.364c-0.211,4.427-0.421,8.854-0.631,13.281
			C38.795,48.51,45.317,48.82,45.526,44.42L45.526,44.42z"/>
	</g>
	<path fill="#774320" d="M94.32,12.209c0,0-0.194,10.371-20.808,9.391c-20.614-0.98-28.119-2.449-29.018,16.44
		c0,0-2.774-27.92,15.35-29.649C77.969,6.662,84,15.77,94.32,12.209z"/>
	<path fill="#774320" d="M35.161,51.819c-4.318-12.732-8.378-32.189,4.681-37.374C45.306-2.89,68.975,2.754,74.73,4.7
		c5.755,1.946,9.368-0.875,9.368-0.875c1.864,1.865,1.867,5.582,1.867,5.582l4.813-5.675c5.794,4.049,8.634,13.863-0.457,27.174
		L88.086,42.09L74.53,58.063c-3.575,4.212-8.908,6.519-14.426,6.24l-9.033-0.458C43.801,63.477,37.498,58.711,35.161,51.819z"/>
	<circle fill="#FFB37B" cx="84.176" cy="45.838" r="7.797"/>
	<path fill="#6B2A18" d="M187.233,162.414l-0.884-0.943c-3.542-3.781-9.479-3.976-13.261-0.433l-5.818,5.45
		c-1.346,1.261-3.46,1.192-4.721-0.154l-0.046-0.049c-1.261-1.346-3.375-1.415-4.721-0.154l-11.869,11.118
		c-1.346,1.261-1.415,3.375-0.154,4.721l9.627,10.277l10.815-10.131l-1.203-1.285l3.907-1.247L187.233,162.414z"/>
	<path fill="#252533" d="M164.57,167.258l-37.259-37.432c-2.372-2.383-5.595-3.722-8.956-3.722H65.407V149.9h45.711
		c1.563,0,3.063,0.621,4.168,1.727l32.458,32.457L164.57,167.258z"/>
	<path fill="#131516" d="M90.008,138.185c0,6.442-5.222,11.664-11.664,11.664H51.57c-6.442,0-11.664-5.222-11.664-11.664v-3.334
		c0-6.442,5.222-11.664,11.664-11.664h26.774c6.442,0,11.664,5.222,11.664,11.664V138.185z"/>
	<polygon fill="#131516" points="69.737,144.509 110.12,149.849 69.388,149.357 	"/>
	<path fill="#252533" d="M33.935,71.375c2.06-11.906,49.653-8.92,53.612,3.537c5.684,17.884,7.697,62.867,7.697,62.867
		s-28.166,12.07-58.309,3.571C36.935,141.35,32.498,79.68,33.935,71.375z"/>
	<g>
		<g opacity="0.5">
			<circle fill="#DDDDED" cx="141.964" cy="50.852" r="15.085"/>
			<g>
				<path fill="#252533" d="M153.991,45.209c2.485,6.391,0.727,13.68-5.519,17.2c-6.734,3.796-15.431,0.854-18.563-6.159
					c-2.957-6.62,0.006-14.483,6.658-17.453c6.957-3.107,14.302,0.271,17.608,6.847c1.054,2.096,4.199,0.253,3.147-1.84
					c-4.133-8.221-13.808-12.255-22.405-8.31c-8.271,3.795-12.113,13.859-8.402,22.188c3.718,8.345,13.639,12.274,22.062,8.711
					c8.682-3.672,12.263-13.579,8.929-22.154C156.664,42.077,153.139,43.018,153.991,45.209z"/>
			</g>
		</g>
		<g>
			<path fill="#514E6B" d="M153.991,45.209c2.485,6.391,0.727,13.68-5.519,17.2c-6.734,3.796-15.431,0.854-18.563-6.159
				c-2.957-6.62,0.006-14.483,6.658-17.453c6.957-3.107,14.302,0.271,17.608,6.847c1.054,2.096,4.199,0.253,3.147-1.84
				c-4.133-8.221-13.808-12.255-22.405-8.31c-8.271,3.795-12.113,13.859-8.402,22.188c3.718,8.345,13.639,12.274,22.062,8.711
				c8.682-3.672,12.263-13.579,8.929-22.154C156.664,42.077,153.139,43.018,153.991,45.209z"/>
		</g>
		<g>
			<path fill="#74708C" d="M152.518,44.289c2.485,6.391,0.727,13.68-5.519,17.2c-6.734,3.796-15.431,0.854-18.563-6.159
				c-2.957-6.62,0.006-14.483,6.658-17.453c6.957-3.107,14.302,0.271,17.608,6.847c1.054,2.096,4.199,0.253,3.147-1.84
				c-4.133-8.221-13.808-12.255-22.405-8.31c-8.271,3.795-12.113,13.859-8.402,22.188c3.718,8.345,13.639,12.274,22.062,8.711
				c8.682-3.672,12.263-13.579,8.929-22.154C155.192,41.158,151.666,42.098,152.518,44.289z"/>
		</g>
		<g>
			<path fill="#74708C" d="M133.566,65.326c-2.012,6.555-4.025,13.109-6.037,19.664c-0.69,2.247,2.827,3.208,3.515,0.969
				c2.012-6.555,4.025-13.109,6.037-19.664C137.771,64.048,134.254,63.087,133.566,65.326L133.566,65.326z"/>
		</g>
	</g>
	<path fill="#FFB37B" d="M127.252,88.878c0,0,12.355,1.437,13.217-7.183c0,0,5.747-7.9,0-9.409c-5.747-1.509-12.355-3.375-13.217,0
		l-6.246,14.006L127.252,88.878z"/>
	<g>
		<path fill="#252533" d="M72.733,86.553c8.16,8.483,16.952,17.137,26.876,23.53c6.881,4.433,14.393,5.846,20.947-0.042
			c4.571-4.106,8.086-9.841,11.141-15.144c6.256-10.859-10.535-20.66-16.785-9.811c-2.157,3.743-4.566,7.075-6.795,9.934
			c-0.698,0.895-0.717,0.627-0.628,0.742c-0.333-0.434,4.948-0.756,5.219-0.729c-2.027-0.199,0.346,0.439-0.745-0.228
			c-1.997-1.221-4.594-2.858-5.978-3.93c-6.415-4.963-13.447-11.769-19.505-18.067C77.79,63.773,64.055,77.53,72.733,86.553
			L72.733,86.553z"/>
	</g>
	<g>
		<path fill="#252533" d="M30.585,78.452c3.405,12.829,6.811,25.658,10.216,38.487c3.206,12.08,21.963,6.956,18.745-5.168
			c-3.405-12.829-6.811-25.658-10.216-38.487C46.124,61.204,27.367,66.328,30.585,78.452L30.585,78.452z"/>
	</g>
	<g>
		<path fill="#A29FBF" d="M130.675,41.27c1.386-1.559,2.992-2.727,4.888-3.597c0.895-0.41,1.116-1.704,0.654-2.493
			c-0.537-0.919-1.595-1.066-2.493-0.654c-2.143,0.983-4.059,2.404-5.625,4.167C126.544,40.441,129.113,43.027,130.675,41.27
			L130.675,41.27z"/>
	</g>
</g>
<g id="Business_Research_1_" display="none">
	<g display="inline">
		<g>
			<g>
				<polygon fill-rule="evenodd" clip-rule="evenodd" fill="#E6E6E6" points="83.225,31.366 83.225,31.366 119.2,132.123 
					43.278,159.213 7.324,58.478 				"/>
				<polygon fill-rule="evenodd" clip-rule="evenodd" fill="#CCCCCC" points="30.918,97.432 90.127,76.297 91.164,79.274 
					31.977,100.409 				"/>
				<polygon fill-rule="evenodd" clip-rule="evenodd" fill="#CCCCCC" points="35.812,111.146 95.021,90.011 96.059,92.988 
					36.873,114.123 				"/>
				<polygon fill-rule="evenodd" clip-rule="evenodd" fill="#CCCCCC" points="40.707,124.86 99.915,103.725 100.953,106.681 
					41.767,127.814 				"/>
				<polygon fill-rule="evenodd" clip-rule="evenodd" fill="#CCCCCC" points="45.602,138.573 104.788,117.44 105.848,120.393 
					46.66,141.528 				"/>
				<polygon fill-rule="evenodd" clip-rule="evenodd" fill="#CCCCCC" points="26.023,83.741 85.231,62.606 86.269,65.56 
					27.083,86.695 				"/>
				<polygon fill-rule="evenodd" clip-rule="evenodd" fill="#CCCCCC" points="21.128,70.027 80.337,48.892 81.374,51.847 
					22.187,72.982 				"/>
			</g>
			<g>
				<polygon fill-rule="evenodd" clip-rule="evenodd" fill="#FFFFFF" points="182.267,62.221 182.267,62.221 166.973,176.603 
					80.811,165.076 96.104,50.718 				"/>
				
					<rect x="98.939" y="104.218" transform="matrix(-0.9912 -0.1327 0.1327 -0.9912 250.4624 228.5197)" fill-rule="evenodd" clip-rule="evenodd" fill="#CCCCCC" width="67.816" height="3.39"/>
				
					<rect x="96.862" y="119.781" transform="matrix(-0.9912 -0.1327 0.1327 -0.9912 244.2642 259.2323)" fill-rule="evenodd" clip-rule="evenodd" fill="#CCCCCC" width="67.818" height="3.39"/>
				<polygon fill-rule="evenodd" clip-rule="evenodd" fill="#CCCCCC" points="95.314,130.859 162.508,139.859 162.079,143.219 
					94.862,134.219 				"/>
				
					<rect x="92.712" y="150.908" transform="matrix(-0.9911 -0.1328 0.1328 -0.9911 231.8334 320.6672)" fill-rule="evenodd" clip-rule="evenodd" fill="#CCCCCC" width="67.793" height="3.391"/>
				
					<rect x="101.036" y="88.654" transform="matrix(-0.9912 -0.1327 0.1327 -0.9912 256.6806 197.81)" fill-rule="evenodd" clip-rule="evenodd" fill="#CCCCCC" width="67.794" height="3.393"/>
				
					<rect x="103.113" y="73.09" transform="matrix(-0.9911 -0.1328 0.1328 -0.9911 262.8759 167.0988)" fill-rule="evenodd" clip-rule="evenodd" fill="#CCCCCC" width="67.792" height="3.392"/>
			</g>
		</g>
		<g>
			<path fill-rule="evenodd" clip-rule="evenodd" fill="#363F48" d="M121.87,163.115l19.346,1.993
				c2.895,0.293,5.507-1.825,5.8-4.718l0.845-8.221c0.766-7.409-4.673-14.11-12.083-14.876L132.872,137
				c-7.409-0.766-14.099,4.673-14.864,12.095l-0.845,8.22C116.859,160.209,118.987,162.811,121.87,163.115L121.87,163.115z"/>
			<path fill-rule="evenodd" clip-rule="evenodd" fill="#E8483A" d="M144.831,178.981c0.247-6.678-4.775-12.533-11.509-13.231
				l-3.851-0.394c-6.734-0.699-12.838,4.02-13.964,10.607c4.245,2.241,9.121,3.762,14.369,4.301
				C135.135,180.806,140.214,180.322,144.831,178.981L144.831,178.981z"/>
			<path fill-rule="evenodd" clip-rule="evenodd" fill="#EE7A70" d="M136.78,166.605c-1.081-0.439-2.241-0.732-3.457-0.855
				l-3.851-0.394c-1.217-0.124-2.41-0.08-3.547,0.134l-0.056,0.53c-0.226,2.118,1.34,4.031,3.457,4.256l3.141,0.327
				c2.117,0.214,4.032-1.34,4.256-3.468L136.78,166.605z"/>
			<path fill-rule="evenodd" clip-rule="evenodd" fill="#F7CAA3" d="M129.809,168.88l2.466,0.248
				c1.678,0.168,3.187-1.059,3.356-2.726l0.473-4.572c0.168-1.666-1.058-3.186-2.725-3.355l-2.478-0.248
				c-1.666-0.179-3.175,1.047-3.355,2.725l-0.462,4.572C126.903,167.191,128.131,168.7,129.809,168.88L129.809,168.88z"/>
			<path fill-rule="evenodd" clip-rule="evenodd" fill="#F9D4B4" d="M143.559,148.994c0.135,1.115,0.157,2.274,0.033,3.457
				c-0.732,7.049-6.115,12.274-12.049,11.655c-5.923-0.608-10.135-6.812-9.414-13.862c0.124-1.182,0.383-2.32,0.743-3.378
				c2.838-1.014,6.565-1.43,10.563-1.025C137.432,146.257,140.98,147.417,143.559,148.994L143.559,148.994z"/>
		</g>
		<g>
			<path fill-rule="evenodd" clip-rule="evenodd" fill="#02465D" d="M171.3,120.154c11.39,1.173,19.894,9.361,18.969,18.269
				c-0.925,8.91-10.895,15.202-22.285,14.029c-3.52-0.361-6.744-1.398-9.519-2.91l-11.121,2.415l5.369-6.948
				c-2.684-3.113-4.106-6.902-3.701-10.827C149.917,125.251,159.909,118.981,171.3,120.154L171.3,120.154z"/>
			<polygon fill-rule="evenodd" clip-rule="evenodd" fill="#FFFFFF" points="159.886,127.146 165.999,147.965 209.508,114.56 
				168.841,136.303 			"/>
		</g>
		
			<rect x="117.04" y="39.985" transform="matrix(-0.9908 -0.1355 0.1355 -0.9908 235.2437 109.9858)" fill-rule="evenodd" clip-rule="evenodd" fill="#02465D" width="8.652" height="14.001"/>
		
			<rect x="126.244" y="31.913" transform="matrix(0.9908 0.1356 -0.1356 0.9908 7.1107 -17.2995)" fill-rule="evenodd" clip-rule="evenodd" fill="#3DD4E9" width="8.649" height="23.288"/>
		
			<rect x="135.445" y="23.839" transform="matrix(-0.9908 -0.1355 0.1355 -0.9908 272.8152 98.8271)" fill-rule="evenodd" clip-rule="evenodd" fill="#02465D" width="8.653" height="32.578"/>
		<polygon fill-rule="evenodd" clip-rule="evenodd" fill="#3DD4E9" points="150.418,58.005 141.848,56.853 148.298,9.577 
			156.869,10.75 		"/>
		<polygon fill-rule="evenodd" clip-rule="evenodd" fill="#3DD4E9" points="116.133,53.335 107.562,52.162 108.509,45.238 
			117.08,46.387 		"/>
		
			<rect x="99.143" y="48.767" transform="matrix(-0.9908 -0.1355 0.1355 -0.9908 199.1797 113.9175)" fill-rule="evenodd" clip-rule="evenodd" fill="#02465D" width="8.651" height="2.822"/>
	</g>
	<g display="inline">
		<path fill-rule="evenodd" clip-rule="evenodd" fill="#F99E3F" d="M4.862,114.49l43.953,10.7l43.952,10.7
			c1.498,0.365,2.417,1.875,2.052,3.374l-14.584,59.905c-0.364,1.497-1.875,2.416-3.373,2.051l-43.952-10.7l-43.953-10.7
			c-1.497-0.364-2.418-1.875-2.053-3.372l14.584-59.905C1.853,115.044,3.365,114.126,4.862,114.49L4.862,114.49z"/>
		<path fill-rule="evenodd" clip-rule="evenodd" fill="#E4883A" d="M4.44,113.582L49,124.43l44.559,10.848
			c2.301,0.56,3.729,2.908,3.164,5.23l-4.882,20.056c-0.565,2.322-2.913,3.751-5.214,3.19l-44.559-10.848l-44.56-10.848
			c-2.323-0.566-3.752-2.914-3.186-5.235l4.882-20.056C-0.231,114.445,2.117,113.017,4.44,113.582L4.44,113.582z"/>
		<path fill-rule="evenodd" clip-rule="evenodd" fill="#F99E3F" d="M0.831,120.751l46.319,11.276l46.317,11.276
			c1.346,0.328,2.162,1.697,1.834,3.044l-2.843,11.677c-0.327,1.345-1.677,2.167-3.023,1.839l-46.317-11.276l-46.319-11.276
			c-1.345-0.328-2.188-1.683-1.861-3.028l2.843-11.677C-1.89,121.26-0.514,120.424,0.831,120.751L0.831,120.751z"/>
		<path fill-rule="evenodd" clip-rule="evenodd" fill="#B96F2D" d="M78.953,130.297l-3.039-0.74
			c-1.151-0.28-2.316,0.449-2.596,1.598l-14.541,59.731c-0.28,1.15,0.419,2.332,1.571,2.612l3.039,0.74
			c1.151,0.28,2.338-0.443,2.618-1.593l14.541-59.731C80.826,131.766,80.104,130.577,78.953,130.297L78.953,130.297z M19.7,115.872
			l3.017,0.734c1.173,0.285,1.874,1.468,1.594,2.618L9.769,178.955c-0.28,1.15-1.446,1.878-2.619,1.592l-3.017-0.734
			c-1.172-0.285-1.872-1.468-1.593-2.618l14.541-59.731C17.362,116.315,18.528,115.587,19.7,115.872L19.7,115.872z"/>
		<path fill-rule="evenodd" clip-rule="evenodd" fill="#E6E6E6" d="M8.619,150.811l3.061,0.745l-0.285,1.173
			c-0.048,0.196,0.089,0.39,0.263,0.432l0,0c0.196,0.048,0.406-0.062,0.454-0.257l0.285-1.173l3.06,0.745
			c0.674,0.164,1.1,0.866,0.931,1.56l-1.659,6.814c-0.169,0.695-0.871,1.122-1.544,0.958l-6.837-1.665
			c-0.694-0.169-1.121-0.87-0.951-1.565l1.659-6.814C7.223,151.069,7.925,150.642,8.619,150.811L8.619,150.811z M69.801,163.545
			L69.801,163.545c-0.196-0.048-0.383,0.067-0.431,0.263l-0.169,0.693l-3.777-0.919c-0.847-0.206-1.69,0.324-1.891,1.15
			l-2.019,8.292c-0.201,0.825,0.304,1.682,1.151,1.888l8.269,2.013c0.847,0.206,1.687-0.323,1.888-1.148l2.019-8.292
			c0.201-0.825-0.302-1.683-1.149-1.89l-3.799-0.925l0.169-0.693C70.112,163.781,69.997,163.592,69.801,163.545L69.801,163.545z
			 M78.625,143.829l-8.638-2.103c-1.151-0.28-2.31,0.426-2.59,1.575l-0.116,0.478c-0.28,1.151,0.419,2.332,1.571,2.612l8.638,2.103
			c1.15,0.28,2.337-0.441,2.618-1.593l0.116-0.478C80.503,145.274,79.776,144.109,78.625,143.829L78.625,143.829z M68.959,165.5
			l-0.285,1.173c-0.048,0.196,0.066,0.384,0.262,0.432l0,0c0.196,0.048,0.384-0.067,0.432-0.263l0.285-1.173l3.083,0.751
			c0.673,0.164,1.099,0.865,0.93,1.56l-1.659,6.814c-0.169,0.695-0.871,1.122-1.543,0.958l-6.837-1.665
			c-0.695-0.169-1.122-0.871-0.952-1.565l1.659-6.814c0.169-0.695,0.871-1.122,1.565-0.952L68.959,165.5z M13.772,128.04
			l8.616,2.098c1.172,0.285,1.879,1.445,1.599,2.595l-0.116,0.478c-0.28,1.151-1.446,1.878-2.619,1.592l-8.616-2.098
			c-1.172-0.285-1.873-1.466-1.593-2.618l0.116-0.478C11.439,128.46,12.6,127.755,13.772,128.04L13.772,128.04z M12.523,149.6
			L12.523,149.6c0.196,0.048,0.332,0.241,0.285,0.437l-0.169,0.693l3.777,0.919c0.845,0.206,1.35,1.065,1.149,1.89l-2.019,8.292
			c-0.201,0.825-1.043,1.354-1.889,1.148l-8.27-2.013c-0.846-0.206-1.35-1.063-1.149-1.888l2.019-8.292
			c0.201-0.825,1.043-1.356,1.889-1.15l3.777,0.919l0.169-0.693C12.139,149.667,12.349,149.558,12.523,149.6L12.523,149.6z"/>
		<path fill-rule="evenodd" clip-rule="evenodd" fill="#B96F2D" d="M71.086,125.876l-0.346-0.084l1.659-6.814l-0.022-0.005
			c-7.705-8.867-30.712-14.467-41.651-10.14l0,0l-1.659,6.814l-0.347-0.085c-0.565-0.138-1.132,0.206-1.264,0.749l-0.988,4.059
			c-0.132,0.543,0.213,1.109,0.778,1.246l2.626,0.639c0.543,0.132,1.109-0.212,1.241-0.755l0.988-4.059
			c0.132-0.543-0.212-1.109-0.755-1.241l-0.564-0.137l0.951-3.907c10.564-2.878,30.184,1.898,38.222,9.305l-0.951,3.907
			l-0.543-0.132c-0.564-0.137-1.131,0.206-1.263,0.75l-0.988,4.059c-0.132,0.543,0.213,1.109,0.777,1.246l2.626,0.639
			c0.565,0.138,1.132-0.206,1.264-0.749l0.988-4.059C71.996,126.579,71.651,126.013,71.086,125.876L71.086,125.876z"/>
	</g>
</g>
</svg>
