<?xml version="1.0" encoding="utf-8"?>
<!-- Generator: Adobe Illustrator 17.0.1, SVG Export Plug-In . SVG Version: 6.00 Build 0)  -->
<!DOCTYPE svg PUBLIC "-//W3C//DTD SVG 1.1//EN" "http://www.w3.org/Graphics/SVG/1.1/DTD/svg11.dtd">
<svg version="1.1" id="Слой_1" xmlns="http://www.w3.org/2000/svg" xmlns:xlink="http://www.w3.org/1999/xlink" x="0px" y="0px"
	 width="833.746px" height="872.89px" viewBox="0 0 833.746 872.89" enable-background="new 0 0 833.746 872.89"
	 xml:space="preserve">
<g id="Background_27_">
	<path id="Background_2_1_" fill="none" stroke="#FFCC00" stroke-width="13" stroke-miterlimit="10" d="M818.31,465.623
		c0,218.561-177.179,395.743-395.743,395.743c-218.566,0-395.743-177.182-395.743-395.743S204.001,69.88,422.567,69.88
		C641.131,69.88,818.31,247.063,818.31,465.623z"/>
</g>
<g>
	<g>
		<path fill="#C6C6DB" d="M821.933,748.026l-739.224-0.023c-6.524,0-11.814,5.289-11.814,11.813v0.238
			c0,6.526,5.29,11.815,11.814,11.815l739.209,0.021c6.529,0,11.825-5.288,11.828-11.811v-0.24
			C833.75,753.316,828.461,748.027,821.933,748.026"/>
		<path fill="#FFB37B" d="M531.159,180.918c0,0-4.262-0.882-9.444-3.066c-5.133-2.165-9.474,4.255-0.538,7.834
			c2.856,1.144,5.275,2.003,7.387,2.518c-3.473,1.763-8.682,4.856-8.07,7.29c1.547,6.16,8.598,2.806,13.654-1.902
			c3.771-3.509,6.16-9.048,7.568-12.298c0.371-0.732,0.741-1.505,1.115-2.36c5.387-12.325-12.32-20.286-16.798-17.467
			c-6.978,4.392,9.301,10.432,9.301,10.432s-11.755-7.633-15.324-2.584C517.201,173.29,527.268,178.929,531.159,180.918"/>
		<path fill="#FFFFFF" d="M535.722,194.091l-0.001-0.113c-0.064-7.216,2.529-14.203,7.287-19.628l1.132-1.291l10.474,4.192
			l-8.418,21.032L535.722,194.091z"/>
		<path fill="#252533" d="M541.672,200.084l-0.126-1.281c-0.965-9.81,2.966-19.466,10.508-25.813l0.122-0.103l41.647,2.259
			l24.408-16.062c7.34-3.104,15.808,0.33,18.913,7.67l0.114,0.269c3.104,7.341-0.329,15.809-7.671,18.914l-29.75,18.321
			c-3.539,1.496-7.521,1.559-11.106,0.175L541.672,200.084z"/>
		<path fill="#824431" d="M700.587,751.192L638,360.525c-0.31-1.937-2.132-3.506-4.067-3.506h-17.625
			c-1.937,0-3.255,1.569-2.945,3.506l62.587,390.667c0.31,1.937,2.131,3.506,4.068,3.506h17.625
			C699.579,754.698,700.898,753.129,700.587,751.192"/>
		<path fill="#A05F48" d="M706.453,751.192l-62.587-390.667c-0.31-1.937-2.132-3.506-4.068-3.506h-17.624
			c-1.937,0-3.255,1.569-2.945,3.506l62.587,390.667c0.31,1.937,2.131,3.506,4.068,3.506h17.625
			C705.445,754.698,706.764,753.129,706.453,751.192"/>
		<path fill="#A05F48" d="M679.699,584.193l-35.833-223.668c-0.311-1.936-2.132-3.506-4.068-3.506h-17.624
			c-1.937,0-3.255,1.57-2.945,3.506l35.832,223.668c0.311,1.937,2.132,3.507,4.069,3.507h17.625
			C678.691,587.7,680.01,586.13,679.699,584.193"/>
		<path fill="#E8C5AF" d="M522.78,755.838l63.324-395.271c0.314-1.959,2.156-3.548,4.116-3.548h17.832
			c1.959,0,3.293,1.589,2.98,3.548l-63.325,395.271c-0.314,1.96-2.156,3.548-4.116,3.548h-17.832
			C523.8,759.386,522.466,757.798,522.78,755.838"/>
		<path fill="#BC7455" d="M528.06,755.838l63.325-395.271c0.314-1.959,2.156-3.548,4.116-3.548h17.832
			c1.959,0,3.293,1.589,2.98,3.548l-63.325,395.271c-0.314,1.96-2.157,3.548-4.116,3.548h-17.833
			C529.081,759.386,527.746,757.798,528.06,755.838"/>
		<path fill="#C4A48D" d="M555.129,586.871l36.256-226.305c0.313-1.959,2.156-3.547,4.116-3.547h17.832
			c1.959,0,3.293,1.588,2.98,3.547l-36.256,226.305c-0.314,1.96-2.157,3.548-4.116,3.548h-17.833
			C556.15,590.419,554.816,588.831,555.129,586.871"/>
		<path fill="#535A66" d="M609.815,369.827c0,2.219-1.799,4.018-4.018,4.018c-2.218,0-4.017-1.799-4.017-4.018
			c0-2.219,1.799-4.018,4.017-4.018C608.016,365.809,609.815,367.608,609.815,369.827"/>
		<path fill="#6B7789" d="M609.815,369.827c0,1.6-1.297,2.896-2.896,2.896c-1.6,0-2.896-1.296-2.896-2.896
			c0-1.599,1.296-2.896,2.896-2.896C608.518,366.931,609.815,368.228,609.815,369.827"/>
		<path fill="#535A66" d="M635.379,371.249c0,2.465-1.998,4.463-4.463,4.463c-2.465,0-4.463-1.998-4.463-4.463
			c0-2.465,1.998-4.463,4.463-4.463C633.381,366.786,635.379,368.784,635.379,371.249"/>
		<path fill="#6B7789" d="M635.379,371.249c0,1.777-1.44,3.217-3.217,3.217c-1.777,0-3.218-1.44-3.218-3.217
			c0-1.777,1.441-3.217,3.218-3.217C633.939,368.032,635.379,369.472,635.379,371.249"/>
		<path fill="#7C392E" d="M751.725,414.087l-3.367-3.461l-7.735,1.29l1.056,1.277H603.055c-1.587,0-2.94,0.762-3.195,1.799
			l-3.002,12.208l-3.686,1.167l3.383,3.456l0.025-0.004c0.573,0.585,1.552,0.987,2.706,0.987h146.06c1.587,0,2.94-0.762,3.195-1.798
			l3.769-15.327C752.455,415.09,752.208,414.529,751.725,414.087"/>
		<path fill="#EDAF85" d="M748.709,412.251l-3.76,15.33c-0.25,1.04-1.6,1.8-3.179,1.8H596.099c-1.99,0-3.51-1.191-3.19-2.49
			l3.76-15.329c0.25-1.031,1.6-1.801,3.18-1.801h145.68C747.52,409.761,749.029,410.951,748.709,412.251"/>
		<path fill="#BC7455" d="M756.419,412.251l-3.76,15.33c-0.15,0.609-0.679,1.13-1.41,1.44c-0.51,0.23-1.12,0.36-1.769,0.36h-49.381
			c-1.99,0-3.51-1.191-3.19-2.49l3.76-15.329c0.25-1.031,1.601-1.801,3.18-1.801h49.39
			C755.23,409.761,756.739,410.951,756.419,412.251"/>
		<path fill="#7C392E" d="M685.618,512.561l-2.229-3.461l-5.121,1.29l0.699,1.277h-91.772c-1.051,0-1.946,0.762-2.115,1.798
			l-1.987,12.208l-2.441,1.168l2.24,3.456l0.016-0.004c0.379,0.585,1.028,0.987,1.791,0.987h96.695c1.051,0,1.947-0.762,2.116-1.799
			l2.495-15.326C686.101,513.564,685.938,513.003,685.618,512.561"/>
		<path fill="#EDAF85" d="M683.799,510.731l-2.5,15.319c-0.17,1.04-1.06,1.8-2.109,1.8h-96.701c-1.32,0-2.33-1.18-2.11-2.489
			l2.49-15.32c0.17-1.04,1.06-1.8,2.12-1.8h96.69C682.999,508.241,684.009,509.42,683.799,510.731"/>
		<path fill="#96543C" d="M670.822,596.204l-2.229-3.461l-5.121,1.29l0.699,1.277h-91.772c-1.051,0-1.946,0.762-2.115,1.798
			l-1.987,12.208l-2.441,1.168l2.24,3.456l0.016-0.004c0.379,0.585,1.028,0.987,1.791,0.987h96.695c1.051,0,1.947-0.762,2.116-1.799
			l2.495-15.326C671.305,597.207,671.142,596.646,670.822,596.204"/>
		<path fill="#EDAF85" d="M664.389,611.495h-96.695c-1.322,0-2.327-1.184-2.116-2.487l2.496-15.327
			c0.169-1.038,1.064-1.799,2.115-1.799h96.695c1.32,0,2.327,1.183,2.115,2.487l-2.495,15.327
			C666.335,610.733,665.44,611.495,664.389,611.495"/>
		<path fill="#96543C" d="M658.303,691.678l-2.229-3.462l-5.121,1.29l0.7,1.277H559.88c-1.051,0-1.946,0.762-2.115,1.799
			l-1.987,12.208l-2.441,1.167l2.24,3.456l0.017-0.004c0.379,0.585,1.027,0.988,1.791,0.988h96.695c1.05,0,1.946-0.762,2.116-1.799
			l2.495-15.327C658.786,692.68,658.623,692.12,658.303,691.678"/>
		<path fill="#EDAF85" d="M651.869,706.968h-96.695c-1.321,0-2.327-1.184-2.116-2.487l2.496-15.327
			c0.169-1.037,1.065-1.798,2.115-1.798h96.695c1.321,0,2.327,1.183,2.115,2.487l-2.495,15.326
			C653.815,706.206,652.92,706.968,651.869,706.968"/>
		<path fill="#7C392E" d="M751.249,429.02c-0.51,0.23-1.12,0.36-1.77,0.36h-22.87l-3.14-19.62h24.7L751.249,429.02z"/>
		<path fill="#323244" d="M632.748,386.265h17.482c2.333,0,4.25,1.853,4.342,4.196l-0.341,15.351
			c0.097,2.477-1.875,4.539-4.341,4.539h-17.741c-2.465,0-4.437-2.062-4.34-4.539l0.598-15.351
			C628.498,388.118,630.415,386.265,632.748,386.265"/>
		<path fill="#323244" d="M648.307,402.448h-35.503c-1.742,0-3.153,1.42-3.153,3.171v0.549c0,1.751,1.411,3.17,3.153,3.17h35.503
			c1.741,0,3.153-1.419,3.153-3.17v-0.549C651.46,403.868,650.048,402.448,648.307,402.448"/>
		<path fill="#323244" d="M608.913,406.246v-1.227c0-8.617,6.948-15.602,15.52-15.602h3.701c8.57,0,15.518,6.985,15.518,15.602
			v1.227H608.913z"/>
		<path fill="#323244" d="M614.017,397.832c0,4.167,5.279,4.712,11.792,4.712c6.512,0,11.791-0.545,11.791-4.712
			c0-4.167-5.279-7.545-11.791-7.545C619.296,390.287,614.017,393.665,614.017,397.832"/>
		<path fill="#323244" d="M616.72,395.584c0.848-0.668,1.767-1.248,2.742-1.729"/>
		<path fill="#323244" d="M617.553,396.416c0.774-0.602,1.628-1.105,2.503-1.544c0.569-0.284,0.728-1.088,0.423-1.61
			c-0.339-0.579-1.04-0.708-1.612-0.423c-1.065,0.533-2.04,1.181-2.979,1.912c-0.503,0.391-0.41,1.255,0,1.665
			C616.383,396.912,617.049,396.808,617.553,396.416"/>
		<path fill="#323244" d="M654.028,410.351h-44.273c-0.465,0-0.842-0.411-0.842-0.918v-2.622c0-0.507,0.377-0.918,0.842-0.918
			h44.273c0.465,0,0.841,0.411,0.841,0.918v2.622C654.869,409.94,654.493,410.351,654.028,410.351"/>
		<path fill="#323244" d="M677.375,386.265h17.481c2.334,0,4.251,1.853,4.342,4.196l-0.341,15.351
			c0.097,2.477-1.875,4.539-4.34,4.539h-17.741c-2.466,0-4.438-2.062-4.341-4.539l0.598-15.351
			C673.125,388.118,675.041,386.265,677.375,386.265"/>
		<path fill="#323244" d="M692.933,402.448h-35.502c-1.742,0-3.154,1.42-3.154,3.171v0.549c0,1.751,1.412,3.17,3.154,3.17h35.502
			c1.742,0,3.153-1.419,3.153-3.17v-0.549C696.086,403.868,694.675,402.448,692.933,402.448"/>
		<path fill="#323244" d="M653.54,406.246v-1.227c0-8.617,6.948-15.602,15.52-15.602h3.7c8.571,0,15.519,6.985,15.519,15.602v1.227
			H653.54z"/>
		<path fill="#323244" d="M658.643,397.832c0,4.167,5.279,4.712,11.791,4.712c6.513,0,11.792-0.545,11.792-4.712
			c0-4.167-5.279-7.545-11.792-7.545C663.922,390.287,658.643,393.665,658.643,397.832"/>
		<path fill="#323244" d="M661.347,395.584c0.848-0.668,1.766-1.248,2.742-1.729"/>
		<path fill="#323244" d="M662.179,396.416c0.774-0.602,1.628-1.105,2.504-1.544c0.568-0.284,0.728-1.088,0.423-1.61
			c-0.339-0.579-1.041-0.708-1.612-0.423c-1.066,0.533-2.04,1.181-2.98,1.912c-0.502,0.391-0.41,1.255,0,1.665
			C661.01,396.912,661.675,396.808,662.179,396.416"/>
		<path fill="#323244" d="M698.654,410.351h-44.272c-0.465,0-0.842-0.411-0.842-0.918v-2.622c0-0.507,0.377-0.918,0.842-0.918
			h44.272c0.465,0,0.842,0.411,0.842,0.918v2.622C699.496,409.94,699.119,410.351,698.654,410.351"/>
		<path fill="#491C15" d="M632.748,386.265h17.482c2.333,0,4.25,1.853,4.342,4.196l-0.341,15.351
			c0.097,2.477-1.875,4.539-4.341,4.539h-17.741c-2.465,0-4.437-2.062-4.34-4.539l0.598-15.351
			C628.498,388.118,630.415,386.265,632.748,386.265"/>
		<path fill="#6B2A18" d="M648.307,402.448h-35.503c-1.742,0-3.153,1.42-3.153,3.171v0.549c0,1.751,1.411,3.17,3.153,3.17h35.503
			c1.741,0,3.153-1.419,3.153-3.17v-0.549C651.46,403.868,650.048,402.448,648.307,402.448"/>
		<path fill="#6B2A18" d="M608.913,406.246v-1.227c0-8.617,6.948-15.602,15.52-15.602h3.701c8.57,0,15.518,6.985,15.518,15.602
			v1.227H608.913z"/>
		<path fill="#843621" d="M614.017,397.832c0,4.167,5.279,4.712,11.792,4.712c6.512,0,11.791-0.545,11.791-4.712
			c0-4.167-5.279-7.545-11.791-7.545C619.296,390.287,614.017,393.665,614.017,397.832"/>
		<path fill="#FCFBFB" d="M616.72,395.584c0.848-0.668,1.767-1.248,2.742-1.729"/>
		<path fill="#FCFBFB" d="M617.553,396.416c0.774-0.602,1.628-1.105,2.503-1.544c0.569-0.284,0.728-1.088,0.423-1.61
			c-0.339-0.579-1.04-0.708-1.612-0.423c-1.065,0.533-2.04,1.181-2.979,1.912c-0.503,0.391-0.41,1.255,0,1.665
			C616.383,396.912,617.049,396.808,617.553,396.416"/>
		<path fill="#4D1C14" d="M654.028,410.351h-44.273c-0.465,0-0.842-0.411-0.842-0.918v-2.622c0-0.507,0.377-0.918,0.842-0.918
			h44.273c0.465,0,0.841,0.411,0.841,0.918v2.622C654.869,409.94,654.493,410.351,654.028,410.351"/>
		<path fill="#491C15" d="M677.375,386.265h17.481c2.334,0,4.251,1.853,4.342,4.196l-0.341,15.351
			c0.097,2.477-1.875,4.539-4.34,4.539h-17.741c-2.466,0-4.438-2.062-4.341-4.539l0.598-15.351
			C673.125,388.118,675.041,386.265,677.375,386.265"/>
		<path fill="#6B2A18" d="M692.933,402.448h-35.502c-1.742,0-3.154,1.42-3.154,3.171v0.549c0,1.751,1.412,3.17,3.154,3.17h35.502
			c1.742,0,3.153-1.419,3.153-3.17v-0.549C696.086,403.868,694.675,402.448,692.933,402.448"/>
		<path fill="#6B2A18" d="M653.54,406.246v-1.227c0-8.617,6.948-15.602,15.52-15.602h3.7c8.571,0,15.519,6.985,15.519,15.602v1.227
			H653.54z"/>
		<path fill="#843621" d="M658.643,397.832c0,4.167,5.279,4.712,11.791,4.712c6.513,0,11.792-0.545,11.792-4.712
			c0-4.167-5.279-7.545-11.792-7.545C663.922,390.287,658.643,393.665,658.643,397.832"/>
		<path fill="#FCFBFB" d="M661.347,395.584c0.848-0.668,1.766-1.248,2.742-1.729"/>
		<path fill="#FCFBFB" d="M662.179,396.416c0.774-0.602,1.628-1.105,2.504-1.544c0.568-0.284,0.728-1.088,0.423-1.61
			c-0.339-0.579-1.041-0.708-1.612-0.423c-1.066,0.533-2.04,1.181-2.98,1.912c-0.502,0.391-0.41,1.255,0,1.665
			C661.01,396.912,661.675,396.808,662.179,396.416"/>
		<path fill="#4D1C14" d="M698.654,410.351h-44.272c-0.465,0-0.842-0.411-0.842-0.918v-2.622c0-0.507,0.377-0.918,0.842-0.918
			h44.272c0.465,0,0.842,0.411,0.842,0.918v2.622C699.496,409.94,699.119,410.351,698.654,410.351"/>
		<path fill="#323244" d="M622.776,170.965c0.573,7.605,15.811,12.655,34.033,11.28c18.222-1.376,32.53-8.656,31.955-16.261
			c-0.574-7.605-15.812-12.656-34.034-11.28C636.508,156.079,622.202,163.36,622.776,170.965"/>
		<polygon fill="#252533" points="670.388,387.265 670.34,284.101 657.718,284.101 657.379,387.265 628.409,386.905 
			629.091,262.709 698.909,262.709 699.084,386.905 		"/>
		<polygon fill="#131516" points="698.9,265.531 629.082,265.531 628.871,311.117 657.629,311.117 657.709,293.726 670.331,293.726 
			670.351,311.117 698.93,311.117 		"/>
		<path fill="#252533" d="M654.572,151.454c45.068-3.402,41.456,23.239,41.456,23.239l7.716,102.204l-0.636,0.281
			c-24.44,10.789-51.78,12.82-77.548,5.762l-0.401-0.11l-7.707-102.097C617.452,180.733,609.505,154.856,654.572,151.454"/>
		<polygon fill="#FFFFFF" points="675.08,156.012 659.186,212.58 634.809,159.052 		"/>
		<path fill="#AFA2A0" d="M635.361,165.128l0.208-0.114c12.17-6.64,26.846-7.746,39.873-3.003l0.208,0.075l-4.392,15.465
			l-15.382-9.045l-13.852,11.252L635.361,165.128z"/>
		<polygon fill="#070404" points="654.215,201.627 659.205,212.583 662.458,201.002 654.962,157.534 		"/>
		<path fill="#070404" d="M656.248,173.187l-0.069,0.005c-2.04,0.154-3.932-0.97-4.649-2.761l-2.844-7.115
			c-1.08-2.701,0.921-5.642,3.997-5.874l4.657-0.352c3.075-0.232,5.495,2.376,4.833,5.208l-1.744,7.461
			C659.99,171.638,658.288,173.033,656.248,173.187"/>
		<path fill="#FFFFFF" d="M634.808,159.052l0.208-0.113c12.17-6.641,26.845-7.747,39.872-3.004l0.209,0.076l-4.392,15.464
			l-15.298-7.923l-13.937,10.13L634.808,159.052z"/>
		<polygon fill="#131516" points="659.332,216.583 634.675,159.606 620.602,166.683 630.21,177.015 636.115,178.686 
			634.247,186.129 		"/>
		<polygon fill="#131516" points="659.332,216.585 675.155,156.553 690.071,160.638 682.183,173.094 676.596,175.633 
			679.561,182.711 		"/>
		<polygon fill="#323244" points="659.205,212.583 634.548,155.606 620.475,162.683 630.083,173.015 635.988,174.686 
			634.12,182.129 		"/>
		<polygon fill="#323244" points="659.205,212.585 675.028,152.553 689.944,156.638 682.056,169.094 676.469,171.633 
			679.434,178.711 		"/>
		<path fill="#15151E" d="M658.23,215.269c1.583,23.844,3.167,47.688,4.75,71.532c0.099,1.481,2.419,1.492,2.319,0
			c-1.583-23.844-3.167-47.688-4.75-71.532C660.451,213.788,658.13,213.776,658.23,215.269"/>
		<path fill="#131516" d="M696.225,177.634c0,0,1.002-7.201-4.585-13.542c-5.279-0.573-10.678,1.772-13.729,6.528l-18.096,38.799
			l-39.432,9.349l2.221,29.268l49.6-11.76c3.736-0.886,6.978-3.181,9.044-6.401l16.382-33.713L696.225,177.634z"/>
		<path fill="#B25000" d="M690.81,130.453c0,0,17.483-48.975,0.43-55.753c-6.446-21.912-41.267-20.951-54.372-17.693
			c-15.667,3.894-31.62,24.863-18.384,43.251L690.81,130.453z"/>
		<path fill="#FF9E5C" d="M645.387,155.487c0.326,4.321,4.093,7.559,8.414,7.233l1.955-0.148c4.321-0.326,7.56-4.093,7.234-8.414
			l-1.002-13.272c-0.327-4.32-4.094-7.558-8.414-7.232l-1.957,0.147c-4.32,0.327-7.558,4.094-7.232,8.414L645.387,155.487z"/>
		<path fill="#FFB37B" d="M642.446,73.731l22.373,0.122c14.523,0.079,26.231,12.459,26.148,27.651l-0.036,6.543
			c0,0.071,0.059,0.125,0.126,0.116c0.453-0.063,0.913-0.105,1.384-0.102l0.261,0.001c5.719,0.031,10.328,4.905,10.296,10.888
			l-0.002,0.218c-0.032,5.978-4.691,10.798-10.404,10.767l-0.27-0.001c-0.48-0.003-0.95-0.051-1.412-0.122
			c-0.065-0.01-0.122,0.04-0.125,0.108c-0.624,14.623-12.186,26.244-26.3,26.167l-22.487-0.123
			c-14.523-0.078-26.23-12.459-26.147-27.651l0.148-27.216C616.082,85.904,627.923,73.652,642.446,73.731"/>
		<path fill="#131516" d="M656.864,114.824c-0.011,1.911,1.103,3.466,2.486,3.473s2.513-1.535,2.523-3.446
			c0.011-1.91-1.103-3.465-2.486-3.473C658.005,111.37,656.875,112.913,656.864,114.824"/>
		<path fill="#131516" d="M628.715,114.671c-0.011,1.911,1.103,3.466,2.485,3.473c1.384,0.008,2.514-1.535,2.524-3.446
			c0.011-1.91-1.103-3.465-2.486-3.473C629.856,111.218,628.726,112.76,628.715,114.671"/>
		<path fill="#774320" d="M627.471,104.538c1.551-3.73,5.484-5.075,8.766-2.422c0.966,0.781,2.353-0.59,1.378-1.378
			c-4.47-3.614-9.879-1.875-12.023,3.282C625.112,105.177,626.996,105.681,627.471,104.538"/>
		<path fill="#774320" d="M665.486,103.671c-3.072-5.066-9.447-6.452-14.271-2.915c-1.102,0.809-0.033,2.672,1.083,1.853
			c3.87-2.837,8.831-1.983,11.334,2.145C664.348,105.933,666.205,104.856,665.486,103.671"/>
		<path fill="#B25000" d="M627.09,66.336c2.832,1.148,5.024,1.633,6.928,1.715c0.447-1.906,1.882-3.553,4.339-3.622
			c4.187-0.117,8.377-0.04,12.566,0.03c3.303-0.299,7.438-0.241,12.86,0.502c0.321,0.04,0.641,0.083,0.959,0.13
			c0.038,0.006,0.072,0.009,0.11,0.015c0.019,0.003,0.036,0.008,0.055,0.011c5.396,0.821,10.45,2.665,15.099,6.527
			c7.789,6.468,11.597,16.195,11.541,26.458c-0.033,6.23-0.067,12.459-0.102,18.688c-0.034,6.191-9.209,6.141-9.176-0.05
			c0.044-8.067,1.143-17.425-0.783-25.479c-4.745-9.247-16.088-8.52-36.799-8.633C615.681,82.471,627.09,66.336,627.09,66.336"/>
		<path fill="#96543C" d="M810.523,752.185l-62.744-391.651c-0.312-1.942-2.138-3.516-4.079-3.516h-17.669
			c-1.942,0-3.263,1.574-2.951,3.516l62.744,391.651c0.311,1.941,2.137,3.515,4.078,3.515h17.669
			C809.512,755.7,810.835,754.126,810.523,752.185"/>
		<path fill="#BC7455" d="M816.404,752.185L753.66,360.534c-0.312-1.942-2.138-3.516-4.078-3.516h-17.67
			c-1.942,0-3.263,1.574-2.951,3.516l62.744,391.651c0.31,1.941,2.137,3.515,4.078,3.515h17.669
			C815.393,755.7,816.716,754.126,816.404,752.185"/>
		<path fill="#DB9775" d="M789.583,584.766L753.66,360.534c-0.311-1.942-2.138-3.516-4.078-3.516h-17.67
			c-1.941,0-3.263,1.574-2.951,3.516l35.923,224.232c0.31,1.941,2.137,3.515,4.078,3.515h17.669
			C788.572,588.281,789.894,586.707,789.583,584.766"/>
		<path fill="#F7BB92" d="M632.19,755.838l63.325-395.271c0.314-1.959,2.156-3.548,4.115-3.548h17.833
			c1.959,0,3.293,1.589,2.98,3.548l-63.325,395.271c-0.314,1.96-2.157,3.548-4.116,3.548h-17.833
			C633.211,759.386,631.877,757.798,632.19,755.838"/>
		<path fill="#BC7455" d="M637.471,755.838l63.325-395.271c0.314-1.959,2.156-3.548,4.115-3.548h17.833
			c1.959,0,3.293,1.589,2.979,3.548l-63.324,395.271c-0.314,1.96-2.157,3.548-4.116,3.548H640.45
			C638.492,759.386,637.158,757.798,637.471,755.838"/>
		<path fill="#DB9775" d="M664.54,586.871l36.256-226.305c0.313-1.959,2.156-3.547,4.115-3.547h17.833
			c1.959,0,3.293,1.588,2.979,3.547l-36.255,226.305c-0.314,1.96-2.157,3.548-4.116,3.548h-17.833
			C665.561,590.419,664.227,588.831,664.54,586.871"/>
		<path fill="#535A66" d="M718.587,369.827c0,2.219-1.798,4.018-4.018,4.018c-2.217,0-4.016-1.799-4.016-4.018
			c0-2.219,1.799-4.018,4.016-4.018C716.789,365.809,718.587,367.608,718.587,369.827"/>
		<path fill="#535A66" d="M718.587,369.827c0,1.6-1.296,2.896-2.896,2.896c-1.599,0-2.895-1.296-2.895-2.896
			c0-1.599,1.296-2.896,2.895-2.896C717.291,366.931,718.587,368.228,718.587,369.827"/>
		<path fill="#535A66" d="M743.774,371.284c0,2.472-2.004,4.475-4.475,4.475s-4.474-2.003-4.474-4.475
			c0-2.471,2.003-4.474,4.474-4.474S743.774,368.813,743.774,371.284"/>
		<path fill="#6B7789" d="M743.774,371.284c0,1.782-1.444,3.226-3.226,3.226c-1.781,0-3.225-1.444-3.225-3.226
			c0-1.781,1.444-3.225,3.225-3.225C742.33,368.059,743.774,369.503,743.774,371.284"/>
		<polygon fill="#A81000" points="443.947,109.109 435.866,133.355 435.866,334.251 443.947,316.251 		"/>
		<polygon fill="#8E1C1C" points="628.393,334.545 429.83,334.545 429.83,314.505 636.842,314.503 		"/>
		<path fill="#FF2424" d="M636.839,316.001H429.83v-206.89c85.989,0,159.849,52.46,191.069,127.13
			c5.27,12.59,9.33,25.82,12.03,39.53C635.499,288.781,636.839,302.231,636.839,316.001"/>
		<path fill="#FFFFFF" d="M429.83,275.494v-48.491c49.074,0,89.116,39.925,89.116,88.999h-48.491
			C470.455,293.666,452.166,275.494,429.83,275.494"/>
		<path fill="#FFFFFF" d="M429.83,179.372v-48.491c49.447,0,96.053,19.256,131.018,54.22c34.964,34.965,54.22,81.453,54.22,130.9
			h-48.491C566.577,240.664,505.168,179.372,429.83,179.372"/>
		<g opacity="0.44">
			<g>
				<defs>
					<rect id="SVGID_1_" x="590.44" y="236.241" width="42.489" height="39.53"/>
				</defs>
				<clipPath id="SVGID_2_">
					<use xlink:href="#SVGID_1_"  overflow="visible"/>
				</clipPath>
				<path clip-path="url(#SVGID_2_)" fill="#5B0000" d="M632.929,275.771c-24.14-8.1-41.77-25.63-42.43-30.02
					c-0.78-5.13,6.391-3.52,10.281-6.11l2.139-1.3l17.98-2.1C626.169,248.831,630.229,262.061,632.929,275.771"/>
			</g>
		</g>
		<path fill="#FFB37B" d="M601.222,231.197c0,0-4.312-0.583-9.926-0.242c-5.56,0.338-7.523-7.159,2.093-7.569
			c3.075-0.131,5.641-0.138,7.805,0.077c-2.692-2.816-6.578-7.463-5.194-9.556c3.504-5.296,9.043,0.207,12.25,6.327
			c2.391,4.563,2.807,10.58,3.056,14.113c0.106,0.813,0.199,1.666,0.269,2.597c0.989,13.414-18.356,15.045-21.644,10.899
			c-5.124-6.458,12.235-6.752,12.235-6.752s-13.622,3.298-15.312-2.65C585.524,233.759,596.892,231.782,601.222,231.197"/>
		<path fill="#FFFFFF" d="M612.319,240.082l-0.064-0.093c-4.143-5.908-5.965-13.135-5.121-20.302l0.202-1.704l11.004-2.482
			l4.984,22.099L612.319,240.082z"/>
		<path fill="#252533" d="M620.618,241.647l-0.83-0.984c-6.354-7.536-8.587-17.719-5.971-27.223l0.042-0.153l45.457-10.832
			l18.113-39.029c4.288-6.718,13.211-8.688,19.929-4.399l0.246,0.157c6.718,4.288,8.688,13.212,4.399,19.93l-21.234,43.918
			c-2.068,3.239-5.313,5.548-9.051,6.439L620.618,241.647z"/>
		<path fill="#FFFFFF" d="M635.004,129.641c0.023,6.366,5.203,11.507,11.569,11.484c6.366-0.024,11.507-5.204,11.484-11.569
			L635.004,129.641z"/>
		<polygon fill="#C2B6D3" points="561.016,335.6 607.546,335.6 615.157,315.56 566.716,315.56 		"/>
		<polygon fill="#C2B6D3" points="464.85,335.6 511.38,335.6 518.99,315.56 470.55,315.56 		"/>
		<path fill="#7C392E" d="M657.359,409.76c-0.61,6.64-1.53,14.181-2.75,20.62h-58.511c-1.989,0-3.51-1.189-3.189-2.49l3.76-15.329
			c0.25-1.03,1.599-2.801,3.179-2.801H657.359z"/>
		<polyline fill="#A81000" points="435.748,564.551 443.83,559.937 443.83,333.002 435.748,357.247 		"/>
		<path fill="#8E1C1C" d="M429.83,564.551c114.265,0,206.896-92.631,206.896-206.896V333.41H429.83V564.551z"/>
		<path fill="#7C392E" d="M584.989,508.241h36.6c-4.741,6.85-9.88,13.39-15.39,19.609h-23.71c-1.32,0-2.33-1.179-2.11-2.489
			l2.49-15.32C583.039,509.001,583.928,508.241,584.989,508.241"/>
		<path fill="#FF2424" d="M429.83,539.897c114.265,0,206.896-92.63,206.896-206.895H429.83V539.897z"/>
		<path fill="#FFFFFF" d="M429.83,373.51v48.491c49.074,0,88.999-39.925,88.999-88.999h-48.491
			C470.338,355.338,452.166,373.51,429.83,373.51"/>
		<path fill="#FFFFFF" d="M429.83,469.632v48.49c49.447,0,95.936-19.256,130.9-54.219c34.964-34.965,54.221-81.454,54.221-130.901
			H566.46C566.46,408.34,505.168,469.632,429.83,469.632"/>
		<path fill="#C4B8B5" d="M542.385,747.068c0,0-2.512-11.606,18.309-20.668l9.013,8.9l-13.45,17.387L542.385,747.068z"/>
		<path fill="#C4B8B5" d="M447.775,747.822c0,0,0-11.875,22.266-16.328l6.927,10.604l-16.823,14.15L447.775,747.822z"/>
		<path fill="#491C15" d="M564.479,736.632h-17.567c-2.345,0-4.272,1.862-4.364,4.218l0.343,15.426
			c-0.098,2.49,1.884,4.561,4.362,4.561h17.828c2.478,0,4.46-2.071,4.363-4.561l-0.602-15.426
			C568.75,738.494,566.824,736.632,564.479,736.632"/>
		<path fill="#252533" d="M491.893,574.862c6.646-3.245,1.065-0.542-0.444,0.147c-3.048,1.392-6.141,2.68-9.256,3.915
			c-3.147,1.248-6.349,2.342-9.588,3.327c0.084-0.026,0.919,2.742,3.677,2.215c-1.15,0.219-6.321-0.006-2.16,0.517
			c0.726,0.091,5.186,3.057,2.685,1.086c-1.069-0.844-2.027-1.838-2.989-2.798c-2.231-2.224-3.207-3.547-5.724-6.805
			c-2.555-3.307-4.997-6.717-7.316-10.194c-5.624-8.43-13.226-5.131-19.448-0.354c-5.54,4.25-10.401,9.105-5.391,16.614
			c7.889,11.824,17.719,27.463,32.118,31.513c8.812,2.477,13.855-3.335,22.007-6.366c6.183-2.298,12.166-5.086,18.089-7.978
			c7.285-3.558,8.303-14.418,4.29-20.55C507.598,571.752,499.157,571.315,491.893,574.862"/>
		<path fill="#FFFFFF" d="M455.258,561.472c1.944,2.941,2.709,6.735-4.595,11.778c-7,4.833-12.169,3.525-14.112,0.583
			c-1.943-2.94,0.669-8.092,5.835-11.506C447.552,558.913,453.315,558.531,455.258,561.472"/>
		<path fill="#FF9E5C" d="M422.92,562.217c0,0-3.57-8.889,3.647-10.552c7.218-1.664,11.191,16.757,11.191,16.757L422.92,562.217z"/>
		<path fill="#FFB37B" d="M453.663,562.251c-0.194,10.063-29.5,14.5-31.658,2.2c-1.053-6-1.227-10.883,4.825-13.2
			c4.661-1.785,0.808,10.329,5.381,10.395c0,0-5.681-11.306-0.283-13.753c5.398-2.448,7.12,5.205,7.068,8.19l2.833,4.856
			C441.829,560.939,453.767,556.853,453.663,562.251"/>
		<path fill="#252533" d="M581.167,679.682c-16.926-12.165-45.172-22.26-51.333-24.384c-1.978-0.943-4.183-1.487-6.521-1.487
			h-48.159c-8.381,0-15.174,6.793-15.174,15.173c0,4.661,2.107,8.828,5.415,11.611c8.058,13.204,16.081,27.849,18.159,34
			c-3.803,5.025-27.198,16.136-27.198,16.136c-2.962,18.865,15.156,25.516,15.156,25.516c0.479-0.195,11.871-4.853,23.388-11.675
			c12.341-7.309,18.835-12.998,18.715-29.513c-0.044-6.235-3.997-16.601-11.74-30.901h20.554
			c9.205,3.278,27.026,10.333,38.513,17.672l-16.195,31.831c8.42,19.026,28.581,10.86,28.581,10.86l14.033-28.701
			C595.425,704.145,592.646,687.934,581.167,679.682"/>
		<path fill="#131516" d="M560.549,701.271l-23.612-35.622l-72.23-7.553c-2.752,2.747-4.455,6.543-4.455,10.739
			c0,4.662,2.107,8.828,5.414,11.611c3.936,6.448,11.087,19.211,11.087,19.211c16.481-13.556,31.03-3.928,31.03-3.928l-6.03-11.72
			h0.395h20.16h0.393C531.734,687.226,549.049,694.08,560.549,701.271"/>
		<path fill="#252533" d="M537.058,665.798l25.597-63.813c2.411-6.011,1.153-12.958-3.42-17.545
			c-10.363-10.394-29.936-11.766-44.523-11.09c-10.921,0.506-20.548,7.307-24.587,17.467l-28.106,70.696
			C462.019,661.513,499.84,696.709,537.058,665.798"/>
		<path fill="#323244" d="M547.785,752.798h35.677c1.75,0,3.169,1.426,3.169,3.186v0.551c0,1.76-1.419,3.186-3.169,3.186h-35.677
			c-1.75,0-3.169-1.426-3.169-3.186v-0.551C544.616,754.224,546.035,752.798,547.785,752.798"/>
		<path fill="#323244" d="M587.371,756.614v-1.233c0-8.66-6.982-15.679-15.595-15.679h-3.719c-8.614,0-15.596,7.019-15.596,15.679
			v1.233H587.371z"/>
		<path fill="#323244" d="M582.243,748.158c0,4.187-5.306,4.735-11.85,4.735c-6.545,0-11.849-0.548-11.849-4.735
			c0-4.187,5.304-7.582,11.849-7.582C576.937,740.576,582.243,743.971,582.243,748.158"/>
		<path fill="#323244" d="M579.526,745.898c-0.852-0.67-1.774-1.253-2.755-1.736"/>
		<path fill="#323244" d="M580.363,745.062c-0.944-0.734-1.924-1.386-2.995-1.922c-0.571-0.285-1.281-0.152-1.619,0.425
			c-0.307,0.524-0.149,1.332,0.425,1.618c0.879,0.441,1.738,0.947,2.516,1.552c0.504,0.391,1.182,0.491,1.673,0
			C580.771,746.327,580.871,745.457,580.363,745.062"/>
		<path fill="#323244" d="M542.035,760.74h44.49c0.468,0,0.846-0.414,0.846-0.924v-2.634c0-0.509-0.378-0.923-0.846-0.923h-44.49
			c-0.467,0-0.846,0.414-0.846,0.923v2.634C541.189,760.326,541.568,760.74,542.035,760.74"/>
		<path fill="#323244" d="M470.916,742.651l-19.308-5.834c-2.577-0.779-5.312,0.628-6.195,3.186l-4.747,17.067
			c-0.43,1.246-0.346,2.541,0.138,3.656c0.564,1.305,33.507-11.991,33.507-11.991C474.991,746.115,473.493,743.429,470.916,742.651"
			/>
		<path fill="#323244" d="M446.659,753.134h39.109c1.918,0,3.474,1.563,3.474,3.493v0.605c0,1.928-1.556,3.492-3.474,3.492h-39.109
			c-1.918,0-3.474-1.564-3.474-3.492v-0.605C443.185,754.697,444.741,753.134,446.659,753.134"/>
		<path fill="#323244" d="M490.054,757.319v-1.353c0-9.492-7.654-17.186-17.096-17.186h-4.077c-9.441,0-17.095,7.694-17.095,17.186
			v1.353H490.054z"/>
		<path fill="#323244" d="M484.432,748.049c0,4.59-5.815,5.19-12.989,5.19s-12.99-0.6-12.99-5.19c0-4.591,5.816-8.312,12.99-8.312
			S484.432,743.458,484.432,748.049"/>
		<path fill="#323244" d="M481.454,745.573c-0.934-0.735-1.945-1.375-3.021-1.904"/>
		<path fill="#323244" d="M482.371,744.656c-1.035-0.805-2.108-1.52-3.282-2.106c-0.627-0.314-1.405-0.167-1.775,0.464
			c-0.337,0.576-0.164,1.46,0.465,1.775c0.965,0.482,1.905,1.038,2.758,1.701c0.553,0.429,1.296,0.538,1.834,0
			C482.819,746.042,482.928,745.088,482.371,744.656"/>
		<path fill="#323244" d="M440.356,761.84h48.771c0.511,0,0.926-0.453,0.926-1.012v-2.887c0-0.559-0.415-1.012-0.926-1.012h-48.771
			c-0.512,0-0.927,0.453-0.927,1.012v2.887C439.429,761.387,439.844,761.84,440.356,761.84"/>
		<path fill="#6B2A18" d="M547.785,752.798h35.677c1.75,0,3.169,1.426,3.169,3.186v0.551c0,1.76-1.419,3.186-3.169,3.186h-35.677
			c-1.75,0-3.169-1.426-3.169-3.186v-0.551C544.616,754.224,546.035,752.798,547.785,752.798"/>
		<path fill="#6B2A18" d="M587.371,756.614v-1.233c0-8.66-6.982-15.679-15.595-15.679h-3.719c-8.614,0-15.596,7.019-15.596,15.679
			v1.233H587.371z"/>
		<path fill="#843621" d="M582.243,748.158c0,4.187-5.306,4.735-11.85,4.735c-6.545,0-11.849-0.548-11.849-4.735
			c0-4.187,5.304-7.582,11.849-7.582C576.937,740.576,582.243,743.971,582.243,748.158"/>
		<path fill="#FCFBFB" d="M579.526,745.898c-0.852-0.67-1.774-1.253-2.755-1.736"/>
		<path fill="#FCFBFB" d="M580.363,745.062c-0.944-0.734-1.924-1.386-2.995-1.922c-0.571-0.285-1.281-0.152-1.619,0.425
			c-0.307,0.524-0.149,1.332,0.425,1.618c0.879,0.441,1.738,0.947,2.516,1.552c0.504,0.391,1.182,0.491,1.673,0
			C580.771,746.327,580.871,745.457,580.363,745.062"/>
		<path fill="#4D1C14" d="M542.035,760.74h44.49c0.468,0,0.846-0.414,0.846-0.924v-2.634c0-0.509-0.378-0.923-0.846-0.923h-44.49
			c-0.467,0-0.846,0.414-0.846,0.923v2.634C541.189,760.326,541.568,760.74,542.035,760.74"/>
		<path fill="#491C15" d="M470.916,742.651l-19.308-5.834c-2.577-0.779-5.312,0.628-6.195,3.186l-4.747,17.067
			c-0.43,1.246-0.346,2.541,0.138,3.656c0.564,1.305,33.507-11.991,33.507-11.991C474.991,746.115,473.493,743.429,470.916,742.651"
			/>
		<path fill="#6B2A18" d="M446.659,753.134h39.109c1.918,0,3.474,1.563,3.474,3.493v0.605c0,1.928-1.556,3.492-3.474,3.492h-39.109
			c-1.918,0-3.474-1.564-3.474-3.492v-0.605C443.185,754.697,444.741,753.134,446.659,753.134"/>
		<path fill="#6B2A18" d="M490.054,757.319v-1.353c0-9.492-7.654-17.186-17.096-17.186h-4.077c-9.441,0-17.095,7.694-17.095,17.186
			v1.353H490.054z"/>
		<path fill="#843621" d="M484.432,748.049c0,4.59-5.815,5.19-12.989,5.19s-12.99-0.6-12.99-5.19c0-4.591,5.816-8.312,12.99-8.312
			S484.432,743.458,484.432,748.049"/>
		<path fill="#FCFBFB" d="M481.454,745.573c-0.934-0.735-1.945-1.375-3.021-1.904"/>
		<path fill="#FCFBFB" d="M482.371,744.656c-1.035-0.805-2.108-1.52-3.282-2.106c-0.627-0.314-1.405-0.167-1.775,0.464
			c-0.337,0.576-0.164,1.46,0.465,1.775c0.965,0.482,1.905,1.038,2.758,1.701c0.553,0.429,1.296,0.538,1.834,0
			C482.819,746.042,482.928,745.088,482.371,744.656"/>
		<path fill="#4D1C14" d="M440.356,761.84h48.771c0.511,0,0.926-0.453,0.926-1.012v-2.887c0-0.559-0.415-1.012-0.926-1.012h-48.771
			c-0.512,0-0.927,0.453-0.927,1.012v2.887C439.429,761.387,439.844,761.84,440.356,761.84"/>
		<path fill="#252533" d="M563.795,599.946c11.62-8.508,23.24-17.015,34.86-25.522c1.422-1.041,2.856-2.069,4.268-3.124
			c4.949-3.701,6.823-8.304,6.603-14.17c-0.304-8.11-0.609-16.22-0.914-24.33c-0.26-6.96-0.522-13.921-0.783-20.882
			c-0.273-7.288-6.009-13.5-13.5-13.5c-7.101,0-13.774,6.179-13.5,13.5c0.598,15.905,1.195,31.811,1.791,47.717
			c2.23-3.885,4.458-7.771,6.687-11.657c-13.046,9.552-26.092,19.104-39.139,28.655c-5.874,4.3-8.792,11.717-4.843,18.47
			C548.716,600.899,557.88,604.277,563.795,599.946"/>
		<path fill="#FFFFFF" d="M604.49,498.972c1.221,3.307-2.85,7.854-9.09,10.157s-12.289,1.489-13.51-1.818
			c-1.219-3.308,2.85-7.856,9.091-10.158C597.221,494.85,603.269,495.664,604.49,498.972"/>
		<path fill="#FFB37B" d="M576.834,498.661c6.427,8.233,30.912-1.014,30.487-19.123c-0.109-4.687-1.205-12.543-7.672-10.699
			c-4.98,1.421,1.209,11.823-2.546,14.724c0,0-2.325-12.923-8.329-11.592c-6.004,1.33-2.669,8.753-0.767,11.2l0.671,5.795
			C588.678,488.966,573.387,494.245,576.834,498.661"/>
		<path fill="#252533" d="M571.365,584.114c0,9.345-19.301,16.919-43.11,16.919c-23.81,0-43.111-7.574-43.111-16.919
			c0-9.344,19.301-16.919,43.111-16.919C552.064,567.195,571.365,574.77,571.365,584.114"/>
		<path fill="#131516" d="M525.076,626.715c-5.667,17.053-11.335,34.105-17.003,51.158c-0.508,1.53,1.905,2.187,2.411,0.665
			c5.668-17.052,11.335-34.105,17.003-51.158C527.996,625.85,525.582,625.194,525.076,626.715"/>
		<polygon fill="#131516" points="525.772,629.849 554.767,578.645 566.663,585.554 556.582,595.46 550.99,597.036 551.728,604.226 
					"/>
		<polygon fill="#131516" points="525.772,629.849 518.318,575.457 504.212,579.308 509.782,591.367 514.54,593.849 
			510.926,600.658 		"/>
		<polygon fill="#FFFFFF" points="518.62,575.201 525.772,629.849 554.882,578.374 		"/>
		<path fill="#AFA2A0" d="M553.593,584.23l-0.175-0.11c-10.218-6.478-23.432-7.632-35.903-3.136l-0.199,0.071l1.997,14.941
			l15.172-8.63l11.152,10.932L553.593,584.23z"/>
		<polygon fill="#070404" points="531.714,619.316 525.756,629.852 524.292,618.665 536.735,576.79 		"/>
		<path fill="#070404" d="M533.54,591.877l0.062,0.005c1.837,0.161,3.705-0.911,4.588-2.636l3.509-6.844
			c1.332-2.597-0.109-5.446-2.878-5.688l-4.194-0.367c-2.769-0.242-5.308,2.258-5.071,4.993l0.622,7.206
			C530.335,590.36,531.703,591.716,533.54,591.877"/>
		<path fill="#FFFFFF" d="M554.882,578.374l-0.175-0.111c-10.218-6.477-23.433-7.631-35.903-3.135l-0.199,0.071l1.997,14.941
			l14.949-7.549l11.375,9.852L554.882,578.374z"/>
		<polygon fill="#323244" points="525.756,629.852 555.565,575.052 567.459,581.961 557.378,591.867 551.786,593.444 
			552.526,600.633 		"/>
		<polygon fill="#323244" points="525.756,629.853 519.114,571.864 505.009,575.715 510.579,587.774 515.336,590.256 
			511.723,597.065 		"/>
		<path fill="#682F09" d="M500.549,552.445c0,0-21.356-52.681,9.401-61.437c10.737-24.976,45.115-13.02,53.386-9.259
			c8.273,3.761,14.072,0.105,14.072,0.105c2.495,3.057,1.941,8.588,1.941,8.588l8.014-7.722c8.015,6.897,10.767,21.929-4.762,40.373
			L500.549,552.445z"/>
		<path fill="#FFB37B" d="M556.445,496.156l-23.752-1.676c-15.417-1.088-28.839,11.105-29.977,27.234l-0.49,6.945
			c-0.005,0.075-0.072,0.128-0.142,0.112c-0.477-0.103-0.961-0.184-1.46-0.219l-0.279-0.02c-6.07-0.429-11.354,4.372-11.802,10.723
			l-0.017,0.231c-0.447,6.346,4.107,11.837,10.173,12.266l0.286,0.019c0.511,0.036,1.012,0.024,1.508-0.014
			c0.07-0.006,0.127,0.051,0.124,0.125c-0.518,15.566,10.814,28.831,25.798,29.888l23.871,1.685
			c15.418,1.088,28.839-11.106,29.977-27.234l2.038-28.892C583.439,511.2,571.864,497.244,556.445,496.156"/>
		<path fill="#682F09" d="M510.718,538.582c0.97-13.742-0.681-31.235,12.089-39.726c6.467-4.299,13.234-3.798,20.43-3.291
			c5.86,0.414,11.728,0.721,17.58,1.242c6.313,0.56,7.058-9.532,0.719-10.192c-6.393-0.667-12.824-0.904-19.235-1.357
			c-9.153-0.646-17.647,0.05-25.544,5.652c-8.787,6.236-13.612,16.251-14.381,27.146c-0.467,6.613-0.932,13.225-1.399,19.839
			C500.513,544.467,510.254,545.153,510.718,538.582"/>
		<path fill="#131516" d="M540.825,540.096c-0.144,2.028-1.45,3.589-2.918,3.485c-1.469-0.104-2.543-1.833-2.4-3.861
			c0.143-2.027,1.45-3.588,2.918-3.484C539.893,536.339,540.968,538.068,540.825,540.096"/>
		<path fill="#131516" d="M567.714,540.708c-0.144,2.028-1.45,3.588-2.918,3.484c-1.469-0.103-2.543-1.831-2.399-3.859
			c0.142-2.029,1.449-3.589,2.917-3.485C566.782,536.951,567.857,538.68,567.714,540.708"/>
		<path fill="#682F09" d="M584.788,492.087c0,0-0.645,15.502-31.437,13.33c-30.793-2.173-41.965-4.627-43.957,23.589
			c0,0-3.19-41.847,23.972-43.811C560.527,483.233,569.234,497.059,584.788,492.087"/>
		<path fill="#774320" d="M531.699,529.438c3.83,0.674,7.661,1.349,11.492,2.022c1.885,0.332,2.694-2.552,0.796-2.886
			c-3.831-0.675-7.661-1.35-11.492-2.024C530.61,526.218,529.802,529.103,531.699,529.438"/>
		<path fill="#774320" d="M569.323,526.55c-3.831,0.674-7.662,1.349-11.492,2.023c-1.896,0.333-1.092,3.22,0.796,2.887
			c3.83-0.674,7.661-1.348,11.492-2.022C572.013,529.104,571.211,526.217,569.323,526.55"/>
		<path fill="#FF6339" d="M555.935,562.531c-5.015,2.289-10.648,0.843-13.933-3.577c-1.024-1.379-3.369-0.034-2.331,1.362
			c4.226,5.688,11.168,7.494,17.626,4.546C558.876,564.142,557.505,561.814,555.935,562.531"/>
		<polygon fill="#131516" points="210.531,500.694 284.369,479.901 296.579,499.001 224.496,533.711 		"/>
		<path fill="#8E1C1C" d="M395.019,539.056c-112.933,17.38-218.572-60.083-235.952-173.018l-3.688-23.963l204.484-31.47
			L395.019,539.056z"/>
		<path fill="#FF2424" d="M391.269,514.689c-112.933,17.381-218.572-60.082-235.952-173.018l204.484-31.469L391.269,514.689z"/>
		<path fill="#FFFFFF" d="M365.962,350.238l7.375,47.926c-48.501,7.465-94.033-25.922-101.498-74.426l47.926-7.375
			C323.163,338.439,343.887,353.635,365.962,350.238"/>
		<path fill="#FFFFFF" d="M380.582,445.242l7.375,47.927c-48.871,7.52-97.746-4.441-137.621-33.68
			c-39.875-29.239-65.977-72.257-73.498-121.129l47.926-7.376C236.223,405.445,306.122,456.701,380.582,445.242"/>
		<path fill="#323244" d="M128.513,739.915h19.343c2.581,0,4.702,2.05,4.803,4.644l-0.377,16.984
			c0.107,2.741-2.075,5.022-4.803,5.022H127.85c-2.729,0-4.91-2.281-4.803-5.022l0.662-16.984
			C123.81,741.965,125.931,739.915,128.513,739.915"/>
		<path fill="#323244" d="M145.726,757.82h-39.281c-1.927,0-3.49,1.57-3.49,3.508v0.607c0,1.938,1.563,3.508,3.49,3.508h39.281
			c1.927,0,3.489-1.57,3.489-3.508v-0.607C149.215,759.39,147.653,757.82,145.726,757.82"/>
		<path fill="#323244" d="M102.141,762.022v-1.357c0-9.535,7.688-17.263,17.171-17.263h4.095c9.484,0,17.171,7.728,17.171,17.263
			v1.357H102.141z"/>
		<path fill="#323244" d="M107.788,752.712c0,4.611,5.841,5.214,13.046,5.214c7.206,0,13.047-0.603,13.047-5.214
			c0-4.61-5.841-8.348-13.047-8.348C113.629,744.364,107.788,748.102,107.788,752.712"/>
		<path fill="#323244" d="M110.778,750.224c0.938-0.738,1.954-1.38,3.034-1.912"/>
		<path fill="#323244" d="M111.7,751.145c0.857-0.665,1.801-1.224,2.77-1.708c0.629-0.314,0.806-1.203,0.467-1.782
			c-0.374-0.641-1.151-0.783-1.782-0.467c-1.179,0.59-2.258,1.307-3.297,2.115c-0.556,0.433-0.454,1.389,0,1.842
			C110.407,751.694,111.142,751.579,111.7,751.145"/>
		<path fill="#323244" d="M152.058,766.565h-48.985c-0.515,0-0.932-0.455-0.932-1.017v-2.9c0-0.562,0.417-1.017,0.932-1.017h48.985
			c0.514,0,0.931,0.455,0.931,1.017v2.9C152.989,766.11,152.572,766.565,152.058,766.565"/>
		<path fill="#323244" d="M229.63,739.809h-19.343c-2.581,0-4.702,2.051-4.803,4.644l0.376,16.984
			c-0.106,2.742,2.076,5.022,4.804,5.022h19.629c2.729,0,4.91-2.28,4.803-5.022l-0.662-16.984
			C234.333,741.86,232.212,739.809,229.63,739.809"/>
		<path fill="#323244" d="M212.416,757.715h39.282c1.926,0,3.489,1.57,3.489,3.508v0.607c0,1.938-1.563,3.508-3.489,3.508h-39.282
			c-1.927,0-3.489-1.57-3.489-3.508v-0.607C208.927,759.285,210.489,757.715,212.416,757.715"/>
		<path fill="#323244" d="M256.001,761.918v-1.357c0-9.535-7.687-17.264-17.17-17.264h-4.096c-9.483,0-17.171,7.729-17.171,17.264
			v1.357H256.001z"/>
		<path fill="#323244" d="M250.355,752.607c0,4.61-5.841,5.214-13.046,5.214c-7.206,0-13.047-0.604-13.047-5.214
			s5.841-8.348,13.047-8.348C244.514,744.259,250.355,747.997,250.355,752.607"/>
		<path fill="#323244" d="M247.365,750.12c-0.938-0.738-1.954-1.38-3.034-1.912"/>
		<path fill="#323244" d="M248.286,749.199c-1.04-0.809-2.118-1.526-3.297-2.116c-0.629-0.315-1.411-0.167-1.783,0.468
			c-0.337,0.577-0.164,1.465,0.468,1.782c0.968,0.484,1.913,1.042,2.77,1.708c0.555,0.431,1.301,0.541,1.842,0
			C248.736,750.592,248.845,749.633,248.286,749.199"/>
		<path fill="#323244" d="M206.085,766.46h48.985c0.515,0,0.931-0.455,0.931-1.016v-2.9c0-0.562-0.416-1.017-0.931-1.017h-48.985
			c-0.514,0-0.931,0.455-0.931,1.017v2.9C205.154,766.005,205.571,766.46,206.085,766.46"/>
		<path fill="#491C15" d="M128.513,739.915h19.343c2.581,0,4.702,2.05,4.803,4.644l-0.377,16.984
			c0.107,2.741-2.075,5.022-4.803,5.022H127.85c-2.729,0-4.91-2.281-4.803-5.022l0.662-16.984
			C123.81,741.965,125.931,739.915,128.513,739.915"/>
		<path fill="#6B2A18" d="M145.726,757.82h-39.281c-1.927,0-3.49,1.57-3.49,3.508v0.607c0,1.938,1.563,3.508,3.49,3.508h39.281
			c1.927,0,3.489-1.57,3.489-3.508v-0.607C149.215,759.39,147.653,757.82,145.726,757.82"/>
		<path fill="#6B2A18" d="M102.141,762.022v-1.357c0-9.535,7.688-17.263,17.171-17.263h4.095c9.484,0,17.171,7.728,17.171,17.263
			v1.357H102.141z"/>
		<path fill="#843621" d="M107.788,752.712c0,4.611,5.841,5.214,13.046,5.214c7.206,0,13.047-0.603,13.047-5.214
			c0-4.61-5.841-8.348-13.047-8.348C113.629,744.364,107.788,748.102,107.788,752.712"/>
		<path fill="#FCFBFB" d="M110.778,750.224c0.938-0.738,1.954-1.38,3.034-1.912"/>
		<path fill="#FCFBFB" d="M111.7,751.145c0.857-0.665,1.801-1.224,2.77-1.708c0.629-0.314,0.806-1.203,0.467-1.782
			c-0.374-0.641-1.151-0.783-1.782-0.467c-1.179,0.59-2.258,1.307-3.297,2.115c-0.556,0.433-0.454,1.389,0,1.842
			C110.407,751.694,111.142,751.579,111.7,751.145"/>
		<path fill="#4D1C14" d="M152.058,766.565h-48.985c-0.515,0-0.932-0.455-0.932-1.017v-2.9c0-0.562,0.417-1.017,0.932-1.017h48.985
			c0.514,0,0.931,0.455,0.931,1.017v2.9C152.989,766.11,152.572,766.565,152.058,766.565"/>
		<path fill="#491C15" d="M229.63,739.809h-19.343c-2.581,0-4.702,2.051-4.803,4.644l0.376,16.984
			c-0.106,2.742,2.076,5.022,4.804,5.022h19.629c2.729,0,4.91-2.28,4.803-5.022l-0.662-16.984
			C234.333,741.86,232.212,739.809,229.63,739.809"/>
		<path fill="#6B2A18" d="M212.416,757.715h39.282c1.926,0,3.489,1.57,3.489,3.508v0.607c0,1.938-1.563,3.508-3.489,3.508h-39.282
			c-1.927,0-3.489-1.57-3.489-3.508v-0.607C208.927,759.285,210.489,757.715,212.416,757.715"/>
		<path fill="#6B2A18" d="M256.001,761.918v-1.357c0-9.535-7.687-17.264-17.17-17.264h-4.096c-9.483,0-17.171,7.729-17.171,17.264
			v1.357H256.001z"/>
		<path fill="#843621" d="M250.355,752.607c0,4.61-5.841,5.214-13.046,5.214c-7.206,0-13.047-0.604-13.047-5.214
			s5.841-8.348,13.047-8.348C244.514,744.259,250.355,747.997,250.355,752.607"/>
		<path fill="#FCFBFB" d="M247.365,750.12c-0.938-0.738-1.954-1.38-3.034-1.912"/>
		<path fill="#FCFBFB" d="M248.286,749.199c-1.04-0.809-2.118-1.526-3.297-2.116c-0.629-0.315-1.411-0.167-1.783,0.468
			c-0.337,0.577-0.164,1.465,0.468,1.782c0.968,0.484,1.913,1.042,2.77,1.708c0.555,0.431,1.301,0.541,1.842,0
			C248.736,750.592,248.845,749.633,248.286,749.199"/>
		<path fill="#4D1C14" d="M206.085,766.46h48.985c0.515,0,0.931-0.455,0.931-1.016v-2.9c0-0.562-0.416-1.017-0.931-1.017h-48.985
			c-0.514,0-0.931,0.455-0.931,1.017v2.9C205.154,766.005,205.571,766.46,206.085,766.46"/>
		<path fill="#323244" d="M235.661,516.166c1.339,7.541-12.362,13.481-30.604,13.27c-18.24-0.212-34.114-6.497-35.453-14.038
			c-1.339-7.54,12.363-13.48,30.604-13.268S234.322,508.626,235.661,516.166"/>
		<path fill="#252533" d="M157.517,748.055l31.643-121.354h9.703l0.375,114.592l34.339-0.4L232.82,602.94h-77.553l-30.32,139.08
			l0.792,0.687c8.7,7.557,20.882,9.645,31.602,5.417L157.517,748.055z"/>
		<polygon fill="#131516" points="155.276,606.075 232.829,606.075 233.064,656.711 198.961,656.711 198.872,637.393 
			186.706,637.006 180.448,660.112 144.588,651.928 		"/>
		<path fill="#252533" d="M195.347,499.507c-49.019,0.13-43.511,26.477-43.511,26.477l-2.234,102.763l0.705,0.231
			c27.119,8.869,56.854,8.758,84.341-0.316l0.429-0.141l2.232-102.656C237.309,525.865,244.367,499.377,195.347,499.507"/>
		<polygon fill="#FFFFFF" points="180.549,504.7 210.313,559.517 220.862,505.169 		"/>
		<path fill="#AFA2A0" d="M221.839,511.198l-0.232-0.099c-13.615-5.787-28.306-5.956-39.913-0.457l-0.186,0.087l8.183,14.984
			l12.845-9.892l16.42,10.231L221.839,511.198z"/>
		<polygon fill="#070404" points="212.455,548.397 210.296,559.521 204.203,548.298 200.688,504.937 		"/>
		<path fill="#070404" d="M203.342,520.463l0.069,0.001c2.043,0.023,3.619-1.204,3.875-3.018l1.013-7.198
			c0.384-2.733-2.317-5.51-5.395-5.545l-4.662-0.054c-3.078-0.036-4.803,2.689-3.443,5.442l3.579,7.252
			C199.279,519.169,201.3,520.44,203.342,520.463"/>
		<path fill="#FFFFFF" d="M220.862,505.169l-0.232-0.1c-13.615-5.787-28.305-5.956-39.913-0.457l-0.186,0.088l8.183,14.983
			l13.043-8.779l16.222,9.119L220.862,505.169z"/>
		<polygon fill="#323244" points="210.296,559.521 220.255,501.751 235.849,507.85 228.997,518.648 223.615,520.668 
			227.313,527.896 		"/>
		<polygon fill="#323244" points="210.296,559.522 179.734,501.283 166.106,506.251 176.97,518.045 183.093,520.2 181.953,527.371 
					"/>
		<path fill="#15151E" d="M209.153,559.517c0.895,24.792,1.791,49.584,2.686,74.375c0.053,1.488,2.373,1.495,2.319,0
			c-0.895-24.791-1.791-49.583-2.686-74.375C211.419,558.029,209.099,558.022,209.153,559.517"/>
		<path fill="#131516" d="M237.385,525.383c0,0,0.096-0.363,0.187-0.999c-8.865,6.922-17.731,13.843-26.597,20.765
			c-10.974-4.198-26.318-10.569-36.348-16.838c-7.201-4.501-16.124-4.784-21.902,2.403c-0.346,0.432-0.66,0.896-0.956,1.377
			l-0.363,16.669c0.916,1.527,2.137,2.864,3.723,3.855c21.807,11.364,31.261,15.228,49.643,21.675
			c6.583,2.309,13.055,5.022,19.03,0.358c4.243-3.313,8.485-6.625,12.728-9.938L237.385,525.383z"/>
		<path fill="#252533" d="M155.306,543.05c21.897,11.188,31.382,14.976,49.815,21.275c6.602,2.256,13.095,4.917,19.032,0.205
			c14.962-11.875,23.548-16.405,38.509-28.28c6.646-5.275,7.025-13.295,1.819-20.195c-5.017-6.651-13.931-9.954-20.581-4.676
			c-14.962,11.875-23.548,16.405-38.509,28.28c6.344,0.069,12.688,0.137,19.032,0.205c0,0-34.547-15.509-51.727-26.057
			c-7.237-4.444-16.162-4.655-21.882,2.579C146.018,522.451,148.066,538.605,155.306,543.05"/>
		<path fill="#FFFFFF" d="M267.846,528.115c-2.77,2.979-9.572,1.158-15.194-4.068c-5.621-5.227-7.933-11.878-5.164-14.858
			c2.77-2.979,9.572-1.157,15.194,4.069C268.304,518.484,270.616,525.136,267.846,528.115"/>
		<path fill="#FFB37B" d="M271.829,520.001c1.217,0.881-7.845,5.639-7.845,5.639s-7.975,0.398-12.929-8.527
			c-5.977-3.901-10.764-10.331-10.582-18.535c0.107-4.819,1.224-12.899,7.876-11.011c5.123,1.455-1.228,12.159,2.637,15.138
			c0,0,2.374-13.291,8.55-11.931c6.176,1.361,2.755,8.998,0.802,11.516l-0.682,5.96C259.656,508.25,264.579,514.751,271.829,520.001
			"/>
		<path fill="#FF9E5C" d="M209.723,500.492c0.585,4.627-2.692,8.852-7.319,9.437l-2.095,0.264c-4.627,0.585-8.852-2.691-9.437-7.318
			l-1.796-14.214c-0.585-4.627,2.692-8.852,7.319-9.437l2.094-0.264c4.627-0.585,8.852,2.691,9.437,7.318L209.723,500.492z"/>
		<path fill="#A84620" d="M159.919,484.808c0,0-35.029-43.33-8.673-60.3c2.045-21.901,32.885-27.053,46.968-26.703
			c16.835,0.417,37.828,18.157,28.514,39.878L159.919,484.808z"/>
		<path fill="#FFB37B" d="M196.321,416.098l-22.755,5.19c-14.77,3.37-23.888,18.627-20.363,34.08l1.518,6.653
			c0.017,0.072-0.031,0.14-0.102,0.146c-0.476,0.038-0.954,0.101-1.432,0.209l-0.266,0.061c-5.816,1.327-9.405,7.334-8.017,13.418
			l0.05,0.222c1.388,6.08,7.222,9.933,13.034,8.608l0.273-0.063c0.49-0.112,0.956-0.266,1.411-0.443
			c0.064-0.025,0.133,0.013,0.152,0.082c3.946,14.748,18.351,23.963,32.706,20.689l22.87-5.217
			c14.77-3.37,23.887-18.627,20.362-34.079l-6.314-27.68C225.924,422.523,211.092,412.729,196.321,416.098"/>
		<path fill="#131516" d="M190.945,461.208c0.443,1.942-0.338,3.778-1.745,4.1c-1.406,0.32-2.906-0.996-3.349-2.938
			c-0.444-1.943,0.337-3.779,1.744-4.1C189.002,457.949,190.502,459.265,190.945,461.208"/>
		<path fill="#131516" d="M219.574,454.676c0.443,1.943-0.338,3.779-1.745,4.1c-1.406,0.321-2.906-0.995-3.35-2.938
			c-0.443-1.943,0.338-3.778,1.745-4.1C217.631,451.418,219.131,452.733,219.574,454.676"/>
		<path fill="#774320" d="M220.321,443.088c-3.243-4.586-9.159-5.365-12.826-0.756c-0.806,1.013,0.623,2.461,1.438,1.437
			c2.784-3.498,7.066-3.285,9.633,0.344C219.315,445.173,221.079,444.159,220.321,443.088"/>
		<path fill="#774320" d="M181.786,452.442c1.532-4.579,6.345-6.771,10.819-4.806c1.307,0.575,2.448-1.354,1.13-1.933
			c-5.818-2.556-12.079,0.081-14.108,6.144C179.169,453.216,181.33,453.803,181.786,452.442"/>
		<path fill="#A84620" d="M210.283,405.09c-2.624,1.81-4.746,2.801-6.666,3.315c-0.887-1.84-2.721-3.192-5.238-2.706
			c-4.291,0.829-8.539,1.857-12.789,2.876c-3.431,0.444-7.63,1.44-12.982,3.424c-0.318,0.113-0.634,0.23-0.948,0.35
			c-0.036,0.014-0.07,0.025-0.107,0.04c-0.019,0.008-0.035,0.016-0.054,0.023c-5.308,2.058-10.036,5.08-13.897,10.066
			c-6.466,8.35-8.141,19.118-5.76,29.555c1.445,6.335,2.891,12.671,4.336,19.006c1.436,6.296,10.769,4.167,9.333-2.129
			c-1.872-8.204-5.111-17.485-4.974-26.121c2.738-10.49,14.454-12.319,35.518-17.124C225.555,418.936,210.283,405.09,210.283,405.09
			"/>
		<path fill="#E56533" d="M191.988,477.825c7.146,8.614,17.926,7.261,25.432,0c1.108-1.072-0.584-2.762-1.691-1.691
			c-6.668,6.45-15.796,7.54-22.05,0C192.696,474.948,191.012,476.648,191.988,477.825"/>
		
			<rect x="225.049" y="105.35" transform="matrix(0.9532 0.3024 -0.3024 0.9532 44.0036 -65.3965)" fill="#FFFFFF" width="16.269" height="8.101"/>
		<path fill="#252533" d="M229.712,139.473c-9.045,12.032-21.945,21.146-38.662,18.002c-30.777-5.786-60.577-37.547-61.831-38.897
			l14.837-13.785l-7.418,6.893l7.413-6.899c0.263,0.282,26.553,28.237,50.741,32.784c18.219,3.425,29.124-31.215,29.229-31.565
			l19.419,5.753C240.985,120.073,236.403,130.572,229.712,139.473"/>
		<path fill="#FFCE00" d="M71.114,193.124l2.547,6.124c0.302,0.725,1.333,0.724,1.628-0.004c1.758-4.341,5.509-15.09,3.074-22.607
			L42.25,159.643c-7.344,2.916-13.235,12.657-15.46,16.778c-0.373,0.692,0.283,1.487,1.034,1.257l6.343-1.94
			c-12.543,17.466-6.49,49.679-1.843,51.866C36.972,229.791,65.651,213.921,71.114,193.124"/>
		<path fill="#FFE05F" d="M63.241,181.381c-7.174,15.245-20.493,24.072-20.493,24.072s-1.688-15.889,5.486-31.134
			c7.174-15.244,16.348-26.021,20.492-24.071C72.871,152.197,70.415,166.137,63.241,181.381"/>
		<path fill="#A51300" d="M91.561,177.833c2.994-1.078,4.673-1.683,7.667-2.76l3.501-7.442l13.839-29.408l5.644-11.994
			c5.194-11.036,0.457-24.192-10.579-29.385l-0.404-0.19c-11.035-5.194-24.192-0.457-29.385,10.579L76.2,119.227l-13.839,29.408
			l-3.206,6.814c1.202,3.341,1.89,5.249,3.093,8.59L91.561,177.833z"/>
		<path fill="#D62300" d="M88.215,176.258c2.994-1.078,4.673-1.683,7.667-2.76l3.502-7.442l13.839-29.408l5.644-11.994
			c5.193-11.036,0.456-24.192-10.58-29.386l-0.403-0.19c-11.036-5.193-24.193-0.456-29.386,10.58l-5.644,11.994L59.015,147.06
			l-3.206,6.814c1.202,3.341,1.89,5.249,3.093,8.59L88.215,176.258z"/>
		<path fill="#A51300" d="M64.908,165.291c2.995-1.078,4.673-1.683,7.667-2.76l3.502-7.442l13.839-29.408l5.644-11.994
			c5.193-11.036,0.457-24.192-10.579-29.385l-0.404-0.19c-11.036-5.194-24.192-0.457-29.386,10.579l-5.644,11.994l-13.839,29.408
			l-3.206,6.814c1.203,3.341,1.89,5.249,3.093,8.59L64.908,165.291z"/>
		<path fill="#D62300" d="M61.562,163.716c2.994-1.078,4.673-1.683,7.667-2.761l3.501-7.441l13.84-29.408l5.643-11.994
			c5.194-11.036,0.457-24.192-10.579-29.386l-0.404-0.19c-11.035-5.193-24.192-0.456-29.385,10.58l-5.644,11.994l-13.839,29.408
			l-3.206,6.814c1.202,3.341,1.889,5.249,3.093,8.59L61.562,163.716z"/>
		<path fill="#FFFFFF" d="M59.295,92.778c-3.07,2.873-4.534,6.171-6.102,10.012c-1.934,4.739-4.205,9.316-6.509,13.884
			c-1.454,2.878,3.114,4.916,4.56,2.051c1.792-3.549,3.595-7.098,5.19-10.742c1.655-3.782,2.719-8.274,5.813-11.17
			C64.571,94.639,61.643,90.58,59.295,92.778"/>
		<path fill="#FFFFFF" d="M72.053,88.283c-0.229-1.43-1.368-2.24-2.771-2.196c-1.394,0.043-2.699,0.549-3.864,1.289
			c-1.107,0.704-1.347,2.487-0.541,3.494c0.892,1.115,2.313,1.292,3.494,0.541c0.021-0.013,0.029-0.018,0.046-0.028
			c0.042-0.02,0.083-0.042,0.126-0.061c0.162-0.072,0.331-0.123,0.497-0.185c0.051-0.009,0.101-0.02,0.152-0.028
			c0.221-0.033,0.442-0.047,0.665-0.054C71.167,91.014,72.255,89.538,72.053,88.283"/>
		<path fill="#9E8F63" d="M110.734,153.784L39.03,120.042c-2.534-1.193-3.484-4.508-2.12-7.405l0.05-0.106
			c1.363-2.897,4.523-4.279,7.057-3.086l71.704,33.742c2.534,1.192,3.483,4.507,2.12,7.405l-0.05,0.106
			C116.428,153.595,113.268,154.976,110.734,153.784"/>
		<path fill="#BCAC77" d="M109.811,155.997l-71.705-33.742c-2.533-1.192-3.483-4.508-2.119-7.404l0.05-0.106
			c1.363-2.897,4.522-4.279,7.056-3.087l71.705,33.742c2.534,1.192,3.483,4.508,2.119,7.405l-0.049,0.106
			C115.504,155.808,112.345,157.189,109.811,155.997"/>
		<path fill="none" stroke="#FFE948" stroke-width="2.946" stroke-miterlimit="10" d="M51.566,127.664l-6.584-3.098
			c-1.548-0.729-2.212-2.574-1.484-4.122l3.098-6.583c0.729-1.549,2.574-2.213,4.122-1.484l6.584,3.098
			c1.548,0.728,2.212,2.574,1.484,4.122l-3.098,6.583C54.96,127.728,53.114,128.393,51.566,127.664z"/>
		<path fill="#B6CCB6" d="M85.48,179.986l-51.028-24.013c-2.244-1.056-3.208-3.732-2.152-5.977l0.02-0.041l59.157,27.838
			l-0.02,0.041C90.401,180.079,87.725,181.042,85.48,179.986"/>
		<path fill="#323244" d="M40.876,270.034l3.279-18.262c0.438-2.437-1.138-4.787-3.57-5.322l-16.099-2.524
			c-2.57-0.566-5.094,1.108-5.556,3.684l-3.328,18.531c-0.463,2.577,1.321,5.023,3.927,5.387l16.148,2.254
			C38.143,274.126,40.438,272.472,40.876,270.034"/>
		<path fill="#323244" d="M26.889,250.746l-6.66,37.087c-0.326,1.819-2.074,3.028-3.903,2.699l-0.573-0.103
			c-1.829-0.328-3.048-2.069-2.72-3.889l6.659-37.086c0.327-1.82,2.074-3.028,3.904-2.7l0.573,0.103
			C25.998,247.185,27.216,248.927,26.889,250.746"/>
		<path fill="#323244" d="M15.532,291.184l1.282,0.23c9.002,1.617,17.602-4.331,19.21-13.285l0.694-3.866
			c1.607-8.953-4.386-17.522-13.388-19.138l-1.281-0.23L15.532,291.184z"/>
		<path fill="#323244" d="M25.28,287.431c-4.353-0.781-3.932-6.398-2.71-13.201c1.222-6.803,2.781-12.216,7.134-11.434
			c4.353,0.781,6.891,6.93,5.67,13.733C34.152,283.332,29.633,288.213,25.28,287.431"/>
		<path fill="#323244" d="M28.135,285.03c0.856-0.76,1.635-1.611,2.32-2.541"/>
		<path fill="#323244" d="M29.019,285.913c0.939-0.843,1.761-1.782,2.515-2.793c0.403-0.541,0.088-1.396-0.449-1.709
			c-0.637-0.373-1.304-0.095-1.709,0.448c-0.623,0.835-1.35,1.592-2.124,2.287c-0.503,0.451-0.46,1.308,0,1.767
			C27.751,286.413,28.516,286.366,29.019,285.913"/>
		<path fill="#323244" d="M19.706,243.287l-8.305,46.249c-0.087,0.485,0.272,0.956,0.802,1.051l2.738,0.492
			c0.53,0.095,1.031-0.222,1.118-0.707l8.304-46.249c0.088-0.485-0.271-0.956-0.802-1.051l-2.738-0.492
			C20.293,242.485,19.793,242.801,19.706,243.287"/>
		<path fill="#323244" d="M124.95,299.23l-8.45-14.889c-1.128-1.987-3.632-2.724-5.673-1.669l-12.908,7.71
			c-2.157,1.116-2.96,3.791-1.768,5.891l8.575,15.109c1.192,2.1,3.901,2.783,5.964,1.503l12.784-7.929
			C125.427,303.745,126.078,301.217,124.95,299.23"/>
		<path fill="#323244" d="M103.647,293.802l17.16,30.236c0.841,1.483,0.315,3.371-1.176,4.218l-0.467,0.265
			c-1.492,0.846-3.383,0.33-4.225-1.153l-17.16-30.236c-0.841-1.483-0.315-3.372,1.176-4.218l0.468-0.265
			C100.914,291.802,102.805,292.319,103.647,293.802"/>
		<path fill="#323244" d="M119.453,329.187l1.045-0.593c7.339-4.165,9.93-13.459,5.787-20.759l-1.789-3.151
			c-4.143-7.3-13.45-9.841-20.789-5.676l-1.045,0.593L119.453,329.187z"/>
		<path fill="#323244" d="M124.153,320.773c-3.549,2.014-6.564-2.219-9.712-7.765c-3.148-5.546-5.236-10.306-1.687-12.32
			c3.549-2.014,8.978,0.85,12.126,6.396C128.027,312.63,127.702,318.759,124.153,320.773"/>
		<path fill="#323244" d="M124.761,317.384c0.158-1.044,0.208-2.107,0.146-3.17"/>
		<path fill="#323244" d="M125.872,317.691c0.167-1.16,0.247-2.306,0.187-3.477c-0.074-1.477-2.38-1.486-2.305,0
			c0.048,0.955,0.031,1.916-0.105,2.864c-0.089,0.615,0.151,1.238,0.805,1.418C124.995,318.645,125.783,318.311,125.872,317.691"/>
		<path fill="#323244" d="M94.151,292.749l21.399,37.706c0.225,0.395,0.757,0.517,1.189,0.272l2.232-1.267
			c0.432-0.245,0.601-0.765,0.376-1.16l-21.399-37.706c-0.225-0.396-0.757-0.518-1.189-0.273l-2.233,1.267
			C94.094,291.833,93.926,292.353,94.151,292.749"/>
		<path fill="#491C15" d="M40.876,270.034l3.279-18.262c0.438-2.437-1.138-4.787-3.57-5.322l-16.099-2.524
			c-2.57-0.566-5.094,1.108-5.556,3.684l-3.328,18.531c-0.463,2.577,1.321,5.023,3.927,5.387l16.148,2.254
			C38.143,274.126,40.438,272.472,40.876,270.034"/>
		<path fill="#6B2A18" d="M26.889,250.746l-6.66,37.087c-0.326,1.819-2.074,3.028-3.903,2.699l-0.573-0.103
			c-1.829-0.328-3.048-2.069-2.72-3.889l6.659-37.086c0.327-1.82,2.074-3.028,3.904-2.7l0.573,0.103
			C25.998,247.185,27.216,248.927,26.889,250.746"/>
		<path fill="#6B2A18" d="M15.532,291.184l1.282,0.23c9.002,1.617,17.602-4.331,19.21-13.285l0.694-3.866
			c1.607-8.953-4.386-17.522-13.388-19.138l-1.281-0.23L15.532,291.184z"/>
		<path fill="#843621" d="M25.28,287.431c-4.353-0.781-3.932-6.398-2.71-13.201c1.222-6.803,2.781-12.216,7.134-11.434
			c4.353,0.781,6.891,6.93,5.67,13.733C34.152,283.332,29.633,288.213,25.28,287.431"/>
		<path fill="#FCFBFB" d="M28.135,285.03c0.856-0.76,1.635-1.611,2.32-2.541"/>
		<path fill="#FCFBFB" d="M29.019,285.913c0.939-0.843,1.761-1.782,2.515-2.793c0.403-0.541,0.088-1.396-0.449-1.709
			c-0.637-0.373-1.304-0.095-1.709,0.448c-0.623,0.835-1.35,1.592-2.124,2.287c-0.503,0.451-0.46,1.308,0,1.767
			C27.751,286.413,28.516,286.366,29.019,285.913"/>
		<path fill="#4D1C14" d="M19.706,243.287l-8.305,46.249c-0.087,0.485,0.272,0.956,0.802,1.051l2.738,0.492
			c0.53,0.095,1.031-0.222,1.118-0.707l8.304-46.249c0.088-0.485-0.271-0.956-0.802-1.051l-2.738-0.492
			C20.293,242.485,19.793,242.801,19.706,243.287"/>
		<path fill="#491C15" d="M124.95,299.23l-8.45-14.889c-1.128-1.987-3.632-2.724-5.673-1.669l-12.908,7.71
			c-2.157,1.116-2.96,3.791-1.768,5.891l8.575,15.109c1.192,2.1,3.901,2.783,5.964,1.503l12.784-7.929
			C125.427,303.745,126.078,301.217,124.95,299.23"/>
		<path fill="#6B2A18" d="M103.647,293.802l17.16,30.236c0.841,1.483,0.315,3.371-1.176,4.218l-0.467,0.265
			c-1.492,0.846-3.383,0.33-4.225-1.153l-17.16-30.236c-0.841-1.483-0.315-3.372,1.176-4.218l0.468-0.265
			C100.914,291.802,102.805,292.319,103.647,293.802"/>
		<path fill="#6B2A18" d="M119.453,329.187l1.045-0.593c7.339-4.165,9.93-13.459,5.787-20.759l-1.789-3.151
			c-4.143-7.3-13.45-9.841-20.789-5.676l-1.045,0.593L119.453,329.187z"/>
		<path fill="#843621" d="M124.153,320.773c-3.549,2.014-6.564-2.219-9.712-7.765c-3.148-5.546-5.236-10.306-1.687-12.32
			c3.549-2.014,8.978,0.85,12.126,6.396C128.027,312.63,127.702,318.759,124.153,320.773"/>
		<path fill="#FCFBFB" d="M124.761,317.384c0.158-1.044,0.208-2.107,0.146-3.17"/>
		<path fill="#FCFBFB" d="M125.872,317.691c0.167-1.16,0.247-2.306,0.187-3.477c-0.074-1.477-2.38-1.486-2.305,0
			c0.048,0.955,0.031,1.916-0.105,2.864c-0.089,0.615,0.151,1.238,0.805,1.418C124.995,318.645,125.783,318.311,125.872,317.691"/>
		<path fill="#4D1C14" d="M94.151,292.749l21.399,37.706c0.225,0.395,0.757,0.517,1.189,0.272l2.232-1.267
			c0.432-0.245,0.601-0.765,0.376-1.16l-21.399-37.706c-0.225-0.396-0.757-0.518-1.189-0.273l-2.233,1.267
			C94.094,291.833,93.926,292.353,94.151,292.749"/>
		<path fill="#252533" d="M158.624,243.848c-2.913-16.041-10.976-26.657-19.349-33.588c-0.516-6.121-4.331-11.753-10.394-14.28
			l-42.015-17.513c-8.667-3.614-18.623,0.484-22.236,9.152l-0.667,1.6c-2.974,7.134-0.716,15.131,5.005,19.756
			c3.906,5.654,9.062,16.227,3.238,27.194c-7.418,13.974-28.034,10.382-28.82,10.239l-5.463,27.807
			c15.53,3.05,45.495,1.269,59.314-24.756c4.657-8.772,6.296-17.398,6.016-25.441l11.877,4.951c0.368,0.153,0.738,0.292,1.11,0.418
			c1.844,0.621,3.602,1.478,5.077,2.749c4.073,3.51,7.982,8.833,9.426,16.778c3.424,18.851-18.122,30.819-18.972,31.281
			l13.258,25.047C126.695,304.359,165.771,283.181,158.624,243.848"/>
		<path fill="#131516" d="M103.593,224.16l11.877,4.951c0.368,0.153,0.738,0.293,1.11,0.418c1.845,0.621,3.602,1.479,5.077,2.749
			c4.073,3.51,7.982,8.833,9.426,16.778c3.424,18.852-18.122,30.82-18.971,31.281l13.257,25.047
			c1.666-0.883,40.742-22.06,33.595-61.393c-2.913-16.041-10.976-26.657-19.349-33.588c-0.516-6.122-4.331-11.754-10.394-14.281
			c0,0-55.749-36.858-42.015-17.513C100.94,197.953,103.593,224.16,103.593,224.16"/>
		<path fill="#131516" d="M128.444,195.701l-42.015-17.513c-7.936-3.308-16.935-0.14-21.174,7.067l-1.865,5.516
			c0,0,21.027,25.254,73.722,24.928l1.886-5.58c-0.053-0.045-0.106-0.093-0.16-0.138
			C138.321,203.859,134.506,198.228,128.444,195.701"/>
		<path fill="#9E8F63" d="M145.393,164.842l2.714-12.444c5.52-4.133,13.11-12.939,13.713-30.316
			c0.001-0.012,0.001-0.025,0.002-0.037c0.083-1.625,2.217-2.235,3.292-1.014l3.331,3.783c1.731,1.966,2.529,4.615,2.054,7.191
			C165.725,157.967,146.329,164.54,145.393,164.842"/>
		<path fill="#BCAC77" d="M148.446,167.502l4.429-13.095c2.149-1.618,4.604-3.926,6.817-7.125l7.974,5.516
			C160.209,163.579,151.489,166.541,148.446,167.502"/>
		<path fill="#252533" d="M162.553,138.606l-10.309,30.491l-9.02,26.674l-5.358,15.836c-52.691,0.327-73.722-24.93-73.722-24.93
			l16.989-50.353l3.555-10.54l4.638-13.741c3.236-9.588,12.438-16.076,22.535-15.402c2.623,0.173,5.357,0.688,8.127,1.623
			l27.153,9.185C160.007,111.8,166.903,125.75,162.553,138.606"/>
		<g opacity="0.52">
			<g>
				<defs>
					<rect id="SVGID_3_" x="120.5" y="115.689" width="40.958" height="38.778"/>
				</defs>
				<clipPath id="SVGID_4_">
					<use xlink:href="#SVGID_3_"  overflow="visible"/>
				</clipPath>
				<polygon clip-path="url(#SVGID_4_)" fill="#131516" points="120.5,154.467 151.787,115.689 161.458,124.767 151.269,131.557 
					146.113,131.723 145.858,138.499 				"/>
			</g>
		</g>
		<g opacity="0.52">
			<g>
				<defs>
					<rect id="SVGID_5_" x="106.884" y="104.398" width="13.616" height="50.069"/>
				</defs>
				<clipPath id="SVGID_6_">
					<use xlink:href="#SVGID_5_"  overflow="visible"/>
				</clipPath>
				<polygon clip-path="url(#SVGID_6_)" fill="#131516" points="120.5,154.467 119.875,104.399 106.884,104.701 110.298,117.06 
					114.201,120.432 110.137,125.86 				"/>
			</g>
		</g>
		<g opacity="0.52">
			<g>
				<defs>
					<rect id="SVGID_7_" x="80.964" y="125.784" width="71.28" height="69.986"/>
				</defs>
				<clipPath id="SVGID_8_">
					<use xlink:href="#SVGID_7_"  overflow="visible"/>
				</clipPath>
				<polygon clip-path="url(#SVGID_8_)" fill="#131516" points="152.244,169.097 143.224,195.77 81.133,136.324 80.964,136.166 
					84.688,125.784 				"/>
			</g>
		</g>
		<g opacity="0.52">
			<g>
				<defs>
					<rect id="SVGID_9_" x="102.323" y="151.973" width="19.928" height="57.478"/>
				</defs>
				<clipPath id="SVGID_10_">
					<use xlink:href="#SVGID_9_"  overflow="visible"/>
				</clipPath>
				<path clip-path="url(#SVGID_10_)" fill="#131516" d="M119.776,152.843c-5.796,18.358-11.592,36.715-17.389,55.073
					c-0.485,1.538,1.928,2.196,2.411,0.664c5.796-18.357,11.593-36.715,17.389-55.072
					C122.672,151.971,120.259,151.313,119.776,152.843"/>
			</g>
		</g>
		<path fill="#BCAC77" d="M78.375,143.398l3.481-10.294c9.891,0.55,14.386-7.799,16.685-11.123l8.287,5.732
			C99.078,138.918,88.042,144.896,78.375,143.398"/>
		<polygon fill="#FFFFFF" points="121.068,102.609 120.501,154.467 152.815,113.843 		"/>
		<path fill="#AFA2A0" d="M150.931,118.929l-0.141-0.142c-8.24-8.296-19.81-12.388-31.433-11.117l-0.186,0.02l-0.117,14.187
			l14.541-4.45l8.504,12.605L150.931,118.929z"/>
		<polygon fill="#323244" points="120.485,154.467 121.928,99.657 108.936,99.96 112.35,112.319 116.254,115.691 112.19,121.118 		
			"/>
		<path fill="#9E8F63" d="M88.604,142.396l2.6-11.921c5.737-4.295,13.846-14.459,14.473-32.519c0.044-1.272,1.106-2.276,2.38-2.275
			l5.313,0.003c1.358,0.001,2.426,1.136,2.382,2.493C114.607,133.599,89.687,142.046,88.604,142.396"/>
		<polygon fill="#070404" points="127.1,146.151 120.486,154.466 120.602,143.85 136.927,108.225 		"/>
		<path fill="#070404" d="M132.187,121.355l0.055,0.02c1.608,0.568,3.399,0.011,4.4-1.37l3.976-5.484
			c1.509-2.082,0.591-5.03-1.833-5.888l-3.671-1.299c-2.424-0.858-4.991,0.857-5.128,3.425l-0.359,6.763
			C129.537,119.226,130.579,120.786,132.187,121.355"/>
		<path fill="#FFFFFF" d="M152.814,113.843l-0.141-0.142c-8.24-8.296-19.81-12.388-31.433-11.117l-0.186,0.02l-0.118,14.187
			l14.208-3.508l8.838,11.663L152.814,113.843z"/>
		<polygon fill="#323244" points="120.486,154.465 153.84,110.947 163.511,120.025 153.321,126.815 148.166,126.981 
			147.911,133.757 		"/>
		<path fill="#774320" d="M110.027,69.606c0,0-7.634-53.617,22.817-54.641c15.668-20.624,86.478,9.84,59.795,46.367L110.027,69.606z
			"/>
		<path fill="#FF9E5C" d="M145.776,108.173c-1.69,4.055-6.348,5.972-10.403,4.282l-1.836-0.765
			c-4.054-1.691-5.971-6.349-4.282-10.403l5.193-12.457c1.69-4.054,6.348-5.971,10.402-4.281l1.836,0.765
			c4.055,1.691,5.972,6.348,4.282,10.402L145.776,108.173z"/>
		<path fill="#FFB37B" d="M174.649,30.413l-21.575-7.01c-14.005-4.551-29.217,3.637-33.977,18.288L117.047,48
			c-0.023,0.068-0.097,0.101-0.158,0.071c-0.417-0.205-0.846-0.391-1.3-0.539l-0.252-0.082c-5.514-1.791-11.503,1.432-13.378,7.201
			l-0.068,0.21c-1.873,5.764,1.075,11.888,6.586,13.679l0.259,0.084c0.464,0.151,0.931,0.254,1.398,0.333
			c0.066,0.011,0.105,0.077,0.086,0.144c-4.058,14.274,3.37,29.143,16.981,33.565l21.683,7.046
			c14.006,4.55,29.218-3.638,33.978-18.288l8.527-26.245C196.149,50.529,188.654,34.963,174.649,30.413"/>
		<path fill="#774320" d="M122.617,59.127c4.056-12.483,6.552-29.037,20.31-33.951c6.967-2.488,13.109-0.469,19.646,1.654
			c5.323,1.73,10.678,3.363,15.969,5.189c5.708,1.97,8.717-7.189,3.008-9.257c-5.759-2.087-11.649-3.785-17.473-5.677
			c-8.314-2.702-16.328-4.012-24.917-0.646c-9.558,3.745-16.321,11.895-19.537,21.792c-1.951,6.007-3.903,12.014-5.855,18.021
			C111.828,62.221,120.678,65.096,122.617,59.127"/>
		<path fill="#131516" d="M147.681,65.376c-0.599,1.842-2.165,2.985-3.499,2.551c-1.334-0.433-1.93-2.278-1.331-4.12
			c0.598-1.843,2.165-2.985,3.498-2.552C147.683,61.688,148.28,63.534,147.681,65.376"/>
		<path fill="#131516" d="M174.826,74.195c-0.599,1.842-2.166,2.984-3.5,2.551c-1.333-0.433-1.929-2.278-1.331-4.121
			c0.599-1.842,2.165-2.984,3.499-2.551S175.425,72.353,174.826,74.195"/>
		<path fill="#774320" d="M182.107,63.556c-1.769-5.18-7.114-7.456-11.78-4.159c-1.031,0.727-0.044,2.441,0.997,1.705
			c3.586-2.533,7.491-1.083,8.878,2.979C180.61,65.278,182.52,64.764,182.107,63.556"/>
		<path fill="#774320" d="M144.128,52.479c3.45-2.398,7.594-1.609,9.003,2.593c0.402,1.2,2.311,0.685,1.905-0.525
			c-1.786-5.328-7.329-6.954-11.905-3.774C142.094,51.494,143.081,53.207,144.128,52.479"/>
		<path fill="#774320" d="M169.659,38.264c-27.971-9.088-37.737-13.926-46.064,11.705c0,0,6.67-39.424,32.235-34.996
			C181.395,19.402,197.63,47.352,169.659,38.264"/>
		<path fill="#E56533" d="M143.176,85.536c3.739,7.226,11.958,9.857,19.303,6.499c1.012-0.462,0.133-1.956-0.874-1.495
			c-6.546,2.993-13.657,0.455-16.934-5.878C144.159,83.672,142.664,84.547,143.176,85.536"/>
		<polygon fill="#8E1C1C" points="164.954,242.58 361.061,272.96 364.129,253.157 159.673,221.483 		"/>
		<path fill="#FF2424" d="M395.807,48.705L364.13,253.156l-204.458-31.675c1.039-6.71,2.392-13.29,4.038-19.734
			c2.793-10.972,6.455-21.546,10.875-31.659C211.296,86.169,301.017,34.02,395.807,48.705"/>
		<path fill="#FFFFFF" d="M370.331,213.126l7.424-47.919c-48.496-7.513-94.063,25.829-101.575,74.324l47.919,7.424
			C327.518,224.882,348.258,209.707,370.331,213.126"/>
		<path fill="#FFFFFF" d="M385.047,118.137l7.424-47.919c-48.865-7.57-97.753,4.342-137.658,33.541
			c-39.906,29.2-66.052,72.192-73.622,121.057l47.919,7.423C240.645,157.789,310.597,106.603,385.047,118.137"/>
		<g opacity="0.44">
			<g>
				<defs>
					<rect id="SVGID_11_" x="163.71" y="170.089" width="41.153" height="31.658"/>
				</defs>
				<clipPath id="SVGID_12_">
					<use xlink:href="#SVGID_11_"  overflow="visible"/>
				</clipPath>
				<path clip-path="url(#SVGID_12_)" fill="#5B0000" d="M204.699,183.163c-1.118,3.561-19.322,16.557-40.988,18.584
					c2.792-10.972,6.454-21.546,10.874-31.659l21.503,5.952l1.487,1.243C200.234,179.719,205.899,179.341,204.699,183.163"/>
			</g>
		</g>
		<path fill="#FFB37B" d="M191.294,167.466c1.281-0.561,3.363,0.001,5.789,0.04c0,0,6.726-3.081,6.347,0.416
			c-0.395,3.647-2.898,5.113-5.627,5.6c3.38,3.465,8.334,6.435,6.896,9.636c-2.738,6.096-12.426-3.141-12.426-3.141
			s2.48,3.017,6.172,5.397c5.723,3.69-1.839,8.23-7.26,4.67c1.949,5.465-4.397,8.836-8.794-4.302
			c-1.685-5.036,0.4-9.705,2.463-13.148C186.257,170.294,188.936,167.952,191.294,167.466"/>
		
			<rect x="180.21" y="163.328" transform="matrix(0.8707 0.4918 -0.4918 0.8707 109.2426 -67.6132)" fill="#FFFFFF" width="6.027" height="21.295"/>
		<path fill="#252533" d="M175.839,183.918l-86.215-54.166c-4.839-2.986,6.455-32.033,13.234-26.953l84.708,60.52L175.839,183.918z"
			/>
		<polygon fill="#C2B6D3" points="231.234,252.847 185.252,245.723 180.8,224.755 228.669,232.171 		"/>
		<polygon fill="#C2B6D3" points="326.267,267.569 280.285,260.446 275.833,239.477 323.702,246.893 		"/>
	</g>
</g>
</svg>
