<?xml version="1.0" encoding="utf-8"?>
<!-- Generator: Adobe Illustrator 17.0.1, SVG Export Plug-In . SVG Version: 6.00 Build 0)  -->
<!DOCTYPE svg PUBLIC "-//W3C//DTD SVG 1.1//EN" "http://www.w3.org/Graphics/SVG/1.1/DTD/svg11.dtd">
<svg version="1.1" id="Слой_1" xmlns="http://www.w3.org/2000/svg" xmlns:xlink="http://www.w3.org/1999/xlink" x="0px" y="0px"
	 width="283px" height="311.143px" viewBox="0 0 283 311.143" enable-background="new 0 0 283 311.143" xml:space="preserve">
<g id="Background_27_">
	<g id="Background_2_1_">
		<path fill="#FFCC00" d="M141.731,311.143c-76.903,0-139.469-62.565-139.469-139.47c0-76.903,62.565-139.469,139.469-139.469
			c76.904,0,139.47,62.565,139.47,139.469C281.201,248.577,218.635,311.143,141.731,311.143z M141.731,37.204
			c-74.146,0-134.469,60.322-134.469,134.469s60.322,134.47,134.469,134.47s134.47-60.323,134.47-134.47
			S215.878,37.204,141.731,37.204z"/>
	</g>
</g>
<g>
	<path fill="#FFB37B" d="M169.877,108.423l-2.558-3.753c-0.442-0.672,0.118-7.672-2.764-5.686c-2.426,1.669-2.083,5.686,0.352,9.149
		c0.441,0.627,0.316,1.489-0.293,1.955L169.877,108.423z"/>
	<path fill="#FF9E5C" d="M164.614,110.088c-0.01,0.007-0.02,0.015-0.029,0.022c-0.544,0.416-1.298,0.373-1.812-0.079
		c-1.578-1.385-3.877-1.528-4.861,0.503c-1.166,2.406,3.442,1.773,4.231,3.877c1.134,3.029,4.75,3.481,6.035,3.23l1.594,6.144
		l4.078-2.254l-1.796-5.38c1.839-0.772,2.486-9.866,0.212-10.111c-1.073-0.115-0.732,1.416-2.389,2.383L164.614,110.088z"/>
	<path fill="#FFB37B" d="M170.573,105.343c-1.158-2.267-8.479,0.307-8.317,4.679c0.163,4.372,3.768,4.659,4.458,2.09
		c0.689-2.571-0.192-2.811-0.192-2.811S171.491,107.141,170.573,105.343"/>
	<path fill="#FFB37B" d="M172.826,106.431c-0.724-0.88-4.248-1.422-6.031,1.299c-1.782,2.721-0.801,6.004,1.298,5.322
		c2.292-0.745,2.09-3.737,2.09-3.737S174.273,108.193,172.826,106.431"/>
	
		<line fill="none" stroke="#FFFFFF" stroke-width="5.32" stroke-miterlimit="10" x1="166.442" y1="121.217" x2="176.202" y2="116.871"/>
	<path fill="none" stroke="#252533" stroke-width="13.3" stroke-miterlimit="10" d="M124.911,162.265c0,0,27.304,2.629,43.264-6.944
		c15.961-9.575,3.193-36.764,3.193-36.764"/>
	<path fill="#323244" d="M143.428,165.181c0,4.516-8.228,8.176-18.377,8.176c-10.15,0-18.378-3.66-18.378-8.176
		c0-4.517,8.228-8.177,18.378-8.177C135.2,157.004,143.428,160.664,143.428,165.181"/>
	<path fill="#6B2A18" d="M89.113,305.347v-0.928c0-3.72,3.016-6.737,6.737-6.737h5.725c1.325,0,2.398-1.073,2.398-2.398v-0.049
		c0-1.325,1.075-2.399,2.399-2.399h11.678c1.325,0,2.399,1.074,2.399,2.399v10.112h-10.641v-1.264l-2.659,1.264H89.113z"/>
	<path fill="#6B2A18" d="M161.23,305.161v-0.929c0-3.72-3.016-6.736-6.737-6.736h-5.724c-1.325,0-2.399-1.074-2.399-2.399v-0.048
		c0-1.326-1.074-2.399-2.399-2.399h-11.678c-1.325,0-2.399,1.073-2.399,2.399v10.112h10.641v-1.265l2.66,1.265H161.23z"/>
	<polygon fill="#252533" points="121.136,294.218 121.165,216.001 128.834,216.001 129.04,294.218 146.641,293.946 143.495,199.782 
		106.54,199.782 103.701,293.946 	"/>
	<polygon fill="#131516" points="106.545,201.922 143.501,201.922 144.722,236.485 128.889,236.485 128.84,218.141 121.171,218.141 
		121.158,236.485 105.434,236.485 	"/>
	<path fill="#252533" d="M125.002,156.384c-25.103,0-21.988,15.315-21.988,15.315v59.7h43.771v-59.637
		C146.785,171.762,150.105,156.384,125.002,156.384"/>
	<path fill="#FFB37B" d="M104.429,211.969c0,0,2.027,0.32,4.517,1.235c2.465,0.906,4.368-2.215,0.08-3.703
		c-1.372-0.475-2.53-0.826-3.537-1.021c1.597-0.908,3.982-2.481,3.64-3.615c-0.865-2.867-4.113-1.13-6.39,1.2
		c-1.698,1.737-2.701,4.399-3.292,5.962c-0.158,0.352-0.315,0.724-0.473,1.136c-2.264,5.925,6.254,9.283,8.301,7.855
		c3.189-2.224-4.613-4.708-4.613-4.708s5.707,3.335,7.276,0.877C111.173,215.252,106.305,212.82,104.429,211.969"/>
	
		<line fill="none" stroke="#FFFFFF" stroke-width="5.32" stroke-miterlimit="10" x1="101.139" y1="203.865" x2="95.894" y2="213.173"/>
	<path fill="#252533" d="M95.701,214.546c-0.953-0.491-23.312-12.268-20.845-32.054c2.558-20.519,33.476-28.189,53.869-25.646
		l-1.646,13.198c-8.167-1.019-18.146,0.125-26.044,2.984c-3.651,1.322-12.225,5.05-12.98,11.11
		c-1.297,10.4,13.61,18.518,13.762,18.597L95.701,214.546z"/>
	<polygon fill="#FFFFFF" points="113.835,158.684 125.002,191.373 136.266,158.684 	"/>
	<path fill="#AFA2A0" d="M136.214,162.295l-0.12-0.058c-7.018-3.378-15.192-3.377-22.209,0.004l-0.111,0.054l3.078,8.935
		l8.142-6.026l8.141,6.026L136.214,162.295z"/>
	<polygon fill="#070404" points="127.298,184.685 124.993,191.375 122.707,184.684 125.041,158.686 	"/>
	<path fill="#070404" d="M124.983,167.984h0.039c1.136,0,2.137-0.748,2.459-1.838l1.277-4.327c0.485-1.643-0.746-3.29-2.459-3.29
		h-2.594c-1.712,0-2.944,1.647-2.458,3.29l1.277,4.327C122.846,167.236,123.847,167.984,124.983,167.984"/>
	<path fill="#FFFFFF" d="M136.266,158.684l-0.12-0.058c-7.018-3.379-15.192-3.377-22.208,0.004l-0.112,0.054l3.078,8.935l8.142-5.36
		l8.142,5.36L136.266,158.684z"/>
	<polygon fill="#323244" points="124.993,191.375 136.266,156.638 144.357,160.188 139.467,166.717 136.266,167.967 
		137.613,172.277 	"/>
	<polygon fill="#323244" points="124.993,191.376 113.72,156.639 105.629,159.716 110.519,166.718 113.72,167.968 112.373,172.279 	
		"/>
	<path fill="#323244" d="M124.337,192.969v37.365c0,0.856,1.33,0.858,1.33,0v-37.365
		C125.667,192.114,124.337,192.113,124.337,192.969"/>
	<path fill="#774320" d="M99.058,139.102c0,0-18.435-31.009,0.025-39.442c4.348-16.696,27.058-12.482,32.607-10.913
		c5.55,1.569,8.839-1.28,8.839-1.28c1.857,1.679,2.038,5.203,2.038,5.203l4.29-5.611c5.688,3.561,8.851,12.728,0.872,25.784
		L99.058,139.102z"/>
	<path fill="#FF9E5C" d="M130.92,156.653c0,2.926-2.372,5.298-5.298,5.298h-1.325c-2.926,0-5.299-2.372-5.299-5.298v-8.989
		c0-2.926,2.373-5.299,5.299-5.299h1.325c2.926,0,5.298,2.373,5.298,5.299V156.653z"/>
	<path fill="#FFB37B" d="M128.745,98.444l-15.062,1.22c-9.776,0.791-17.031,9.723-16.203,19.951l0.357,4.404
		c0.004,0.048-0.033,0.087-0.079,0.084c-0.308-0.019-0.62-0.023-0.937,0.002l-0.176,0.014c-3.849,0.312-6.706,3.829-6.38,7.856
		l0.012,0.147c0.326,4.024,3.708,7.033,7.555,6.721l0.181-0.014c0.324-0.026,0.637-0.082,0.945-0.154
		c0.043-0.009,0.084,0.021,0.09,0.067c1.163,9.816,9.54,17.055,19.042,16.285l15.137-1.226c9.776-0.791,17.031-9.723,16.203-19.951
		l-1.483-18.321C147.119,105.301,138.522,97.653,128.745,98.444"/>
	<path fill="#774320" d="M104.112,129.434c-0.706-8.715-3.413-19.532,3.786-26.079c3.646-3.316,7.94-3.649,12.503-4.018
		c3.715-0.3,7.427-0.669,11.148-0.902c4.014-0.252,3.517-6.654-0.524-6.463c-4.075,0.193-8.131,0.659-12.197,0.988
		c-5.804,0.47-11.067,1.718-15.485,5.989c-4.917,4.752-6.986,11.496-6.427,18.405c0.34,4.193,0.679,8.387,1.019,12.58
		C98.272,134.101,104.449,133.601,104.112,129.434"/>
	<path fill="#131516" d="M121.124,126.851c0.104,1.286-0.566,2.391-1.498,2.466c-0.931,0.075-1.77-0.906-1.874-2.193
		c-0.104-1.286,0.566-2.39,1.497-2.465C120.181,124.583,121.02,125.565,121.124,126.851"/>
	<path fill="#131516" d="M140.073,125.317c0.104,1.286-0.566,2.39-1.497,2.466c-0.931,0.075-1.771-0.906-1.875-2.193
		c-0.104-1.286,0.567-2.39,1.497-2.465C139.13,123.049,139.969,124.031,140.073,125.317"/>
	<path fill="#774320" d="M141.77,116.851c-2.463-2.753-6.315-2.602-8.298,0.586c-0.449,0.721,0.689,1.383,1.136,0.664
		c1.549-2.49,4.346-2.427,6.231-0.319C141.405,118.413,142.333,117.481,141.77,116.851"/>
	<path fill="#774320" d="M115.677,119.768c1.524-2.403,4.27-2.789,6.21-0.589c0.561,0.637,1.489-0.297,0.931-0.931
		c-2.507-2.842-6.318-2.234-8.277,0.856C114.086,119.821,115.224,120.482,115.677,119.768"/>
	<path fill="#774320" d="M146.137,93.182c0,0,1.077,9.788-18.449,11.368c-19.526,1.581-26.77,1.11-25.321,19.002
		c0,0-6.002-25.948,10.85-29.777C130.07,89.947,136.854,97.788,146.137,93.182"/>
	<path fill="#3F0400" d="M135.62,141.023c0,1.904-1.543,3.447-3.448,3.447c-1.904,0-3.447-1.543-3.447-3.447
		c0-1.904,1.543-3.448,3.447-3.448C134.077,137.575,135.62,139.119,135.62,141.023"/>
	<path fill="#FFDD50" d="M186.056,37.433c0-9.799-8.25-17.67-18.182-17.047c-8.456,0.53-15.353,7.378-15.939,15.83
		c-0.381,5.508,1.851,10.505,5.58,13.88c1.297,1.174,2.156,2.754,2.312,4.496l0.03,0.334c0,2.136,1.008,9.65,9.117,9.65
		c8.11,0,9.118-7.514,9.118-9.65l0.043-0.472c0.149-1.664,0.972-3.171,2.217-4.284C183.852,47.042,186.056,42.496,186.056,37.433"/>
	<path fill="none" stroke="#FFFFFF" stroke-miterlimit="10" d="M163.508,43.252l3.547,15.269h3.839l3.547-15.269
		C175.012,41.277,162.937,41.277,163.508,43.252z"/>
	<path fill="#9E9C97" d="M169.073,71.495h-0.197c-5.376,0-9.735-4.359-9.735-9.735v-3.722h19.667v3.722
		C178.808,67.136,174.449,71.495,169.073,71.495"/>
	<path fill="#F2F2E7" d="M159.141,58.844h19.667c1.037,0,1.039-1.611,0-1.611h-19.667C158.104,57.233,158.102,58.844,159.141,58.844
		"/>
	<path fill="#F2F2E7" d="M159.141,62.067h19.667c1.037,0,1.039-1.611,0-1.611h-19.667C158.104,60.456,158.102,62.067,159.141,62.067
		"/>
	<path fill="#FFDD50" d="M153.057,17.003c-0.715-0.715-1.431-1.431-2.147-2.146c-0.926-0.927-2.622-0.996-3.535,0
		c-0.916,0.997-0.988,2.547,0,3.535c0.715,0.715,1.431,1.431,2.147,2.147c0.926,0.926,2.622,0.995,3.535,0
		C153.974,19.541,154.045,17.991,153.057,17.003"/>
	<path fill="#FFDD50" d="M145.589,26.701c-3.439-1.378-6.878-2.757-10.317-4.136c-2.986-1.197-4.284,3.637-1.329,4.822
		c3.439,1.378,6.878,2.756,10.316,4.135C147.246,32.72,148.544,27.886,145.589,26.701"/>
	<path fill="#FFDD50" d="M188.391,20.539c1.051-1.051,2.102-2.102,3.153-3.153c0.926-0.926,0.995-2.622,0-3.535
		c-0.998-0.917-2.547-0.989-3.535,0c-1.051,1.05-2.102,2.102-3.154,3.152c-0.925,0.927-0.994,2.623,0,3.536
		C185.853,21.455,187.403,21.527,188.391,20.539"/>
	<path fill="#FFDD50" d="M193.767,31.522c3.494-1.162,6.987-2.325,10.481-3.487c3.039-1.011,1.736-5.841-1.329-4.822
		c-3.494,1.163-6.987,2.325-10.481,3.488C189.399,27.711,190.702,32.543,193.767,31.522"/>
	<path fill="#FFFFFF" d="M184.11,53.386c0.739,0.739,1.478,1.478,2.216,2.217c0.521,0.52,1.33-0.287,0.809-0.809
		c-0.739-0.738-1.478-1.477-2.217-2.216C184.398,52.057,183.589,52.865,184.11,53.386"/>
	<path fill="#FFDD50" d="M192.519,48.349c2.037,0.678,4.075,1.355,6.112,2.033c3.06,1.019,4.372-3.808,1.329-4.821
		c-2.037-0.678-4.075-1.356-6.112-2.033C190.788,42.509,189.476,47.336,192.519,48.349"/>
	<path fill="#FFDD50" d="M149.716,54.511c-1.051,1.052-2.102,2.103-3.153,3.153c-0.926,0.926-0.995,2.622,0,3.536
		c0.998,0.916,2.547,0.988,3.535,0c1.052-1.051,2.102-2.102,3.154-3.153c0.925-0.926,0.995-2.622,0-3.536
		C152.254,53.595,150.704,53.524,149.716,54.511"/>
	<path fill="#FFDD50" d="M144.341,43.527c-2.576,0.857-5.152,1.714-7.729,2.571c-3.038,1.011-1.736,5.841,1.33,4.822
		c2.576-0.858,5.152-1.714,7.728-2.572C148.709,47.338,147.406,42.507,144.341,43.527"/>
	<path fill="#FFDD50" d="M171.456,13.443V2.414c0-3.217-5-3.222-5,0v11.029C166.456,16.66,171.456,16.666,171.456,13.443"/>
</g>
</svg>
