<?xml version="1.0" encoding="utf-8"?>
<!-- Generator: Adobe Illustrator 17.0.1, SVG Export Plug-In . SVG Version: 6.00 Build 0)  -->
<!DOCTYPE svg PUBLIC "-//W3C//DTD SVG 1.1//EN" "http://www.w3.org/Graphics/SVG/1.1/DTD/svg11.dtd">
<svg version="1.1" id="Planning_2_" xmlns="http://www.w3.org/2000/svg" xmlns:xlink="http://www.w3.org/1999/xlink" x="0px"
	 y="0px" width="204.667px" height="206px" viewBox="0 0 204.667 206" enable-background="new 0 0 204.667 206"
	 xml:space="preserve">
<g id="Background">
	
		<circle id="Background_2" fill="none" stroke="#FFCC00" stroke-width="3" stroke-miterlimit="10" cx="102.457" cy="103.585" r="99.917"/>
</g>
<g id="Planning" display="none">
	<g display="inline">
		<polygon fill-rule="evenodd" clip-rule="evenodd" fill="#E5E6E7" points="50.179,61.28 50.179,61.28 102.653,134.228 
			47.701,173.754 -4.783,100.825 		"/>
		<path fill-rule="evenodd" clip-rule="evenodd" fill="#CCCCCC" d="M25.834,131.051l42.865-30.847l1.548,2.151l-42.869,30.833
			L25.834,131.051z M11.561,111.195l42.851-30.842l1.548,2.15l-42.855,30.829L11.561,111.195z M18.703,121.114l42.855-30.829
			l1.543,2.136l-42.865,30.847L18.703,121.114z M47.263,160.821l42.85-30.843l1.548,2.15l-42.855,30.829L47.263,160.821z
			 M40.117,150.888l42.869-30.833l1.529,2.14l-42.851,30.843L40.117,150.888z M32.976,140.969l42.865-30.847l1.547,2.15
			L34.523,143.12L32.976,140.969z"/>
		<polygon fill-rule="evenodd" clip-rule="evenodd" fill="#FEFEFE" points="150.297,18.45 150.297,18.45 186.896,145.141 
			91.45,172.714 54.851,46.023 		"/>
		<path fill-rule="evenodd" clip-rule="evenodd" fill="#CCCCCC" d="M80.927,95.766l74.446-21.501l1.074,3.724L82.001,99.49
			L80.927,95.766z M70.971,61.296l74.428-21.511l1.088,3.72L72.045,65.02L70.971,61.296z M75.956,78.529l74.432-21.497l1.074,3.724
			L77.03,82.253L75.956,78.529z M95.873,147.482l74.428-21.511l1.078,3.739l-74.432,21.497L95.873,147.482z M90.883,130.235
			l74.447-21.501l1.074,3.724l-74.443,21.515L90.883,130.235z M85.912,112.998l74.432-21.497l1.074,3.724l-74.432,21.497
			L85.912,112.998z"/>
	</g>
	<g display="inline">
		<rect x="3.611" y="112.937" fill-rule="evenodd" clip-rule="evenodd" fill="#FEFEFE" width="59.158" height="65.121"/>
		<path fill-rule="evenodd" clip-rule="evenodd" fill="#F16858" d="M63.136,112.937H33.19H3.243c-1.186,0-2.155-0.969-2.155-2.155
			v-3.173c0-1.186,0.969-2.154,2.155-2.154h21.612c-0.033-0.301-0.05-0.601-0.05-0.902c0-4.626,3.758-8.384,8.384-8.384
			c4.627,0,8.385,3.758,8.385,8.384c0,0.301-0.017,0.601-0.05,0.902h21.612c1.186,0,2.154,0.968,2.154,2.154v3.173
			C65.291,111.968,64.322,112.937,63.136,112.937L63.136,112.937z M33.19,101.33c-1.787,0-3.24,1.436-3.24,3.223
			c0,1.787,1.453,3.24,3.24,3.24c1.787,0,3.223-1.453,3.223-3.24C36.413,102.766,34.977,101.33,33.19,101.33L33.19,101.33z"/>
		<path fill-rule="evenodd" clip-rule="evenodd" fill="#C02729" d="M63.136,112.937H33.19H3.243c-1.186,0-2.155-0.969-2.155-2.155
			v-0.017h64.202v0.017C65.291,111.968,64.322,112.937,63.136,112.937L63.136,112.937z"/>
		<polygon fill-rule="evenodd" clip-rule="evenodd" fill="#D0D2D4" points="53.098,178.058 62.769,168.371 53.098,168.505 		"/>
		<g>
			<path fill-rule="evenodd" clip-rule="evenodd" fill="#7C7C7C" d="M49.407,124.194H20.981c-0.785,0-1.453,0.651-1.453,1.453l0,0
				c0,0.802,0.668,1.453,1.453,1.453h28.427c0.802,0,1.453-0.651,1.453-1.453l0,0C50.86,124.846,50.209,124.194,49.407,124.194
				L49.407,124.194z"/>
			<path fill-rule="evenodd" clip-rule="evenodd" fill="#7C7C7C" d="M55.637,140.496H31.269c-0.802,0-1.453,0.651-1.453,1.453l0,0
				c0,0.801,0.651,1.453,1.453,1.453h24.368c0.785,0,1.453-0.652,1.453-1.453l0,0C57.09,141.147,56.422,140.496,55.637,140.496
				L55.637,140.496z"/>
			<path fill-rule="evenodd" clip-rule="evenodd" fill="#08C6A2" d="M16.02,118.95c3.691,0,6.681,3.007,6.681,6.697
				c0,3.691-2.989,6.681-6.681,6.681c-3.691,0-6.697-2.99-6.697-6.681C9.323,121.956,12.329,118.95,16.02,118.95L16.02,118.95z
				 M15.619,122.842v6.263c0,0.2,0.167,0.367,0.368,0.367c0.2,0,0.367-0.167,0.367-0.367v-6.915c0-0.2-0.167-0.367-0.367-0.367
				c-0.067,0-0.134,0.017-0.217,0.067l-1.753,1.219c-0.101,0.067-0.151,0.183-0.151,0.3c0,0.184,0.167,0.351,0.351,0.351
				c0.084,0,0.15-0.017,0.217-0.067L15.619,122.842z"/>
			<path fill-rule="evenodd" clip-rule="evenodd" fill="#7C7C7C" d="M49.407,156.796H20.981c-0.785,0-1.453,0.652-1.453,1.453l0,0
				c0,0.802,0.668,1.454,1.453,1.454h28.427c0.802,0,1.453-0.651,1.453-1.454l0,0C50.86,157.448,50.209,156.796,49.407,156.796
				L49.407,156.796z"/>
			<path fill-rule="evenodd" clip-rule="evenodd" fill="#08C6A2" d="M25.273,135.25c3.691,0,6.697,3.007,6.697,6.698
				c0,3.691-3.007,6.681-6.697,6.681c-3.691,0-6.681-2.99-6.681-6.681C18.592,138.257,21.582,135.25,25.273,135.25L25.273,135.25z
				 M23.069,139.493c-0.034,0.067-0.034,0.117-0.034,0.117c0,0.201,0.167,0.351,0.351,0.351c0.15,0,0.25-0.083,0.317-0.216
				c0.267-0.569,0.668-1.036,1.587-1.036c1.052,0,1.637,0.651,1.637,1.503c0,2.422-4.142,2.69-4.142,5.128
				c0,0.183,0.15,0.35,0.351,0.35h4.293c0.183,0,0.334-0.167,0.334-0.35c0-0.184-0.151-0.351-0.334-0.351h-3.892
				c0-1.32,4.125-2.104,4.125-4.777c0-1.303-0.885-2.154-2.371-2.154C24.137,138.057,23.369,138.592,23.069,139.493L23.069,139.493z
				"/>
			<path fill-rule="evenodd" clip-rule="evenodd" fill="#08C6A2" d="M16.02,151.552c3.691,0,6.681,2.989,6.681,6.697
				c0,3.691-2.989,6.681-6.681,6.681c-3.691,0-6.697-2.99-6.697-6.681C9.323,154.541,12.329,151.552,16.02,151.552L16.02,151.552z
				 M16.054,157.364l2.088-2.372c0.067-0.084,0.084-0.15,0.084-0.234c0-0.184-0.15-0.334-0.334-0.334h-3.624
				c-0.184,0-0.334,0.15-0.334,0.334c0,0.184,0.151,0.334,0.334,0.334h2.873l-2.054,2.372c-0.05,0.067-0.083,0.134-0.083,0.233
				c0,0.201,0.15,0.335,0.334,0.335h0.785c1.253,0,1.671,0.735,1.671,1.737c0,1.035-0.601,1.62-1.837,1.62
				c-0.902,0-1.47-0.368-1.804-0.935c-0.083-0.134-0.2-0.167-0.301-0.167c-0.184,0-0.334,0.134-0.334,0.334
				c0,0.067,0.017,0.134,0.05,0.183c0.434,0.719,1.202,1.253,2.389,1.253c1.687,0,2.572-0.835,2.572-2.288
				c0-1.236-0.551-2.405-2.355-2.405H16.054z"/>
		</g>
	</g>
	<g display="inline">
		<path fill-rule="evenodd" clip-rule="evenodd" fill="#FEFEFE" d="M78.954,47.689h104.422c2.196,0,4.025,1.803,4.025,4.024v69.188
			c0,2.221-1.829,4.025-4.025,4.025H78.954c-2.221,0-4.051-1.804-4.051-4.025V51.713C74.903,49.492,76.733,47.689,78.954,47.689
			L78.954,47.689z"/>
		<path fill-rule="evenodd" clip-rule="evenodd" fill="#FAB943" d="M79.582,29.784h103.14c2.561,0,4.678,2.117,4.678,4.679v16.231
			c0,2.561-2.117,4.653-4.678,4.653H79.582c-2.562,0-4.679-2.092-4.679-4.653V34.463C74.903,31.901,77.02,29.784,79.582,29.784
			L79.582,29.784z"/>
		<g>
			<path fill-rule="evenodd" clip-rule="evenodd" fill="#686868" d="M88.26,39.194c1.986,0,3.606-1.62,3.606-3.607
				c0-1.986-1.62-3.607-3.606-3.607c-2.014,0-3.633,1.621-3.633,3.607C84.627,37.574,86.246,39.194,88.26,39.194L88.26,39.194z"/>
			<path fill-rule="evenodd" clip-rule="evenodd" fill="#686868" d="M102.557,39.194c1.986,0,3.607-1.62,3.607-3.607
				c0-1.986-1.621-3.607-3.607-3.607c-1.987,0-3.607,1.621-3.607,3.607C98.949,37.574,100.57,39.194,102.557,39.194L102.557,39.194z
				"/>
			<path fill-rule="evenodd" clip-rule="evenodd" fill="#686868" d="M116.855,39.194c1.986,0,3.606-1.62,3.606-3.607
				c0-1.986-1.62-3.607-3.606-3.607c-1.987,0-3.607,1.621-3.607,3.607C113.248,37.574,114.868,39.194,116.855,39.194L116.855,39.194
				z"/>
			<path fill-rule="evenodd" clip-rule="evenodd" fill="#686868" d="M131.152,39.194c1.987,0,3.607-1.62,3.607-3.607
				c0-1.986-1.621-3.607-3.607-3.607c-1.987,0-3.606,1.621-3.606,3.607C127.545,37.574,129.165,39.194,131.152,39.194
				L131.152,39.194z"/>
			<path fill-rule="evenodd" clip-rule="evenodd" fill="#686868" d="M145.449,39.194c1.986,0,3.607-1.62,3.607-3.607
				c0-1.986-1.622-3.607-3.607-3.607c-1.987,0-3.607,1.621-3.607,3.607C141.842,37.574,143.463,39.194,145.449,39.194
				L145.449,39.194z"/>
			<path fill-rule="evenodd" clip-rule="evenodd" fill="#686868" d="M159.748,39.194c2.012,0,3.632-1.62,3.632-3.607
				c0-1.986-1.62-3.607-3.632-3.607c-1.987,0-3.607,1.621-3.607,3.607C156.14,37.574,157.761,39.194,159.748,39.194L159.748,39.194z
				"/>
			<path fill-rule="evenodd" clip-rule="evenodd" fill="#686868" d="M174.07,39.194c1.986,0,3.607-1.62,3.607-3.607
				c0-1.986-1.621-3.607-3.607-3.607c-1.987,0-3.632,1.621-3.632,3.607C170.438,37.574,172.084,39.194,174.07,39.194L174.07,39.194z
				"/>
		</g>
		<g>
			<path fill-rule="evenodd" clip-rule="evenodd" fill="#FEFEFE" d="M88.364,23.381L88.364,23.381c1.489,0,2.692,1.229,2.692,2.692
				v7.528c0,1.489-1.203,2.692-2.692,2.692l0,0c-1.491,0-2.692-1.203-2.692-2.692v-7.528C85.672,24.609,86.873,23.381,88.364,23.381
				L88.364,23.381z"/>
			<path fill-rule="evenodd" clip-rule="evenodd" fill="#FEFEFE" d="M102.662,23.381L102.662,23.381c1.49,0,2.692,1.229,2.692,2.692
				v7.528c0,1.489-1.203,2.692-2.692,2.692l0,0c-1.49,0-2.692-1.203-2.692-2.692v-7.528C99.97,24.609,101.172,23.381,102.662,23.381
				L102.662,23.381z"/>
			<path fill-rule="evenodd" clip-rule="evenodd" fill="#FEFEFE" d="M116.959,23.381L116.959,23.381c1.49,0,2.692,1.229,2.692,2.692
				v7.528c0,1.489-1.202,2.692-2.692,2.692l0,0c-1.49,0-2.692-1.203-2.692-2.692v-7.528
				C114.266,24.609,115.469,23.381,116.959,23.381L116.959,23.381z"/>
			<path fill-rule="evenodd" clip-rule="evenodd" fill="#FEFEFE" d="M131.257,23.381L131.257,23.381c1.49,0,2.718,1.229,2.718,2.692
				v7.528c0,1.489-1.228,2.692-2.718,2.692l0,0c-1.464,0-2.692-1.203-2.692-2.692v-7.528
				C128.565,24.609,129.793,23.381,131.257,23.381L131.257,23.381z"/>
			<path fill-rule="evenodd" clip-rule="evenodd" fill="#FEFEFE" d="M145.58,23.381L145.58,23.381c1.465,0,2.692,1.229,2.692,2.692
				v7.528c0,1.489-1.227,2.692-2.692,2.692l0,0c-1.49,0-2.719-1.203-2.719-2.692v-7.528C142.861,24.609,144.09,23.381,145.58,23.381
				L145.58,23.381z"/>
			<path fill-rule="evenodd" clip-rule="evenodd" fill="#FEFEFE" d="M159.878,23.381L159.878,23.381
				c1.463,0,2.692,1.229,2.692,2.692v7.528c0,1.489-1.229,2.692-2.692,2.692l0,0c-1.491,0-2.693-1.203-2.693-2.692v-7.528
				C157.185,24.609,158.387,23.381,159.878,23.381L159.878,23.381z"/>
			<path fill-rule="evenodd" clip-rule="evenodd" fill="#FEFEFE" d="M174.175,23.381L174.175,23.381c1.49,0,2.692,1.229,2.692,2.692
				v7.528c0,1.489-1.202,2.692-2.692,2.692l0,0c-1.49,0-2.691-1.203-2.691-2.692v-7.528
				C171.484,24.609,172.685,23.381,174.175,23.381L174.175,23.381z"/>
		</g>
		<g>
			<rect x="85.175" y="66.979" fill-rule="evenodd" clip-rule="evenodd" fill="#F26D6E" width="11.214" height="11.239"/>
			<rect x="85.175" y="85.771" fill-rule="evenodd" clip-rule="evenodd" fill="#F26D6E" width="11.214" height="11.214"/>
			<rect x="105.432" y="66.979" fill-rule="evenodd" clip-rule="evenodd" fill="#808184" width="11.213" height="11.239"/>
			<rect x="105.432" y="85.771" fill-rule="evenodd" clip-rule="evenodd" fill="#808184" width="11.213" height="11.214"/>
			<rect x="125.689" y="66.979" fill-rule="evenodd" clip-rule="evenodd" fill="#808184" width="11.213" height="11.239"/>
			<rect x="125.689" y="85.771" fill-rule="evenodd" clip-rule="evenodd" fill="#808184" width="11.213" height="11.214"/>
			<rect x="145.947" y="66.979" fill-rule="evenodd" clip-rule="evenodd" fill="#808184" width="11.213" height="11.239"/>
			<rect x="145.947" y="85.771" fill-rule="evenodd" clip-rule="evenodd" fill="#808184" width="11.213" height="11.214"/>
			<rect x="166.203" y="85.771" fill-rule="evenodd" clip-rule="evenodd" fill="#808184" width="11.214" height="11.214"/>
			<rect x="85.175" y="104.565" fill-rule="evenodd" clip-rule="evenodd" fill="#F26D6E" width="11.214" height="11.214"/>
			<rect x="105.432" y="104.565" fill-rule="evenodd" clip-rule="evenodd" fill="#808184" width="11.213" height="11.214"/>
			<rect x="125.689" y="104.565" fill-rule="evenodd" clip-rule="evenodd" fill="#808184" width="11.213" height="11.214"/>
			<rect x="145.947" y="104.565" fill-rule="evenodd" clip-rule="evenodd" fill="#808184" width="11.213" height="11.214"/>
			<rect x="166.203" y="104.565" fill-rule="evenodd" clip-rule="evenodd" fill="#808184" width="11.214" height="11.214"/>
			<path fill-rule="evenodd" clip-rule="evenodd" fill="#ADECF7" d="M172.764,81.433c6.011,0,10.873-4.888,10.873-10.874
				c0-5.986-4.862-10.874-10.873-10.874c-5.986,0-10.874,4.888-10.874,10.874C161.89,76.545,166.778,81.433,172.764,81.433
				L172.764,81.433z"/>
			<polygon fill-rule="evenodd" clip-rule="evenodd" fill="#F26D6E" points="166.752,68.233 172.398,77.878 185.754,56.001 
				172.738,70.926 			"/>
		</g>
	</g>
	<g display="inline">
		<path fill-rule="evenodd" clip-rule="evenodd" fill="#FBC081" d="M88.953,183.77l9.004,2.427
			c7.034-3.814,7.905-7.694,0.475-11.636l-9.199,2.147C72.125,180.703,72.545,179.255,88.953,183.77L88.953,183.77z"/>
		<path fill-rule="evenodd" clip-rule="evenodd" fill="#4D4D4D" d="M84.56,177.664c-11.208,2.487-11.004,2.173-0.168,4.992
			c1.045-0.654,1.708-1.513,1.737-2.466C86.175,179.24,85.569,178.346,84.56,177.664L84.56,177.664z"/>
		<path fill-rule="evenodd" clip-rule="evenodd" fill="#B96F2D" d="M155.23,179.056l-5.461-0.074l-48.163-0.753
			c-2.471-0.05-4.462-1.079-4.412-2.315l0,0c0.05-1.219,2.118-2.193,4.589-2.159l53.64,0.844c0.201,0.003,0.401,0.005,0.584,0.025
			l5.511,0.091c2.121,0.029,3.813,0.92,3.782,1.972l-0.118,2.537L155.23,179.056z"/>
		<path fill-rule="evenodd" clip-rule="evenodd" fill="#E4883A" d="M155.238,178.454l-5.461-0.091l-48.162-0.803
			c-2.471-0.05-4.541,1.058-4.593,2.46l0,0c-0.052,1.386,1.936,2.565,4.408,2.599l48.162,0.803l5.461,0.091l9.953,0.168l0.186-5.059
			L155.238,178.454z"/>
		<path fill-rule="evenodd" clip-rule="evenodd" fill="#F99E3F" d="M154.875,187.987l-2.154-0.046l-51.468-0.864
			c-2.472-0.033-4.46-1.229-4.408-2.649l0,0c0.053-1.419,2.106-2.543,4.594-2.51l48.162,0.819l5.461,0.091l9.953,0.168l-0.107,2.972
			c-0.048,1.102-1.514,2-3.387,2.125L154.875,187.987z"/>
		<path fill-rule="evenodd" clip-rule="evenodd" fill="#F1698D" d="M175.166,178.34l-0.274,6.695
			c-0.075,1.853-1.632,3.335-3.486,3.293l-8.701-0.134c-1.854-0.025-3.303-1.548-3.228-3.401l0.274-6.694
			c0.075-1.836,1.649-3.335,3.486-3.294l8.717,0.135C173.793,174.965,175.241,176.487,175.166,178.34L175.166,178.34z"/>
		<path fill-rule="evenodd" clip-rule="evenodd" fill="#D85E7F" d="M165.139,176.3l-0.477,10.533
			c-0.028,0.785-0.704,1.428-1.506,1.417l-2.873-0.039c-0.785-0.011-1.41-0.671-1.366-1.456l0.46-10.533
			c0.044-0.784,0.721-1.427,1.505-1.416l2.873,0.039C164.54,174.856,165.166,175.516,165.139,176.3L165.139,176.3z"/>
	</g>
	<path display="inline" fill="#808184" d="M36.33,88.77c0,1.002-0.818,1.82-1.82,1.82c-1.019,0-1.837-0.818-1.837-1.82v-3.658
		c0-1.019,0.819-1.837,1.837-1.837c1.002,0,1.82,0.818,1.82,1.837V88.77z M36.33,74.139c0,1.019-0.818,1.838-1.82,1.838
		c-1.019,0-1.837-0.819-1.837-1.838v-3.641c0-1.019,0.819-1.837,1.837-1.837c1.002,0,1.82,0.818,1.82,1.837V74.139z M36.33,59.525
		c0,1.019-0.818,1.837-1.82,1.837c-1.019,0-1.837-0.819-1.837-1.837v-3.641c0-1.019,0.819-1.837,1.837-1.837
		c1.002,0,1.82,0.818,1.82,1.837V59.525z M36.33,44.91c0,1.019-0.818,1.837-1.82,1.837c-1.019,0-1.837-0.818-1.837-1.837v-3.657
		c0-1.002,0.819-1.821,1.837-1.821c1.002,0,1.82,0.819,1.82,1.821V44.91z M36.33,30.296c0,1.002-0.818,1.821-1.82,1.821
		c-1.019,0-1.837-0.818-1.837-1.821v-3.657c0-1.002,0.819-1.821,1.837-1.821c1.002,0,1.82,0.819,1.82,1.821V30.296z M36.363,15.799
		c-0.067,1.019-0.952,1.771-1.954,1.704c-1.002-0.067-1.754-0.952-1.687-1.954v-0.05v-0.117l0.017-0.117l0.017-0.117v-0.117
		l0.017-0.134l0.017-0.117l0.017-0.117v-0.117l0.017-0.117l0.017-0.117l0.017-0.117l0.017-0.117l0.017-0.117l0.017-0.117
		l0.017-0.117l0.033-0.117l0.017-0.117l0.017-0.117l0.017-0.117l0.034-0.117l0.017-0.117l0.033-0.1l0.017-0.117l0.033-0.117
		l0.017-0.117l0.033-0.117l0.034-0.117l0.017-0.117l0.033-0.1l0.034-0.117l0.034-0.117l0.017-0.1l0.034-0.117l0.033-0.101
		c0.284-0.968,1.303-1.52,2.271-1.236c0.969,0.284,1.52,1.286,1.236,2.255l-0.017,0.083l-0.033,0.084l-0.017,0.1l-0.033,0.084
		l-0.017,0.1l-0.033,0.083l-0.017,0.1l-0.017,0.084l-0.033,0.084l-0.017,0.1l-0.017,0.083l-0.017,0.1l-0.017,0.1l-0.034,0.083
		l-0.017,0.1l-0.017,0.084l-0.017,0.1l-0.017,0.084l-0.017,0.1l-0.017,0.1l-0.017,0.084v0.1l-0.017,0.1l-0.017,0.084l-0.017,0.1v0.1
		l-0.017,0.084l-0.017,0.1v0.1l-0.017,0.084v0.1l-0.017,0.1v0.101l-0.017,0.083V15.799z M42.392,4.676
		c-0.802,0.618-1.938,0.451-2.556-0.351c-0.601-0.819-0.434-1.954,0.368-2.572l0.067-0.033l0.1-0.084l0.083-0.067l0.1-0.067
		l0.083-0.067l0.1-0.05l0.084-0.067l0.1-0.067l0.083-0.067l0.1-0.067l0.101-0.067l0.083-0.05l0.1-0.067l0.101-0.067l0.1-0.05
		l0.083-0.067l0.1-0.067l0.1-0.05l0.1-0.067l0.1-0.05l0.1-0.05l0.1-0.067l0.101-0.05l0.1-0.05l0.1-0.067l0.1-0.05l0.1-0.05l0.1-0.05
		l0.1-0.067l0.101-0.05l0.1-0.05l0.1-0.05l0.1-0.05l0.117-0.05l0.1-0.05l0.067-0.034c0.918-0.417,2.004-0.017,2.421,0.902
		c0.435,0.902,0.034,1.988-0.885,2.422l-0.051,0.017l-0.083,0.05l-0.083,0.033l-0.084,0.05l-0.084,0.034l-0.084,0.033l-0.083,0.05
		l-0.084,0.033l-0.084,0.05l-0.084,0.05L44.313,3.44l-0.067,0.05l-0.084,0.05l-0.083,0.034l-0.083,0.05l-0.084,0.05l-0.083,0.05
		l-0.067,0.034l-0.084,0.05l-0.084,0.05l-0.067,0.05l-0.083,0.05l-0.084,0.05l-0.067,0.05l-0.083,0.05l-0.067,0.051l-0.083,0.05
		l-0.067,0.05l-0.084,0.05l-0.067,0.05L42.76,4.425l-0.067,0.05l-0.084,0.05l-0.067,0.05l-0.083,0.067L42.392,4.676z M55.17,1.602
		c-1.019,0-1.837-0.818-1.837-1.82c0-1.019,0.818-1.837,1.837-1.837h3.657c1.002,0,1.821,0.818,1.821,1.837
		c0,1.002-0.819,1.82-1.821,1.82H55.17z M69.783,1.602c-1.002,0-1.82-0.818-1.82-1.82c0-1.019,0.818-1.837,1.82-1.837h3.658
		c1.002,0,1.821,0.818,1.821,1.837c0,1.002-0.818,1.82-1.821,1.82H69.783z M84.398,1.602c-1.002,0-1.821-0.818-1.821-1.82
		c0-1.019,0.818-1.837,1.821-1.837h3.658c1.002,0,1.821,0.818,1.821,1.837c0,1.002-0.818,1.82-1.821,1.82H84.398z M99.012,1.602
		c-1.002,0-1.821-0.818-1.821-1.82c0-1.019,0.818-1.837,1.821-1.837h3.658c1.019,0,1.837,0.818,1.837,1.837
		c0,1.002-0.818,1.82-1.837,1.82H99.012z M113.626,1.602c-1.002,0-1.82-0.818-1.82-1.82c0-1.019,0.818-1.837,1.82-1.837h3.658
		c1.018,0,1.837,0.818,1.837,1.837c0,1.002-0.819,1.82-1.837,1.82H113.626z M128.256,1.602c-1.018,0-1.837-0.818-1.837-1.82
		c0-1.019,0.819-1.837,1.837-1.837h3.641c1.019,0,1.837,0.818,1.837,1.837c0,1.002-0.818,1.82-1.837,1.82H128.256z M142.871,1.602
		c-1.019,0-1.837-0.818-1.837-1.82c0-1.019,0.819-1.837,1.837-1.837h3.658c1.002,0,1.821,0.818,1.821,1.837
		c0,1.002-0.819,1.82-1.821,1.82H142.871z M157.485,1.602c-1.002,0-1.82-0.818-1.82-1.82c0-1.019,0.819-1.837,1.82-1.837h3.658
		c1.002,0,1.82,0.818,1.82,1.837c0,1.002-0.818,1.82-1.82,1.82H157.485z M172.099,1.602c-1.002,0-1.82-0.818-1.82-1.82
		c0-1.019,0.818-1.837,1.82-1.837h3.658c1.002,0,1.82,0.818,1.82,1.837c0,1.002-0.818,1.82-1.82,1.82H172.099z M186.713,1.602
		c-1.002,0-1.821-0.818-1.821-1.82c0-1.019,0.819-1.837,1.821-1.837h3.658c1.019,0,1.837,0.818,1.837,1.837
		c0,1.002-0.818,1.82-1.837,1.82H186.713z M201.345,1.602c-1.019,0-1.838-0.818-1.838-1.82c0-1.019,0.818-1.837,1.838-1.837h2.956
		h0.117h0.134h0.117h0.117l0.117,0.017h0.117h0.051c1.019,0.05,1.787,0.902,1.753,1.904c-0.05,1.019-0.902,1.787-1.904,1.754h-0.033
		l-0.1-0.017h-0.1h-0.084h-0.1h-0.1h-0.1H201.345z M213.904,5.026c-0.785-0.635-0.902-1.787-0.251-2.572
		c0.635-0.768,1.787-0.885,2.572-0.234l0.068,0.05l0.083,0.067l0.1,0.084l0.084,0.067l0.083,0.084l0.083,0.067l0.084,0.083
		l0.083,0.067l0.084,0.083l0.083,0.067l0.084,0.083l0.083,0.067l0.083,0.084l0.084,0.084l0.083,0.084l0.084,0.067l0.067,0.084
		l0.084,0.084l0.083,0.084l0.083,0.083l0.067,0.084l0.083,0.067l0.084,0.083l0.067,0.084l0.083,0.084l0.067,0.084l0.083,0.083
		l0.083,0.101l0.067,0.084l0.067,0.083l0.083,0.083l0.067,0.084l0.067,0.084l0.083,0.1l0.067,0.083l0.05,0.067
		c0.635,0.785,0.501,1.937-0.283,2.572c-0.786,0.618-1.938,0.501-2.573-0.3l-0.033-0.05l-0.067-0.067l-0.05-0.067l-0.067-0.067
		l-0.05-0.083l-0.067-0.067l-0.05-0.067l-0.066-0.067l-0.067-0.067l-0.051-0.067l-0.067-0.067l-0.067-0.067l-0.05-0.084
		l-0.067-0.067l-0.067-0.067l-0.067-0.05l-0.05-0.067l-0.067-0.067l-0.066-0.067l-0.067-0.067l-0.067-0.067l-0.067-0.067
		l-0.067-0.067l-0.067-0.05l-0.067-0.067l-0.067-0.067l-0.067-0.05l-0.067-0.067l-0.067-0.067l-0.067-0.05l-0.067-0.067
		l-0.083-0.067l-0.067-0.05l-0.067-0.067l-0.067-0.05L213.904,5.026z M219.516,16.367c-0.016-1.002,0.768-1.837,1.787-1.87
		c1.002-0.017,1.837,0.768,1.871,1.787v0.05v0.134v0.117v0.117v0.134v3.14c0,1.019-0.819,1.837-1.82,1.837
		c-1.002,0-1.821-0.818-1.821-1.837v-3.14v-0.1v-0.1l-0.017-0.101v-0.1V16.367z M219.533,30.948c0-1.019,0.818-1.837,1.821-1.837
		c1.002,0,1.82,0.818,1.82,1.837v3.641c0,1.019-0.819,1.837-1.82,1.837c-1.002,0-1.821-0.818-1.821-1.837V30.948z M219.533,45.562
		c0-1.018,0.818-1.837,1.821-1.837c1.002,0,1.82,0.819,1.82,1.837v3.658c0,1.002-0.819,1.821-1.82,1.821
		c-1.002,0-1.821-0.819-1.821-1.821V45.562z M219.533,60.176c0-1.002,0.818-1.821,1.821-1.821c1.002,0,1.82,0.819,1.82,1.821v3.658
		c0,1.002-0.819,1.82-1.82,1.82c-1.002,0-1.821-0.818-1.821-1.82V60.176z M219.533,74.79c0-1.002,0.818-1.821,1.821-1.821
		c1.002,0,1.82,0.819,1.82,1.821v3.658c0,1.002-0.819,1.82-1.82,1.82c-1.002,0-1.821-0.819-1.821-1.82V74.79z M219.533,89.405
		c0-1.002,0.818-1.821,1.821-1.821c1.002,0,1.82,0.819,1.82,1.821v3.657c0,1.019-0.819,1.837-1.82,1.837
		c-1.002,0-1.821-0.819-1.821-1.837V89.405z M219.516,103.968c0.034-1.002,0.885-1.804,1.887-1.771
		c1.019,0.034,1.804,0.886,1.771,1.888v0.101v0.117l-0.017,0.117v0.117v0.117l-0.016,0.117v0.133l-0.017,0.117v0.116l-0.017,0.117
		l-0.017,0.117v0.117l-0.017,0.117l-0.017,0.134l-0.017,0.117l-0.016,0.117l-0.017,0.116l-0.017,0.117l-0.016,0.117l-0.017,0.116
		l-0.017,0.117l-0.016,0.117l-0.017,0.117l-0.017,0.117l-0.033,0.117l-0.017,0.117l-0.016,0.101l-0.034,0.117l-0.016,0.117
		l-0.034,0.117l-0.016,0.117l-0.034,0.117l-0.017,0.117l-0.034,0.1v0.05c-0.25,0.969-1.252,1.57-2.221,1.32
		c-0.985-0.25-1.57-1.236-1.336-2.222l0.017-0.017l0.017-0.083l0.016-0.1l0.034-0.083l0.016-0.1l0.017-0.084l0.017-0.1l0.016-0.084
		l0.017-0.1l0.017-0.083l0.016-0.1l0.017-0.1l0.017-0.083l0.016-0.1l0.017-0.101l0.017-0.083l0.017-0.1l0.017-0.083v-0.1l0.017-0.1
		l0.017-0.084v-0.101l0.017-0.1l0.016-0.1v-0.084l0.017-0.1v-0.101v-0.1l0.017-0.083v-0.1v-0.1l0.016-0.1v-0.1v-0.101V103.968z
		 M213.938,115.326c0.785-0.634,1.937-0.518,2.572,0.267c0.635,0.785,0.518,1.937-0.267,2.572l-0.034,0.034l-0.083,0.067l-0.1,0.083
		l-0.083,0.067l-0.084,0.068l-0.1,0.066l-0.083,0.067l-0.084,0.067l-0.101,0.066l-0.083,0.067l-0.1,0.067l-0.084,0.067l-0.1,0.067
		l-0.1,0.067l-0.084,0.067l-0.1,0.066l-0.084,0.067l-0.1,0.05l-0.1,0.067l-0.1,0.067l-0.084,0.05l-0.1,0.067l-0.1,0.067l-0.1,0.05
		l-0.084,0.067l-0.1,0.05l-0.1,0.067l-0.1,0.05l-0.1,0.067l-0.1,0.05l-0.1,0.05l-0.1,0.067l-0.1,0.05l-0.101,0.05l-0.1,0.05
		l-0.1,0.05l-0.016,0.017c-0.902,0.45-2.004,0.083-2.455-0.802c-0.451-0.901-0.1-2.004,0.801-2.455l0,0l0.084-0.05l0.083-0.034
		l0.084-0.05l0.066-0.034l0.084-0.05l0.083-0.05l0.083-0.05l0.084-0.034l0.067-0.05l0.083-0.05l0.083-0.05l0.067-0.05l0.083-0.034
		l0.084-0.05l0.083-0.05l0.067-0.05l0.084-0.05l0.067-0.05l0.084-0.05l0.083-0.05l0.067-0.05l0.083-0.067l0.067-0.05l0.083-0.05
		l0.067-0.05l0.067-0.051l0.083-0.067l0.067-0.05l0.083-0.05l0.067-0.05l0.067-0.067l0.084-0.05l0.067-0.067l0.067-0.05l0.083-0.066
		L213.938,115.326z M201.378,118.799c1.019,0,1.837,0.818,1.837,1.821c0,1.019-0.819,1.837-1.837,1.837h-3.658
		c-1.002,0-1.82-0.818-1.82-1.837c0-1.002,0.818-1.821,1.82-1.821H201.378z"/>
</g>
<g>
	<path fill="#333333" d="M136.265,166.542H40.239V33.147h97.603c0,0,4.084-0.173,4.084,5.197v122.38
		C141.926,160.725,142.029,166.542,136.265,166.542z"/>
	<path fill="#505051" d="M133.075,162.938H37.049V29.543h97.603c0,0,4.084-0.173,4.084,5.197v122.38
		C138.736,157.12,138.839,162.938,133.075,162.938z"/>
	<path fill="#ED64B0" d="M135.567,58.158c0,1.273-1.032,2.305-2.305,2.305h-2.017c-1.273,0-2.305-1.032-2.305-2.305V47.021
		c0-1.273,1.032-2.305,2.305-2.305h2.017c1.273,0,2.305,1.032,2.305,2.305V58.158z"/>
	<path fill="#FFCB08" d="M135.567,75.191c0,1.273-1.032,2.305-2.305,2.305h-2.017c-1.273,0-2.305-1.032-2.305-2.305V64.054
		c0-1.273,1.032-2.305,2.305-2.305h2.017c1.273,0,2.305,1.032,2.305,2.305V75.191z"/>
	<rect x="37.049" y="34.672" fill="#FFFFFF" width="94.625" height="122.448"/>
	<g>
		<g>
			<path fill="none" stroke="#00A88C" stroke-miterlimit="10" d="M68.367,66.18c0,1.061-0.836,1.921-1.866,1.921H54.039
				c-1.031,0-1.866-0.86-1.866-1.921V53.348c0-1.061,0.836-1.921,1.866-1.921h12.462c1.03,0,1.866,0.86,1.866,1.921V66.18z"/>
			<polyline fill="none" stroke="#8CC63E" stroke-miterlimit="10" points="54.242,58.98 59.032,65.886 73.755,53.643 			"/>
			<rect x="75.81" y="50.618" fill="#9EDCF5" width="28.31" height="4.75"/>
			<rect x="75.81" y="57.689" fill="#DCDCDC" width="47.271" height="2.375"/>
			<rect x="75.81" y="62.464" fill="#DCDCDC" width="47.271" height="2.375"/>
			<rect x="75.81" y="67.35" fill="#DCDCDC" width="47.271" height="2.375"/>
		</g>
		<g>
			<path fill="none" stroke="#00A88C" stroke-miterlimit="10" d="M68.367,89.345c0,1.061-0.836,1.921-1.866,1.921H54.039
				c-1.031,0-1.866-0.86-1.866-1.921V76.513c0-1.061,0.836-1.921,1.866-1.921h12.462c1.03,0,1.866,0.86,1.866,1.921V89.345z"/>
			<polyline fill="none" stroke="#8CC63E" stroke-miterlimit="10" points="54.242,82.145 59.032,89.051 73.755,76.808 			"/>
			<rect x="75.81" y="73.783" fill="#9EDCF5" width="28.31" height="4.751"/>
			<rect x="75.81" y="80.854" fill="#DCDCDC" width="47.271" height="2.375"/>
			<rect x="75.81" y="85.629" fill="#DCDCDC" width="47.271" height="2.375"/>
			<rect x="75.81" y="90.515" fill="#DCDCDC" width="47.271" height="2.375"/>
		</g>
		<g>
			<path fill="none" stroke="#00A88C" stroke-miterlimit="10" d="M68.367,111.987c0,1.061-0.836,1.921-1.866,1.921H54.039
				c-1.031,0-1.866-0.86-1.866-1.921V99.155c0-1.061,0.836-1.921,1.866-1.921h12.462c1.03,0,1.866,0.86,1.866,1.921V111.987z"/>
			<polyline fill="none" stroke="#8CC63E" stroke-miterlimit="10" points="54.242,104.786 59.032,111.693 73.755,99.449 			"/>
			<rect x="75.81" y="96.424" fill="#9EDCF5" width="28.31" height="4.751"/>
			<rect x="75.81" y="103.496" fill="#DCDCDC" width="47.271" height="2.375"/>
			<rect x="75.81" y="108.271" fill="#DCDCDC" width="47.271" height="2.375"/>
			<rect x="75.81" y="113.157" fill="#DCDCDC" width="47.271" height="2.375"/>
		</g>
		<g>
			<path fill="none" stroke="#00A88C" stroke-miterlimit="10" d="M68.367,135.153c0,1.061-0.836,1.921-1.866,1.921H54.039
				c-1.031,0-1.866-0.86-1.866-1.921V122.32c0-1.062,0.836-1.921,1.866-1.921h12.462c1.03,0,1.866,0.86,1.866,1.921V135.153z"/>
			<polyline fill="none" stroke="#8CC63E" stroke-miterlimit="10" points="54.242,127.951 59.032,134.858 73.755,122.615 			"/>
			<rect x="75.81" y="119.59" fill="#9EDCF5" width="28.31" height="4.75"/>
			<rect x="75.81" y="126.661" fill="#DCDCDC" width="47.271" height="2.375"/>
			<rect x="75.81" y="131.436" fill="#DCDCDC" width="47.271" height="2.375"/>
			<rect x="75.81" y="136.322" fill="#DCDCDC" width="47.271" height="2.375"/>
		</g>
	</g>
	<g>
		<g>
			<g>
				<circle fill="#565654" cx="42.462" cy="43.047" r="2.98"/>
			</g>
			<g>
				<circle fill="#565654" cx="42.462" cy="54.751" r="2.98"/>
			</g>
			<g>
				<circle fill="#565654" cx="42.462" cy="66.454" r="2.98"/>
			</g>
			<g>
				<circle fill="#565654" cx="42.462" cy="78.158" r="2.98"/>
			</g>
			<g>
				<circle fill="#565654" cx="42.462" cy="89.861" r="2.98"/>
			</g>
			<g>
				<circle fill="#565654" cx="42.462" cy="101.565" r="2.98"/>
			</g>
			<g>
				<circle fill="#565654" cx="42.462" cy="113.268" r="2.98"/>
			</g>
			<g>
				<circle fill="#565654" cx="42.462" cy="124.972" r="2.98"/>
			</g>
			<g>
				<circle fill="#565654" cx="42.462" cy="136.675" r="2.98"/>
			</g>
			<g>
				<circle fill="#565654" cx="42.462" cy="148.378" r="2.98"/>
			</g>
		</g>
		<g>
			<g>
				<line fill="none" stroke="#313131" stroke-miterlimit="10" x1="40.362" y1="44.716" x2="33.736" y2="44.716"/>
				<line fill="none" stroke="#313131" stroke-miterlimit="10" x1="33.736" y1="41.719" x2="40.362" y2="41.719"/>
			</g>
			<g>
				<line fill="none" stroke="#313131" stroke-miterlimit="10" x1="40.362" y1="56.4" x2="33.736" y2="56.4"/>
				<line fill="none" stroke="#313131" stroke-miterlimit="10" x1="33.736" y1="53.404" x2="40.362" y2="53.404"/>
			</g>
			<g>
				<line fill="none" stroke="#313131" stroke-miterlimit="10" x1="40.362" y1="68.085" x2="33.736" y2="68.085"/>
				<line fill="none" stroke="#313131" stroke-miterlimit="10" x1="33.736" y1="65.088" x2="40.362" y2="65.088"/>
			</g>
			<g>
				<line fill="none" stroke="#313131" stroke-miterlimit="10" x1="40.362" y1="79.77" x2="33.736" y2="79.77"/>
				<line fill="none" stroke="#313131" stroke-miterlimit="10" x1="33.736" y1="76.773" x2="40.362" y2="76.773"/>
			</g>
			<g>
				<line fill="none" stroke="#313131" stroke-miterlimit="10" x1="40.362" y1="91.454" x2="33.736" y2="91.454"/>
				<line fill="none" stroke="#313131" stroke-miterlimit="10" x1="33.736" y1="88.457" x2="40.362" y2="88.457"/>
			</g>
			<g>
				<line fill="none" stroke="#313131" stroke-miterlimit="10" x1="40.362" y1="103.138" x2="33.736" y2="103.138"/>
				<line fill="none" stroke="#313131" stroke-miterlimit="10" x1="33.736" y1="100.142" x2="40.362" y2="100.142"/>
			</g>
			<g>
				<line fill="none" stroke="#313131" stroke-miterlimit="10" x1="40.362" y1="114.823" x2="33.736" y2="114.823"/>
				<line fill="none" stroke="#313131" stroke-miterlimit="10" x1="33.736" y1="111.826" x2="40.362" y2="111.826"/>
			</g>
			<g>
				<line fill="none" stroke="#313131" stroke-miterlimit="10" x1="40.362" y1="126.508" x2="33.736" y2="126.508"/>
				<line fill="none" stroke="#313131" stroke-miterlimit="10" x1="33.736" y1="123.511" x2="40.362" y2="123.511"/>
			</g>
			<g>
				<line fill="none" stroke="#313131" stroke-miterlimit="10" x1="40.362" y1="138.192" x2="33.736" y2="138.192"/>
				<line fill="none" stroke="#313131" stroke-miterlimit="10" x1="33.736" y1="135.195" x2="40.362" y2="135.195"/>
			</g>
			<g>
				<line fill="none" stroke="#313131" stroke-miterlimit="10" x1="40.362" y1="149.877" x2="33.736" y2="149.877"/>
				<line fill="none" stroke="#313131" stroke-miterlimit="10" x1="33.736" y1="146.88" x2="40.362" y2="146.88"/>
			</g>
		</g>
	</g>
	<g>
		<g>
			<polygon fill="#FFFFFF" points="178.128,67.71 173.5,66.865 173.077,69.18 177.706,70.024 171.938,101.639 173.481,101.92 
				179.249,70.306 179.671,67.991 			"/>
			<g>
				<defs>
					<path id="SVGID_1_" d="M177.213,61.804c-0.249,1.363-1.556,2.267-2.919,2.018l-0.462-0.084
						c-1.363-0.249-2.267-1.556-2.018-2.919l1.745-9.565c0.249-1.363,1.556-2.267,2.919-2.018l0.462,0.084
						c1.364,0.249,2.267,1.556,2.018,2.919L177.213,61.804z"/>
				</defs>
				<clipPath id="SVGID_2_">
					<use xlink:href="#SVGID_1_"  overflow="visible"/>
				</clipPath>
				<path clip-path="url(#SVGID_2_)" fill="#FFFFFF" d="M177.213,61.804c-0.249,1.363-1.556,2.267-2.919,2.018l-0.462-0.084
					c-1.363-0.249-2.267-1.556-2.018-2.919l1.745-9.565c0.249-1.363,1.556-2.267,2.919-2.018l0.462,0.084
					c1.364,0.249,2.267,1.556,2.018,2.919L177.213,61.804z"/>
				
					<rect x="168.069" y="49.2" transform="matrix(0.9838 0.1795 -0.1795 0.9838 12.1258 -30.7622)" clip-path="url(#SVGID_2_)" fill="#902C21" width="15.997" height="4.862"/>
			</g>
			<g>
				<defs>
					
						<rect id="SVGID_3_" x="164.392" y="60.247" transform="matrix(0.9838 0.1795 -0.1795 0.9838 20.0844 -28.5822)" width="7.214" height="72.912"/>
				</defs>
				<clipPath id="SVGID_4_">
					<use xlink:href="#SVGID_3_"  overflow="visible"/>
				</clipPath>
				
					<rect x="164.392" y="60.247" transform="matrix(0.9838 0.1795 -0.1795 0.9838 20.0844 -28.5822)" clip-path="url(#SVGID_4_)" fill="#AC3226" width="7.214" height="72.912"/>
				
					<rect x="154.77" y="109.07" transform="matrix(0.9838 0.1795 -0.1795 0.9838 22.4993 -27.5308)" clip-path="url(#SVGID_4_)" fill="#B3B3B3" width="17.252" height="3.009"/>
				
					<rect x="153.487" y="116.101" transform="matrix(0.9838 0.1795 -0.1795 0.9838 23.7403 -27.1864)" clip-path="url(#SVGID_4_)" fill="#B3B3B3" width="17.252" height="3.009"/>
			</g>
			<g>
				<defs>
					<polygon id="SVGID_5_" points="158.329,149.703 158.118,140.811 157.907,131.92 161.456,132.567 165.004,133.215 
						161.667,141.459 					"/>
				</defs>
				<clipPath id="SVGID_6_">
					<use xlink:href="#SVGID_5_"  overflow="visible"/>
				</clipPath>
				<polygon clip-path="url(#SVGID_6_)" fill="#FFFFFF" points="158.329,149.703 158.118,140.811 157.907,131.92 161.456,132.567 
					165.004,133.215 161.667,141.459 				"/>
				
					<rect x="154.678" y="146.595" transform="matrix(0.9838 0.1795 -0.1795 0.9838 29.5719 -26.4625)" clip-path="url(#SVGID_6_)" fill="#1A1A1A" width="12.701" height="7.2"/>
			</g>
			<path fill="#902C21" d="M179.857,62.605c-0.233,1.278-1.458,2.125-2.736,1.892l-6.171-1.126
				c-1.278-0.233-2.125-1.458-1.892-2.737l0,0c0.233-1.278,1.458-2.125,2.737-1.892l6.171,1.126
				C179.243,60.101,180.09,61.327,179.857,62.605L179.857,62.605z"/>
		</g>
		<path opacity="0.4" fill="#565654" d="M178.155,67.715l-1.135-0.207l0.542-2.969c1.118,0.005,2.114-0.79,2.322-1.928
			c0.233-1.278-0.614-2.503-1.892-2.736l-0.386-0.07l1.379-7.56c0.249-1.363-0.655-2.67-2.018-2.919l-0.286-0.052l-18.323,100.433
			l3.336-8.241l3.337-8.244l0,0l11.566-63.397l1.135,0.207l-5.768,31.615l1.543,0.281l5.768-31.615l0.422-2.314L178.155,67.715z"/>
	</g>
</g>
</svg>
