<?xml version="1.0" encoding="utf-8"?>
<!-- Generator: Adobe Illustrator 17.0.1, SVG Export Plug-In . SVG Version: 6.00 Build 0)  -->
<!DOCTYPE svg PUBLIC "-//W3C//DTD SVG 1.1//EN" "http://www.w3.org/Graphics/SVG/1.1/DTD/svg11.dtd">
<svg version="1.1" id="Business" xmlns="http://www.w3.org/2000/svg" xmlns:xlink="http://www.w3.org/1999/xlink" x="0px" y="0px"
	 width="204px" height="244.598px" viewBox="0 0 204 244.598" enable-background="new 0 0 204 244.598" xml:space="preserve">
<g id="Background_28_">
	
		<circle id="Background_2_28_" fill="none" stroke="#FFCC00" stroke-width="3" stroke-miterlimit="10" cx="102" cy="133.973" r="99.75"/>
</g>
<g id="Business_Apps_1_" display="none">
	<g display="inline">
		<path fill-rule="evenodd" clip-rule="evenodd" fill="#02465D" d="M52.351,33.913h66.343c7.485,0,13.62,6.117,13.62,13.62v154.652
			c0,7.485-6.135,13.62-13.62,13.62H52.351c-7.487,0-13.62-6.135-13.62-13.62V47.533C38.731,40.03,44.864,33.913,52.351,33.913
			L52.351,33.913z"/>
		<rect x="42.516" y="53.803" fill-rule="evenodd" clip-rule="evenodd" fill="#FFFFFF" width="85.994" height="142.113"/>
		<path fill-rule="evenodd" clip-rule="evenodd" fill="#FFFFFF" d="M69.925,40.723h31.195c0.844,0,1.538,0.693,1.538,1.538l0,0
			c0,0.845-0.694,1.538-1.538,1.538H69.925c-0.845,0-1.539-0.693-1.539-1.538l0,0C68.386,41.416,69.08,40.723,69.925,40.723
			L69.925,40.723z"/>
		<path fill-rule="evenodd" clip-rule="evenodd" fill="#E6E6E6" d="M75.755,201.746h19.534c1.471,0,2.687,1.217,2.687,2.687l0,0
			c0,1.487-1.217,2.686-2.687,2.686H75.755c-1.487,0-2.687-1.2-2.687-2.686l0,0C73.068,202.963,74.268,201.746,75.755,201.746
			L75.755,201.746z"/>
		<rect x="42.516" y="53.803" fill-rule="evenodd" clip-rule="evenodd" fill="#7BC0DD" width="85.994" height="73.727"/>
		<path fill-rule="evenodd" clip-rule="evenodd" fill="#02465D" d="M85.522,66.274c10.95,0,19.822,8.871,19.822,19.821
			c0,10.95-8.872,19.838-19.822,19.838c-10.95,0-19.838-8.889-19.838-19.838C65.684,75.145,74.572,66.274,85.522,66.274
			L85.522,66.274z"/>
		<polygon fill-rule="evenodd" clip-rule="evenodd" fill="#F14C47" points="80.554,89.086 85.522,90.995 89.037,100.188 
			89.509,99.09 90.574,96.74 92.908,97.805 94.005,98.278 90.49,89.086 85.522,90.995 82.007,100.188 81.517,99.09 80.47,96.74 
			78.121,97.805 77.039,98.278 		"/>
		<polygon fill-rule="evenodd" clip-rule="evenodd" fill="#F3CD3E" points="85.522,72.019 88.327,74.823 92.18,74.181 
			92.805,78.101 96.303,79.859 94.512,83.391 96.303,86.855 92.771,88.663 92.18,92.533 88.26,91.907 85.522,94.697 82.699,91.891 
			78.864,92.533 78.222,88.595 74.741,86.855 76.532,83.307 74.741,79.859 78.272,78.034 78.864,74.181 82.784,74.791 		"/>
		<path fill-rule="evenodd" clip-rule="evenodd" fill="#FFFF86" d="M85.522,89.745c3.701,0,6.725-3.025,6.725-6.725
			c0-3.718-3.024-6.727-6.725-6.727c-3.7,0-6.725,3.009-6.725,6.727C78.797,86.721,81.822,89.745,85.522,89.745L85.522,89.745z"/>
		<path fill-rule="evenodd" clip-rule="evenodd" fill="#FFFFFF" d="M65.295,112.963v5.357h1.471c0.997,0,1.453-0.457,1.453-1.251
			v-0.457c0-0.59-0.237-0.996-0.862-1.149c0.557-0.135,0.76-0.489,0.76-1.063v-0.237c0-0.794-0.405-1.2-1.385-1.2H65.295z
			 M66.004,115.244v-1.723h0.71c0.507,0,0.693,0.22,0.693,0.691v0.322c0,0.557-0.288,0.709-0.862,0.709H66.004z M66.004,117.78
			v-1.994h0.625c0.608,0,0.896,0.202,0.896,0.794v0.472c0,0.491-0.237,0.728-0.76,0.728H66.004z M69.537,112.963h-0.694v4.072
			c0,0.812,0.441,1.352,1.42,1.352c0.98,0,1.419-0.541,1.419-1.352v-4.072h-0.658v4.088c0,0.491-0.237,0.778-0.743,0.778
			c-0.508,0-0.743-0.287-0.743-0.778V112.963z M73.727,112.912c-0.964,0-1.419,0.524-1.419,1.336c0,1.521,2.128,1.622,2.128,2.821
			c0,0.473-0.236,0.76-0.743,0.76c-0.507,0-0.744-0.287-0.744-0.76v-0.338h-0.658v0.305c0,0.812,0.456,1.335,1.419,1.335
			c0.981,0,1.437-0.523,1.437-1.335c0-1.504-2.129-1.622-2.129-2.823c0-0.472,0.22-0.759,0.727-0.759
			c0.508,0,0.727,0.287,0.727,0.776v0.17h0.675v-0.152C75.146,113.436,74.69,112.912,73.727,112.912L73.727,112.912z
			 M75.772,112.963v5.357h0.71v-5.357H75.772z M77.834,113.993l1.639,4.327h0.727v-5.357h-0.625v3.87l-1.469-3.87h-0.913v5.357
			h0.642V113.993z M81.636,115.345v-1.824h1.909v-0.558h-2.619v5.357h2.619v-0.541h-1.909v-1.91h1.554v-0.524H81.636z
			 M85.539,112.912c-0.946,0-1.403,0.524-1.403,1.336c0,1.521,2.129,1.622,2.129,2.821c0,0.473-0.237,0.76-0.743,0.76
			c-0.524,0-0.76-0.287-0.76-0.76v-0.338h-0.659v0.305c0,0.812,0.456,1.335,1.436,1.335c0.963,0,1.436-0.523,1.436-1.335
			c0-1.504-2.146-1.622-2.146-2.823c0-0.472,0.22-0.759,0.727-0.759c0.507,0,0.728,0.287,0.728,0.776v0.17h0.675v-0.152
			C86.958,113.436,86.502,112.912,85.539,112.912L85.539,112.912z M88.919,112.912c-0.946,0-1.403,0.524-1.403,1.336
			c0,1.521,2.129,1.622,2.129,2.821c0,0.473-0.236,0.76-0.744,0.76c-0.507,0-0.743-0.287-0.743-0.76v-0.338h-0.677v0.305
			c0,0.812,0.456,1.335,1.437,1.335c0.98,0,1.436-0.523,1.436-1.335c0-1.504-2.145-1.622-2.145-2.823
			c0-0.472,0.219-0.759,0.743-0.759c0.507,0,0.727,0.287,0.727,0.776v0.17h0.659v-0.152
			C90.338,113.436,89.899,112.912,88.919,112.912L88.919,112.912z M94.715,117.239l0.237,1.081h0.71l-1.217-5.357h-1.031
			l-1.217,5.357h0.659l0.253-1.081H94.715z M93.886,113.638l0.727,3.092h-1.419L93.886,113.638z M96.218,112.963v5.357h0.71v-2.112
			h0.625c1.014,0,1.487-0.439,1.487-1.285v-0.643c0-0.81-0.422-1.317-1.419-1.317H96.218z M96.929,115.683v-2.162h0.693
			c0.506,0,0.727,0.236,0.727,0.727v0.709c0,0.507-0.253,0.727-0.795,0.727H96.929z M99.598,112.963v5.357h0.71v-2.112h0.625
			c1.014,0,1.488-0.439,1.488-1.285v-0.643c0-0.81-0.423-1.317-1.436-1.317H99.598z M100.308,115.683v-2.162h0.676
			c0.524,0,0.743,0.236,0.743,0.727v0.709c0,0.507-0.27,0.727-0.795,0.727H100.308z M104.313,112.912
			c-0.963,0-1.403,0.524-1.403,1.336c0,1.521,2.13,1.622,2.13,2.821c0,0.473-0.237,0.76-0.76,0.76c-0.508,0-0.743-0.287-0.743-0.76
			v-0.338h-0.66v0.305c0,0.812,0.457,1.335,1.42,1.335c0.979,0,1.453-0.523,1.453-1.335c0-1.504-2.146-1.622-2.146-2.823
			c0-0.472,0.219-0.759,0.727-0.759c0.507,0,0.727,0.287,0.727,0.776v0.17h0.676v-0.152
			C105.732,113.436,105.275,112.912,104.313,112.912L104.313,112.912z"/>
		<rect x="53.703" y="154.229" fill-rule="evenodd" clip-rule="evenodd" fill="#7BC0DD" width="63.639" height="2.364"/>
		<rect x="53.703" y="163.995" fill-rule="evenodd" clip-rule="evenodd" fill="#7BC0DD" width="63.639" height="2.383"/>
		<rect x="53.703" y="173.779" fill-rule="evenodd" clip-rule="evenodd" fill="#7BC0DD" width="63.639" height="2.366"/>
		<rect x="53.703" y="183.547" fill-rule="evenodd" clip-rule="evenodd" fill="#7BC0DD" width="63.639" height="2.366"/>
		<rect x="85.674" y="136.874" fill-rule="evenodd" clip-rule="evenodd" fill="#3BAF6C" width="31.667" height="7.148"/>
	</g>
	<g display="inline">
		<path fill-rule="evenodd" clip-rule="evenodd" fill="#0089C7" d="M140.931,53.094h57.285c1.284,0,2.349,1.063,2.349,2.364v30.705
			c0,1.301-1.065,2.366-2.349,2.366h-57.285c-1.301,0-2.366-1.065-2.366-2.366V55.458C138.565,54.157,139.63,53.094,140.931,53.094
			L140.931,53.094z"/>
		<rect x="138.565" y="56.827" fill-rule="evenodd" clip-rule="evenodd" fill="#005A83" width="61.999" height="10.037"/>
		<path fill-rule="evenodd" clip-rule="evenodd" fill="#BABAB9" d="M142.638,73.388h53.855c0.693,0,1.284-0.574,1.284-1.267v-1.166
			c0-0.693-0.591-1.267-1.284-1.267h-53.855c-0.693,0-1.267,0.574-1.267,1.267v1.166C141.371,72.813,141.945,73.388,142.638,73.388
			L142.638,73.388z"/>
		<path fill-rule="evenodd" clip-rule="evenodd" fill="#005A83" d="M122.326,65.649h57.286c1.301,0,2.365,1.063,2.365,2.366v30.703
			c0,1.301-1.064,2.366-2.365,2.366h-57.286c-1.301,0-2.366-1.065-2.366-2.366V68.014C119.96,66.712,121.025,65.649,122.326,65.649
			L122.326,65.649z"/>
		<path fill-rule="evenodd" clip-rule="evenodd" fill="#29ABE2" d="M122.326,65.649h57.286c1.301,0,2.365,1.063,2.365,2.366v11.997
			H119.96V68.014C119.96,66.712,121.025,65.649,122.326,65.649L122.326,65.649z"/>
		<path fill-rule="evenodd" clip-rule="evenodd" fill="#B3B3B3" d="M126.686,84.27h7.654c0.828,0,1.504,0.675,1.504,1.487v7.673
			c0,0.81-0.676,1.485-1.504,1.485h-7.654c-0.828,0-1.488-0.675-1.488-1.485v-7.673C125.199,84.945,125.859,84.27,126.686,84.27
			L126.686,84.27z"/>
		<path fill="#F2F2F2" d="M126.686,84.202h7.654c0.439,0,0.828,0.168,1.116,0.455l0,0l0,0c0.27,0.287,0.456,0.677,0.456,1.099v7.673
			c0,0.422-0.186,0.81-0.456,1.097l0,0c-0.288,0.287-0.677,0.457-1.116,0.457h-7.654c-0.423,0-0.828-0.17-1.099-0.457
			c-0.288-0.287-0.456-0.675-0.456-1.097v-7.673c0-0.422,0.168-0.811,0.456-1.099l0,0C125.859,84.371,126.264,84.202,126.686,84.202
			L126.686,84.202z M134.341,84.337h-7.654c-0.389,0-0.743,0.152-1.014,0.423l0,0c-0.253,0.253-0.405,0.608-0.405,0.996v7.673
			c0,0.388,0.152,0.743,0.405,0.996c0.271,0.253,0.625,0.422,1.014,0.422h7.654c0.389,0,0.76-0.168,1.014-0.422l0,0
			c0.253-0.253,0.422-0.608,0.422-0.996v-7.673c0-0.388-0.168-0.743-0.422-0.996l0,0C135.101,84.49,134.73,84.337,134.341,84.337
			L134.341,84.337z"/>
		<path fill="#F2F2F2" d="M128.173,89.66h-2.906v2.231h2.906V89.66z M125.199,89.524h3.042h0.068v0.069v2.366v0.067h-0.068h-3.042
			h-0.067v-0.067v-2.366v-0.069H125.199z"/>
		<path fill="#F2F2F2" d="M128.24,89.66h-3.042h-0.067v-0.067v-2.366V87.16h0.067h3.042h0.068v0.067v2.366v0.067H128.24z
			 M125.267,89.524h2.906v-2.23h-2.906V89.524z"/>
		<path fill="#F2F2F2" d="M132.786,89.524h3.059h0.067v0.069v2.366v0.067h-0.067h-3.059h-0.067v-0.067v-2.366v-0.069H132.786z
			 M135.776,89.66h-2.922v2.231h2.922V89.66z"/>
		<path fill="#F2F2F2" d="M132.854,89.524h2.922v-2.23h-2.922V89.524z M135.845,89.66h-3.059h-0.067v-0.067v-2.366V87.16h0.067
			h3.059h0.067v0.067v2.366v0.067H135.845z"/>
		<path fill="#F2F2F2" d="M129.863,84.202h2.923h0.068v0.067v0.067h-0.135h-0.929h-1.926c-0.423,0-0.811,0.169-1.099,0.456l0,0
			c-0.27,0.271-0.456,0.659-0.456,1.082v6.59c0,0.085,0.05,0.168,0.101,0.22l0,0c0.051,0.05,0.135,0.101,0.22,0.101h4.089V87.16
			h0.135v5.694v0.067h-0.068h-4.156c-0.119,0-0.237-0.05-0.321-0.135l0,0c-0.085-0.085-0.136-0.202-0.136-0.321v-6.59
			c0-0.457,0.185-0.879,0.507-1.182l0,0l0,0C128.984,84.388,129.39,84.202,129.863,84.202L129.863,84.202z"/>
		<path fill="#F2F2F2" d="M129.863,84.202h2.923h0.068v0.067v0.067h-0.135h-0.929h-1.926c-0.423,0-0.811,0.169-1.099,0.456l0,0
			c-0.27,0.271-0.456,0.659-0.456,1.082v6.151h-0.136v-6.151c0-0.457,0.185-0.879,0.507-1.182l0,0l0,0
			C128.984,84.388,129.39,84.202,129.863,84.202L129.863,84.202z M132.854,87.16v6.083c0,0.473-0.204,0.913-0.507,1.232l0,0l0,0
			c-0.322,0.305-0.76,0.508-1.233,0.508h-2.873h-0.067v-0.069v-0.067h0.136h0.675h2.13c0.439,0,0.845-0.185,1.132-0.472l0,0
			c0.287-0.287,0.472-0.694,0.472-1.132V87.16H132.854z"/>
		<path fill-rule="evenodd" clip-rule="evenodd" fill="#FFFFFF" stroke="#F2F2F2" stroke-width="0.1984" stroke-miterlimit="10" d="
			M140.035,90.759c0,0.558,0.423,1.014,0.947,1.014c0.54,0,0.963-0.455,0.963-1.014c0-0.576-0.423-1.031-0.963-1.031
			c-0.168,0-0.321,0.051-0.472,0.136l1.317-1.995h-0.117l-1.487,2.265C140.103,90.302,140.035,90.522,140.035,90.759L140.035,90.759
			z M140.12,90.759c0-0.524,0.389-0.93,0.861-0.93c0.49,0,0.878,0.406,0.878,0.93c0,0.507-0.388,0.913-0.878,0.913
			C140.509,91.672,140.12,91.266,140.12,90.759L140.12,90.759z M142.655,87.97h2.619l-2.502,3.803h0.136l2.552-3.904h-2.805V87.97z
			 M145.712,90.742c0,0.576,0.441,1.031,0.964,1.031c0.523,0,0.964-0.455,0.964-1.031c0-0.439-0.287-0.845-0.659-0.98
			c0.354-0.117,0.608-0.473,0.608-0.913c0-0.541-0.406-0.98-0.913-0.98c-0.507,0-0.912,0.439-0.912,0.98
			c0,0.439,0.253,0.795,0.608,0.913C146.001,89.896,145.712,90.302,145.712,90.742L145.712,90.742z M145.815,90.742
			c0-0.489,0.372-0.895,0.828-0.913h0.034h0.035c0.455,0.018,0.827,0.423,0.827,0.913c0,0.507-0.388,0.93-0.861,0.93
			C146.203,91.672,145.815,91.248,145.815,90.742L145.815,90.742z M145.865,88.849c0-0.473,0.355-0.879,0.811-0.879
			c0.456,0,0.812,0.406,0.812,0.879c0,0.491-0.355,0.863-0.812,0.863h-0.034C146.203,89.694,145.865,89.322,145.865,88.849
			L145.865,88.849z M150.479,88.9c0-0.574-0.423-1.031-0.963-1.031c-0.524,0-0.964,0.457-0.964,1.031
			c0,0.557,0.439,1.014,0.964,1.014c0.168,0,0.338-0.05,0.473-0.135l-1.302,1.994h0.101l1.487-2.265
			C150.394,89.34,150.479,89.12,150.479,88.9L150.479,88.9z M150.377,88.9c0,0.507-0.371,0.913-0.861,0.913
			c-0.474,0-0.862-0.406-0.862-0.913c0-0.524,0.388-0.93,0.862-0.93C150.006,87.97,150.377,88.376,150.377,88.9L150.377,88.9z
			 M154.027,87.97h1.318l-1.334,2.029l0.067,0.083c0.152-0.151,0.355-0.253,0.574-0.253c0.49,0,0.863,0.406,0.863,0.93
			c0,0.507-0.373,0.913-0.863,0.913c-0.219,0-0.423-0.103-0.574-0.253l-0.067,0.083c0.169,0.17,0.388,0.271,0.642,0.271
			c0.541,0,0.964-0.455,0.964-1.014c0-0.576-0.423-1.031-0.964-1.031c-0.152,0-0.286,0.034-0.423,0.101l1.217-1.859l0.069-0.101
			h-1.488V87.97z M158.353,91.773h0.101v-0.828h0.658v-0.103h-0.658v-2.974h-0.118l-2.027,3.076h2.044V91.773z M156.494,90.843
			l1.859-2.821v2.821H156.494z M159.839,89.829h0.625c0.491,0,0.863,0.406,0.863,0.913c0,0.507-0.372,0.93-0.863,0.93
			c-0.472,0-0.861-0.423-0.861-0.93h-0.084c0,0.576,0.423,1.031,0.946,1.031c0.541,0,0.964-0.455,0.964-1.031
			c0-0.558-0.423-1.014-0.964-1.014h-0.523V87.97h1.436v-0.101h-1.539V89.829z M162.341,90.759c0,0.558,0.422,1.014,0.963,1.014
			c0.524,0,0.963-0.455,0.963-1.014c0-0.576-0.439-1.031-0.963-1.031c-0.169,0-0.338,0.051-0.473,0.136l1.302-1.995h-0.102
			l-1.487,2.265C162.425,90.302,162.341,90.522,162.341,90.759L162.341,90.759z M162.442,90.759c0-0.524,0.372-0.93,0.862-0.93
			c0.473,0,0.862,0.406,0.862,0.93c0,0.507-0.389,0.913-0.862,0.913C162.814,91.672,162.442,91.266,162.442,90.759L162.442,90.759z
			 M168.34,91.773h0.102v-3.904h-0.102V91.773z M169.979,88.9c0-0.507,0.372-0.93,0.862-0.93c0.473,0,0.861,0.423,0.861,0.93
			c0,0.202-0.068,0.406-0.185,0.557l-1.521,2.316h1.808v-0.101h-1.622l1.418-2.164c0.119-0.186,0.186-0.388,0.186-0.608
			c0-0.574-0.422-1.031-0.945-1.031c-0.541,0-0.963,0.457-0.963,1.031H169.979z M172.852,87.97h1.318l-1.335,2.029l0.068,0.083
			c0.152-0.151,0.355-0.253,0.574-0.253c0.473,0,0.861,0.406,0.861,0.93c0,0.507-0.388,0.913-0.861,0.913
			c-0.22,0-0.423-0.103-0.574-0.253l-0.085,0.083c0.169,0.17,0.406,0.271,0.659,0.271c0.541,0,0.963-0.455,0.963-1.014
			c0-0.576-0.423-1.031-0.963-1.031c-0.152,0-0.287,0.034-0.423,0.101l1.217-1.859l0.067-0.101h-1.487V87.97z M177.178,91.773h0.084
			v-0.828h0.676v-0.103h-0.676v-2.974h-0.101l-2.027,3.076h2.044V91.773z M175.319,90.843l1.859-2.821v2.821H175.319z"/>
		<path fill-rule="evenodd" clip-rule="evenodd" fill="#FAA719" d="M131.686,77.222c3.368,0,6.101-1.824,6.101-4.072
			c0-2.247-2.733-4.072-6.101-4.072c-3.343,0-6.102,1.825-6.102,4.072C125.585,75.399,128.344,77.222,131.686,77.222L131.686,77.222
			z"/>
		<path fill-rule="evenodd" clip-rule="evenodd" fill="#FFFFFF" stroke="#F2F2F2" stroke-width="0.1984" stroke-miterlimit="10" d="
			M145.324,74.841c-0.405,0.422-0.979,0.677-1.588,0.677c-1.267,0-2.265-1.014-2.265-2.265c0-1.251,0.998-2.265,2.265-2.265
			c0.609,0,1.183,0.253,1.588,0.659l0.085-0.085c-0.439-0.422-1.031-0.693-1.673-0.693c-1.318,0-2.399,1.065-2.399,2.383
			s1.082,2.382,2.399,2.382c0.659,0,1.25-0.253,1.69-0.693L145.324,74.841z M146.136,75.635l0.71-1.521h2.889l0.727,1.521h0.135
			l-2.23-4.765h-0.135l-2.231,4.765H146.136z M148.299,71.022l1.385,2.958h-2.771L148.299,71.022z M153.959,75.635h0.135
			l-1.115-1.942c0.761-0.018,1.386-0.643,1.386-1.403c0-0.778-0.642-1.419-1.403-1.419h-1.622v4.765h0.119v-1.942h1.368
			L153.959,75.635z M154.23,72.289c0,0.709-0.574,1.267-1.267,1.285h-1.504v-2.585h1.504C153.655,71.006,154.23,71.58,154.23,72.289
			L154.23,72.289z M155.396,75.635h1.792c1.301,0,2.382-1.063,2.382-2.382c0-1.301-1.081-2.383-2.382-2.383h-1.792V75.635z
			 M159.435,73.253c0,1.251-1.014,2.265-2.265,2.265h-1.655v-4.512h1.655C158.421,71.006,159.435,72.002,159.435,73.253
			L159.435,73.253z"/>
		<path fill-rule="evenodd" clip-rule="evenodd" fill="#FFFFFF" stroke="#F2F2F2" stroke-width="0.1984" stroke-miterlimit="10" d="
			M175.809,73.354c-0.608,0-1.099-0.491-1.099-1.099c0-0.608,0.491-1.099,1.099-1.099c0.609,0,1.099,0.491,1.099,1.099h0.135
			c0-0.642-0.507-1.166-1.132-1.217V70.65h-0.135v0.388c-0.658,0.018-1.183,0.558-1.183,1.217c0,0.675,0.541,1.217,1.217,1.217
			V73.354z M174.71,74.571c0,0.624,0.491,1.115,1.099,1.115c0.609,0,1.099-0.491,1.099-1.115c0-0.609-0.49-1.099-1.099-1.099v-0.119
			c0.676,0,1.233,0.541,1.233,1.217c0,0.642-0.507,1.182-1.132,1.233v-0.051h-0.135v0.051c-0.658-0.018-1.183-0.558-1.183-1.233
			H174.71z M175.775,76.193h0.135v-0.388h-0.102h-0.034V76.193z"/>
	</g>
	<g display="inline">
		<path fill-rule="evenodd" clip-rule="evenodd" fill="#C7805C" d="M4.14,182.195h62.185c1.843,0,3.346,1.504,3.346,3.346v35.266
			c0,1.825-1.504,3.33-3.346,3.33H4.14c-1.841,0-3.346-1.504-3.346-3.33V185.54C0.795,183.699,2.299,182.195,4.14,182.195
			L4.14,182.195z"/>
		<path fill-rule="evenodd" clip-rule="evenodd" fill="#6BC06F" d="M56.508,162.204l6.05,54.463c0.067,0.507-0.305,0.98-0.828,1.031
			l-24.705,2.754c-0.524,0.051-0.981-0.321-1.048-0.828l-6.05-54.463c-0.051-0.507,0.322-0.98,0.828-1.031l24.721-2.754
			C55.984,161.325,56.44,161.697,56.508,162.204L56.508,162.204z"/>
		<path fill-rule="evenodd" clip-rule="evenodd" fill="#87CC8A" d="M54.818,164.452l5.61,50.389c0.051,0.439-0.27,0.845-0.71,0.896
			l-21.174,2.348c-0.423,0.051-0.828-0.271-0.879-0.709l-5.61-50.391c-0.051-0.439,0.269-0.845,0.709-0.896l21.174-2.348
			C54.379,163.692,54.768,164.012,54.818,164.452L54.818,164.452z"/>
		<path fill-rule="evenodd" clip-rule="evenodd" fill="#6BC06F" d="M54.058,171.617l2.028,18.199l2.011,18.215
			c-0.136,0-0.271,0.018-0.423,0.034c-3.768,0.423-6.557,3.296-6.202,6.44c0.018,0.185,0.051,0.372,0.102,0.557l-4.985,0.558
			c0-0.186-0.017-0.372-0.034-0.574c-0.354-3.126-3.701-5.339-7.469-4.917c-0.152,0.016-0.288,0.034-0.422,0.067l-2.028-18.217
			l-2.028-18.199c0.135-0.016,0.288-0.016,0.423-0.034c3.785-0.422,6.557-3.312,6.218-6.438c-0.034-0.202-0.067-0.388-0.101-0.574
			l4.985-0.558c0,0.204,0,0.388,0.034,0.574c0.338,3.144,3.684,5.341,7.469,4.917C53.771,171.651,53.905,171.633,54.058,171.617
			L54.058,171.617z"/>
		<path fill-rule="evenodd" clip-rule="evenodd" fill="#6BC06F" d="M25.482,151.828l26.344,48.059
			c0.237,0.439,0.086,1.014-0.371,1.267L29.64,213.101c-0.456,0.253-1.014,0.085-1.267-0.372L2.028,164.688
			c-0.236-0.457-0.067-1.03,0.371-1.269l21.816-11.963C24.672,151.22,25.246,151.373,25.482,151.828L25.482,151.828z"/>
		<path fill-rule="evenodd" clip-rule="evenodd" fill="#87CC8A" d="M24.79,154.55l24.367,44.459c0.22,0.388,0.067,0.877-0.321,1.097
			l-18.672,10.241c-0.39,0.202-0.879,0.067-1.082-0.321L4.698,165.55c-0.203-0.388-0.067-0.879,0.322-1.081l18.672-10.239
			C24.081,154.008,24.571,154.162,24.79,154.55L24.79,154.55z"/>
		<path fill-rule="evenodd" clip-rule="evenodd" fill="#6BC06F" d="M26.801,161.46l8.804,16.072l8.805,16.052
			c-0.119,0.067-0.254,0.135-0.373,0.204c-3.346,1.824-4.816,5.542-3.295,8.313c0.102,0.17,0.203,0.338,0.305,0.491l-4.394,2.415
			c-0.068-0.185-0.152-0.354-0.254-0.523c-1.503-2.771-5.44-3.532-8.769-1.707c-0.136,0.067-0.254,0.135-0.372,0.22l-8.804-16.071
			L9.65,170.873c0.118-0.067,0.253-0.135,0.371-0.202c3.346-1.825,4.816-5.543,3.295-8.314c-0.101-0.168-0.203-0.338-0.305-0.489
			l4.394-2.417c0.067,0.185,0.152,0.354,0.253,0.524c1.504,2.77,5.441,3.53,8.771,1.706
			C26.564,161.612,26.683,161.545,26.801,161.46L26.801,161.46z"/>
		<path fill-rule="evenodd" clip-rule="evenodd" fill="#EFEFEF" d="M17.692,181.484l1.437,2.637l1.064-0.574
			c1.317,1.166,3.176,1.521,4.714,0.675c0.862-0.473,1.47-1.2,1.792-2.095c0.456-1.166,0.388-2.585-0.287-3.819
			c-0.289-0.524-0.136-1.148,0.354-1.419c0.473-0.271,1.116-0.067,1.403,0.456c0.287,0.524,0.118,1.2-0.355,1.453l1.606,2.94
			c1.538-0.828,2.264-2.602,1.978-4.326l1.233-0.675l-1.453-2.635l-1.183,0.642c-1.319-1.301-3.278-1.655-4.867-0.794
			c-1.978,1.099-2.619,3.7-1.436,5.862c0.287,0.524,0.119,1.184-0.355,1.453c-0.489,0.255-1.115,0.035-1.402-0.489
			c-0.288-0.524-0.136-1.166,0.371-1.435l-1.622-2.958c-1.656,0.895-2.383,2.754-1.994,4.563L17.692,181.484z"/>
		<path fill-rule="evenodd" clip-rule="evenodd" fill="#E99261" d="M3.853,185.659h62.76c1.673,0,3.058,1.386,3.058,3.059v32.36
			c0,1.689-1.386,3.059-3.058,3.059H3.853c-1.673,0-3.059-1.37-3.059-3.059v-32.36C0.795,187.045,2.18,185.659,3.853,185.659
			L3.853,185.659z"/>
		<path fill-rule="evenodd" clip-rule="evenodd" fill="#E58A6B" d="M3.481,190.272h63.486c1.488,0,2.704,1.217,2.704,2.704v28.474
			c0,1.469-1.217,2.686-2.704,2.686H3.481c-1.47,0-2.687-1.217-2.687-2.686v-28.474C0.795,191.489,2.011,190.272,3.481,190.272
			L3.481,190.272z"/>
		<path fill-rule="evenodd" clip-rule="evenodd" fill="#FAA17E" d="M10.798,190.272h56.169c1.488,0,2.704,1.217,2.704,2.704v28.474
			c0,1.469-1.217,2.686-2.704,2.686H10.798c-1.487,0-2.687-1.217-2.687-2.686v-28.474C8.111,191.489,9.311,190.272,10.798,190.272
			L10.798,190.272z"/>
		<path fill-rule="evenodd" clip-rule="evenodd" fill="#F9B38C" d="M18.876,190.272h48.092c1.488,0,2.704,1.217,2.704,2.704v28.474
			c0,1.469-1.217,2.686-2.704,2.686H18.876c-1.471,0-2.688-1.217-2.688-2.686v-28.474C16.188,191.489,17.405,190.272,18.876,190.272
			L18.876,190.272z"/>
		<path fill-rule="evenodd" clip-rule="evenodd" fill="#DE9266" d="M25.195,202.811c2.552,0,4.647-2.096,4.647-4.648
			c0-2.568-2.096-4.663-4.647-4.663c-2.569,0-4.663,2.095-4.663,4.663C20.533,200.715,22.626,202.811,25.195,202.811L25.195,202.811
			z"/>
		<path fill-rule="evenodd" clip-rule="evenodd" fill="#F9B38C" d="M25.195,196.913c0.676,0,1.234,0.557,1.234,1.249
			c0,0.677-0.558,1.235-1.234,1.235c-0.693,0-1.25-0.558-1.25-1.235C23.945,197.47,24.503,196.913,25.195,196.913L25.195,196.913z"
			/>
	</g>
	<g display="inline">
		<path fill-rule="evenodd" clip-rule="evenodd" fill="#F14C47" d="M208.643,150.815c1.503-2.433,2.466-5.137,2.889-7.909
			l8.466-1.471l-2.282-13.112l-8.449,1.469c-0.676-1.233-1.453-2.399-2.383-3.514c-0.929-1.099-1.942-2.095-3.024-2.958l2.958-8.06
			l-12.505-4.597l-2.957,8.077c-2.805-0.085-5.627,0.39-8.314,1.436l-5.492-6.589l-10.223,8.533l5.509,6.59
			c-1.504,2.451-2.484,5.137-2.889,7.926l-8.483,1.469l2.282,13.113l8.466-1.471c0.659,1.217,1.452,2.399,2.382,3.498
			c0.929,1.116,1.943,2.095,3.024,2.974l-2.957,8.061l12.505,4.579l2.956-8.077c2.806,0.085,5.628-0.388,8.298-1.435l5.508,6.59
			l10.225-8.534L208.643,150.815z"/>
		<path fill-rule="evenodd" clip-rule="evenodd" fill="#F8E07C" d="M195.005,144.867c2.822-2.35,3.194-6.54,0.845-9.362
			c-2.366-2.823-6.556-3.195-9.378-0.845c-2.822,2.348-3.194,6.557-0.845,9.378C187.993,146.861,192.184,147.233,195.005,144.867
			L195.005,144.867z M199.129,149.817c5.558-4.629,6.286-12.894,1.656-18.453c-4.63-5.541-12.893-6.286-18.436-1.655
			c-5.56,4.646-6.303,12.892-1.657,18.453C185.323,153.705,193.586,154.447,199.129,149.817L199.129,149.817z"/>
		<path fill-rule="evenodd" clip-rule="evenodd" fill="#F14C47" d="M156.899,123.271c-0.811-1.825-1.976-3.448-3.396-4.783
			l2.501-5.424l-8.416-3.869l-2.484,5.424c-0.963-0.103-1.943-0.119-2.941-0.018c-0.996,0.085-1.978,0.287-2.89,0.558l-3.464-4.868
			l-7.537,5.357l3.448,4.866c-1.149,1.572-1.994,3.379-2.45,5.323l-5.932,0.558l0.845,9.21l5.948-0.558
			c0.812,1.825,1.96,3.448,3.397,4.783l-2.501,5.424l8.398,3.852l2.502-5.424c0.962,0.101,1.943,0.119,2.94,0.034
			c0.997-0.101,1.96-0.287,2.889-0.574l3.448,4.866l7.553-5.341l-3.448-4.865c1.149-1.589,1.994-3.381,2.45-5.323l5.931-0.558
			l-0.861-9.21L156.899,123.271z"/>
		<path fill-rule="evenodd" clip-rule="evenodd" fill="#F8E07C" d="M148.113,128.729c-0.237-2.552-2.484-4.411-5.019-4.175
			c-2.552,0.237-4.428,2.484-4.191,5.036c0.237,2.534,2.5,4.411,5.035,4.175C146.491,133.528,148.349,131.264,148.113,128.729
			L148.113,128.729z M152.574,128.306c-0.473-5.003-4.9-8.668-9.902-8.212c-5.001,0.473-8.685,4.901-8.212,9.902
			c0.456,5.003,4.901,8.685,9.902,8.212C149.363,137.753,153.047,133.308,152.574,128.306L152.574,128.306z"/>
	</g>
	<g display="inline">
		<rect x="123.121" y="165.652" fill-rule="evenodd" clip-rule="evenodd" fill="#E6E6E6" width="50.999" height="65.615"/>
		<path fill-rule="evenodd" clip-rule="evenodd" fill="#29ABE2" d="M174.44,165.652h-25.82H122.8c-1.014,0-1.842-0.829-1.842-1.843
			v-2.754c0-1.014,0.828-1.841,1.842-1.841h18.638c-0.034-0.271-0.051-0.524-0.051-0.778c0-4.005,3.244-7.233,7.233-7.233
			c3.987,0,7.233,3.229,7.233,7.233c0,0.253-0.018,0.507-0.052,0.778h18.639c1.014,0,1.859,0.828,1.859,1.841v2.754
			C176.299,164.823,175.455,165.652,174.44,165.652L174.44,165.652z M148.62,155.647c-1.538,0-2.788,1.251-2.788,2.789
			c0,1.538,1.25,2.772,2.788,2.772c1.538,0,2.789-1.233,2.789-2.772C151.409,156.898,150.158,155.647,148.62,155.647L148.62,155.647
			z"/>
		<path fill-rule="evenodd" clip-rule="evenodd" fill="#005A83" d="M174.44,165.652h-25.82H122.8c-1.014,0-1.842-0.829-1.842-1.843
			v-0.034h55.341v0.034C176.299,164.823,175.455,165.652,174.44,165.652L174.44,165.652z"/>
		<rect x="130.639" y="174.945" fill-rule="evenodd" clip-rule="evenodd" fill="#666666" width="35.977" height="3.059"/>
		<rect x="130.639" y="186.74" fill-rule="evenodd" clip-rule="evenodd" fill="#666666" width="35.977" height="3.059"/>
		<rect x="130.639" y="198.535" fill-rule="evenodd" clip-rule="evenodd" fill="#666666" width="35.977" height="3.059"/>
		<rect x="130.639" y="210.33" fill-rule="evenodd" clip-rule="evenodd" fill="#666666" width="35.977" height="3.059"/>
	</g>
	<g display="inline">
		<path fill-rule="evenodd" clip-rule="evenodd" fill="#F14C47" d="M25.331,84.725c11.102,0,20.159-9.057,20.159-20.159
			c0-11.102-9.057-20.159-20.159-20.159c-11.102,0-20.159,9.057-20.159,20.159C5.172,75.668,14.229,84.725,25.331,84.725
			L25.331,84.725z"/>
		<polygon fill-rule="evenodd" clip-rule="evenodd" fill="#FFFFFF" points="14.145,60.274 24.621,78.153 49.377,37.581 
			25.246,65.243 		"/>
	</g>
</g>
<g>
	<path fill="#B3BAB3" d="M111.225,215.16l-50.812-21.5c-12.832-2.912-12.201,12.658-0.743,12.33
		c-15.419,5.347-5.983,27.433,8.432,20.822c-7.493,7.736,15.128,29.725,20.543,9.372C100.89,256.936,130.843,234.81,111.225,215.16z
		"/>
	<path fill="#B3BAB3" d="M83.404,210.444l-56.056-23.719c-14.156-3.212-13.461,13.965-0.819,13.603
		c-17.01,5.899-6.601,30.264,9.302,22.971c-8.266,8.535,16.689,32.793,22.663,10.339C72.003,256.531,105.047,232.121,83.404,210.444
		z"/>
	<path fill="#C9CCCA" d="M62.641,152.244c-3.197-5.128-5.87-13.651-15.274-10.201c-7.777,2.853-8.149,10.467-5.364,15.766
		c-22.763-10.846-31.06,17.872-9.894,20.687c-5.631,1.535-4.434,9.063-2.185,12.569c5.045,7.867,15.26,5.631,22.662-0.131
		L62.641,152.244z"/>
	<path fill="#DEE1DE" d="M78.028,175.864c-3.829-4.949-21.947-14.712-21.947-14.712c-5.022-0.164-12.293,1.804-13.756,7.598
		c-1.295,5.132,3.602,11.113,8.493,11.894c-5.329,0.947-11.792,5.365-10.616,11.279c1.747,8.778,8.208,7.114,13.988,5.798
		c-3.268,3.609,1.76,9.86,5.104,11.082C71.402,213.229,83.287,182.663,78.028,175.864z"/>
	<path fill="#FBFBFB" d="M112.558,194.142c6.236-5.425,4.165-11.899,0.194-15.27c5.11,3.052,13.257-2.434,14.424-7.711
		c0.959-4.338-2.147-8.593-4.753-11.063l1.316-0.597c1.349-4.926-7.863-9.704-12.246-8.943c-4.194,0.728-7.098,4.45-8.365,7.83
		c3.285-16.887-16.759-22.02-24.82-7.959c0.121-5.199-7.761-8.454-12.561-7.84c-6.728,0.861-13.776,5.023-16.327,11.104
		c-3.046,7.262,1.282,17.892,10.735,18.497c-16.401,9.199,0.824,32.049,12.816,19.771c-2.346,9.01,5.184,12.243,11.429,11.735
		c5.976-0.486,12.191-6.495,9.876-11.879C98.412,198.079,105.829,199.996,112.558,194.142z"/>
	<path fill="#FBFBFB" d="M122.754,210.948c2.139-7.709-2.491-16.446-11.115-15.667c4.782-4.06,10.697-12.653,6.983-18.832
		c-3.063-5.095-12.226-7.36-17.366-4.354c0,0-39.075,13.777-39.386,13.353c-11.643,8.771-2.422,23.428,7.79,17.859
		c-13.987,11.251-0.81,26.112,12.574,14.634c-2.105,20.783,26.691,19.173,21.598,1.87
		C110.997,222.979,120.363,219.567,122.754,210.948z"/>
	<path fill="#DEE1DE" d="M65.748,142.588c-6.728,0.861-13.776,5.023-16.327,11.104c-3.046,7.262,1.282,17.892,10.735,18.497
		c-16.401,9.199,0.824,32.049,12.816,19.771c-2.346,9.01,5.184,12.243,11.429,11.735c5.976-0.486,12.191-6.495,9.876-11.879
		c4.136,6.263,11.553,8.18,18.282,2.326c4.379-3.809,4.659-8.134,3.065-11.54c-6.099,4.953-17.499,6.21-20.26-1.985
		c0.962,9.516-11.753,4.305-11.82-1.797c-3.097,6.376-14.176,12.744-20.865,2.848c-4.368-6.463,4.068-14.339,9.138-17.719
		c-8.218,3.631-17.127-0.825-15.772-8.09c1.719-9.222,12.521-16.056,22.13-5.609l0.04-0.884
		C77.336,144.794,70.211,142.017,65.748,142.588z"/>
	<path fill="#DEE1DE" d="M81.701,219.32c-1.896,21.936,28.528,19.363,22.694,0.978c7.817,3.476,17.089-0.829,19.519-9.899
		c2.174-8.112-3.002-17.432-12.326-16.761c0.269-0.222,0.543-0.46,0.816-0.708c-0.626,0.153-1.631,1.203-2.235,1.431
		c4.549,3.315,9.202,8.358,5.893,14.156c-3.48,6.101-11.156,6.931-17.054,4.438c3.478,5.792,3.334,12.447-4.965,13.315
		c-8.916,0.93-8.854-10.344-10.521-19.144c-5.5,23.821-24.933,10.768-17.344-2.792C51.084,219.194,69.853,237.427,81.701,219.32z"/>
</g>
<g>
	<g>
		<path fill="#FFC500" d="M86.354,175.688c48.121-22.64,42.446-48.828,42.446-48.828l-9.324-5.667l-0.088-0.054l-9.324-5.667
			c0,0-25.86,7.021-23.797,60.162l-0.083,0.137c0.029-0.014,0.056-0.029,0.085-0.041c0.002,0.031,0.002,0.063,0.003,0.095
			L86.354,175.688z"/>
		<path fill="#FDEBA1" d="M91.576,166.272c37.138-17.181,32.66-41.883,32.66-41.883l-5.261-3.198l-0.05-0.03
			c0,0-3.543-3.711-5.261-3.198C92.362,124.328,91.576,166.272,91.576,166.272z"/>
	</g>
	<g>
		<g id="rocket_2_">
			<polygon fill="#DF3428" points="106.262,113.838 129.363,127.455 133.77,119.971 110.671,106.352 			"/>
			<path fill="#FF6425" d="M140.373,80.853C118.096,67.722,89.587,74.814,76.698,96.7c-2.995,5.086-4.87,10.523-5.723,16.036
				c14.561-11.298,35.325-13.146,52.426-3.064c17.101,10.083,25.548,29.15,22.722,47.366c4.407-3.416,8.252-7.691,11.249-12.778
				C170.262,122.374,162.651,93.987,140.373,80.853z"/>
			<path fill="#DF3428" d="M132.915,117.077c10.593,10.608,15.442,25.542,13.209,39.961c4.407-3.416,8.252-7.691,11.249-12.778
				c10.827-18.389,7.179-41.364-7.474-56.025L132.915,117.077z"/>
			<path fill="#F9EFDC" d="M123.044,53.269c-10.999,18.679-17.043,38.144-18.181,55.326c5.311,1.248,10.544,3.301,15.505,6.227
				c4.961,2.925,9.291,6.506,12.959,10.553c14.466-9.324,28.555-24.045,39.554-42.723c17.473-29.67,22.47-61.335,15.104-82.653
				C165.779,3.884,140.517,23.598,123.044,53.269z"/>
			<path fill="#FFAE00" d="M152.694,17.853l-3.165,2.756c0,0,22.717,10.199,39.355,23.734l0.593-4.802
				C189.477,39.54,166.695,22.079,152.694,17.853z"/>
			<path fill="#FF6425" d="M121.53,104.621c-7.268,12.34-11.384,24.304-11.3,31.42c6.26-3.375,14.727-12.775,21.994-25.115
				c7.267-12.34,11.382-24.307,11.3-31.421C137.262,82.881,128.796,92.281,121.53,104.621z"/>
			<path fill="#DF3428" d="M110.237,135.699c0.001,0.113-0.008,0.234-0.008,0.342c6.26-3.375,14.727-12.775,21.994-25.115
				c7.267-12.34,11.382-24.307,11.3-31.421c-0.096,0.054-0.199,0.122-0.296,0.171L110.237,135.699z"/>
			<path fill="#FF6425" d="M152.694,17.853c6.22,3.141,12.485,6.542,18.751,10.237c6.264,3.693,12.276,7.527,18.033,11.451
				c2.79-14.797,2.306-28.55-1.491-39.54C176.537,2.002,164.28,8.242,152.694,17.853z"/>
			<path fill="#DF3428" d="M172.05,28.453c6.043,3.582,11.857,7.291,17.427,11.087c2.79-14.797,2.306-28.55-1.491-39.54
				c-0.206,0.036-0.415,0.084-0.621,0.123L172.05,28.453z"/>
			<path fill="#FFAE00" d="M162.613,43.441l-0.153-0.092c-2.948-1.739-6.388-2.245-9.686-1.425c-3.298,0.82-6.054,2.867-7.76,5.762
				c-3.476,5.905-1.454,13.658,4.507,17.282l0.153,0.091c6.094,3.592,13.92,1.645,17.445-4.342
				C170.594,54.814,168.572,47.063,162.613,43.441z"/>
			<path fill="#004666" d="M160.905,45.986c-4.614-2.722-10.539-1.247-13.208,3.284c-2.67,4.536-1.087,10.432,3.528,13.153
				c4.613,2.72,10.537,1.248,13.207-3.287C167.1,54.605,165.518,48.704,160.905,45.986z"/>
		</g>
	</g>
</g>
</svg>
